<svg width="42" height="42" viewBox="0 0 42 42" fill="none" xmlns="http://www.w3.org/2000/svg">
<rect x="1" y="1" width="40" height="40" rx="11" fill="#E46E00"/>
<rect x="1" y="1" width="40" height="40" rx="11" stroke="#275F4B" stroke-linecap="round"/>
<rect x="1" y="1" width="40" height="40" rx="11" stroke="black" stroke-linecap="round"/>
<path d="M19.6932 28.5085V14.446H22.0795V28.5085H19.6932ZM13.8551 22.6705V20.2841H27.9176V22.6705H13.8551Z" fill="white"/>
<path d="M19.6932 28.5085H19.1932V29.0085H19.6932V28.5085ZM19.6932 14.446V13.946H19.1932V14.446H19.6932ZM22.0795 14.446H22.5795V13.946H22.0795V14.446ZM22.0795 28.5085V29.0085H22.5795V28.5085H22.0795ZM13.8551 22.6705H13.3551V23.1705H13.8551V22.6705ZM13.8551 20.2841V19.7841H13.3551V20.2841H13.8551ZM27.9176 20.2841H28.4176V19.7841H27.9176V20.2841ZM27.9176 22.6705V23.1705H28.4176V22.6705H27.9176ZM20.1932 28.5085V14.446H19.1932V28.5085H20.1932ZM19.6932 14.946H22.0795V13.946H19.6932V14.946ZM21.5795 14.446V28.5085H22.5795V14.446H21.5795ZM22.0795 28.0085H19.6932V29.0085H22.0795V28.0085ZM14.3551 22.6705V20.2841H13.3551V22.6705H14.3551ZM13.8551 20.7841H27.9176V19.7841H13.8551V20.7841ZM27.4176 20.2841V22.6705H28.4176V20.2841H27.4176ZM27.9176 22.1705H13.8551V23.1705H27.9176V22.1705Z" fill="#275F4B"/>
<path d="M19.6932 28.5085H19.1932V29.0085H19.6932V28.5085ZM19.6932 14.446V13.946H19.1932V14.446H19.6932ZM22.0795 14.446H22.5795V13.946H22.0795V14.446ZM22.0795 28.5085V29.0085H22.5795V28.5085H22.0795ZM13.8551 22.6705H13.3551V23.1705H13.8551V22.6705ZM13.8551 20.2841V19.7841H13.3551V20.2841H13.8551ZM27.9176 20.2841H28.4176V19.7841H27.9176V20.2841ZM27.9176 22.6705V23.1705H28.4176V22.6705H27.9176ZM20.1932 28.5085V14.446H19.1932V28.5085H20.1932ZM19.6932 14.946H22.0795V13.946H19.6932V14.946ZM21.5795 14.446V28.5085H22.5795V14.446H21.5795ZM22.0795 28.0085H19.6932V29.0085H22.0795V28.0085ZM14.3551 22.6705V20.2841H13.3551V22.6705H14.3551ZM13.8551 20.7841H27.9176V19.7841H13.8551V20.7841ZM27.4176 20.2841V22.6705H28.4176V20.2841H27.4176ZM27.9176 22.1705H13.8551V23.1705H27.9176V22.1705Z" fill="black"/>
</svg>
