<svg width="93" height="42" viewBox="0 0 93 42" fill="none" xmlns="http://www.w3.org/2000/svg">
<path d="M1 11C1 5.47715 5.47715 1 11 1H82C87.5229 1 92 5.47715 92 11V31C92 36.5229 87.5229 41 82 41H11C5.47715 41 1 36.5229 1 31V11Z" fill="#00FFD1" fill-opacity="0.24"/>
<path d="M1 11C1 5.47715 5.47715 1 11 1H82C87.5229 1 92 5.47715 92 11V31C92 36.5229 87.5229 41 82 41H11C5.47715 41 1 36.5229 1 31V11Z" stroke="#275F4B" stroke-linecap="round"/>
<path d="M1 11C1 5.47715 5.47715 1 11 1H82C87.5229 1 92 5.47715 92 11V31C92 36.5229 87.5229 41 82 41H11C5.47715 41 1 36.5229 1 31V11Z" stroke="black" stroke-linecap="round"/>
<path d="M49.375 33.2983C47.7699 33.2983 46.4027 32.8615 45.2734 31.9879C44.1442 31.1072 43.2813 29.8324 42.6847 28.1634C42.0881 26.4872 41.7898 24.4631 41.7898 22.0909C41.7898 19.733 42.0881 17.7195 42.6847 16.0504C43.2884 14.3743 44.1548 13.0959 45.2841 12.2152C46.4205 11.3274 47.7841 10.8835 49.375 10.8835C50.9659 10.8835 52.326 11.3274 53.4553 12.2152C54.5916 13.0959 55.4581 14.3743 56.0547 16.0504C56.6584 17.7195 56.9602 19.733 56.9602 22.0909C56.9602 24.4631 56.6619 26.4872 56.0653 28.1634C55.4688 29.8324 54.6058 31.1072 53.4766 31.9879C52.3473 32.8615 50.9801 33.2983 49.375 33.2983ZM49.375 30.9545C50.9659 30.9545 52.2017 30.1875 53.0824 28.6534C53.9631 27.1193 54.4034 24.9318 54.4034 22.0909C54.4034 20.2017 54.201 18.593 53.7962 17.2649C53.3984 15.9368 52.8232 14.9247 52.0703 14.2287C51.3246 13.5327 50.4261 13.1847 49.375 13.1847C47.7983 13.1847 46.5661 13.9624 45.6783 15.5178C44.7905 17.0661 44.3466 19.2571 44.3466 22.0909C44.3466 23.9801 44.5455 25.5852 44.9432 26.9062C45.3409 28.2273 45.9126 29.2322 46.6584 29.9212C47.4112 30.6101 48.3168 30.9545 49.375 30.9545Z" fill="black"/>
<path d="M45.2734 31.9879L44.966 32.3822L44.9675 32.3834L45.2734 31.9879ZM42.6847 28.1634L42.2136 28.331L42.2138 28.3316L42.6847 28.1634ZM42.6847 16.0504L42.2142 15.881L42.2138 15.8821L42.6847 16.0504ZM45.2841 12.2152L45.5916 12.6095L45.5919 12.6092L45.2841 12.2152ZM53.4553 12.2152L53.1462 12.6083L53.149 12.6104L53.4553 12.2152ZM56.0547 16.0504L55.5836 16.2181L55.5845 16.2205L56.0547 16.0504ZM56.0653 28.1634L56.5362 28.3316L56.5364 28.331L56.0653 28.1634ZM53.4766 31.9879L53.7825 32.3834L53.784 32.3822L53.4766 31.9879ZM53.0824 28.6534L52.6488 28.4045L53.0824 28.6534ZM53.7962 17.2649L53.3172 17.4084L53.3179 17.4107L53.7962 17.2649ZM52.0703 14.2287L51.7291 14.5942L51.7309 14.5958L52.0703 14.2287ZM45.6783 15.5178L46.112 15.7665L46.1125 15.7656L45.6783 15.5178ZM44.9432 26.9062L44.4644 27.0504L44.9432 26.9062ZM46.6584 29.9212L46.3191 30.2884L46.3208 30.29L46.6584 29.9212ZM49.375 32.7983C47.8661 32.7983 46.6102 32.3899 45.5794 31.5924L44.9675 32.3834C46.1952 33.3331 47.6736 33.7983 49.375 33.7983V32.7983ZM45.5809 31.5937C44.5424 30.7837 43.7277 29.596 43.1555 27.9951L42.2138 28.3316C42.8348 30.0688 43.7459 31.4307 44.966 32.3822L45.5809 31.5937ZM43.1557 27.9957C42.5835 26.388 42.2898 24.4238 42.2898 22.0909H41.2898C41.2898 24.5023 41.5927 26.5865 42.2136 28.331L43.1557 27.9957ZM42.2898 22.0909C42.2898 19.7725 42.5834 17.8192 43.1555 16.2187L42.2138 15.8821C41.5927 17.6197 41.2898 19.6934 41.2898 22.0909H42.2898ZM43.1551 16.2199C43.7346 14.6109 44.553 13.4194 45.5916 12.6095L44.9766 11.8209C43.7566 12.7723 42.8421 14.1377 42.2142 15.881L43.1551 16.2199ZM45.5919 12.6092C46.6312 11.7973 47.8834 11.3835 49.375 11.3835V10.3835C47.6847 10.3835 46.2097 10.8576 44.9763 11.8212L45.5919 12.6092ZM49.375 11.3835C50.8666 11.3835 52.1146 11.7973 53.1462 12.6083L53.7643 11.8221C52.5374 10.8576 51.0652 10.3835 49.375 10.3835V11.3835ZM53.149 12.6104C54.1936 13.42 55.0115 14.6106 55.5836 16.2181L56.5257 15.8828C55.9047 14.138 54.9896 12.7717 53.7615 11.82L53.149 12.6104ZM55.5845 16.2205C56.1632 17.8204 56.4602 19.773 56.4602 22.0909H57.4602C57.4602 19.6929 57.1536 17.6186 56.5249 15.8804L55.5845 16.2205ZM56.4602 22.0909C56.4602 24.4238 56.1665 26.388 55.5943 27.9957L56.5364 28.331C57.1573 26.5865 57.4602 24.5023 57.4602 22.0909H56.4602ZM55.5945 27.9951C55.0223 29.596 54.2076 30.7837 53.1691 31.5937L53.784 32.3822C55.0041 31.4307 55.9152 30.0688 56.5362 28.3316L55.5945 27.9951ZM53.1706 31.5924C52.1398 32.3899 50.8839 32.7983 49.375 32.7983V33.7983C51.0764 33.7983 52.5548 33.3331 53.7825 32.3834L53.1706 31.5924ZM49.375 31.4545C51.168 31.4545 52.5582 30.5707 53.516 28.9023L52.6488 28.4045C51.8452 29.8043 50.7638 30.4545 49.375 30.4545V31.4545ZM53.516 28.9023C54.459 27.2598 54.9034 24.9715 54.9034 22.0909H53.9034C53.9034 24.8921 53.4672 26.9789 52.6488 28.4045L53.516 28.9023ZM54.9034 22.0909C54.9034 20.1688 54.6978 18.5081 54.2744 17.1191L53.3179 17.4107C53.7042 18.678 53.9034 20.2346 53.9034 22.0909H54.9034ZM54.2751 17.1215C53.8605 15.7367 53.2475 14.6361 52.4097 13.8616L51.7309 14.5958C52.3988 15.2134 52.9364 16.1368 53.3172 17.4084L54.2751 17.1215ZM52.4115 13.8632C51.5701 13.0779 50.5485 12.6847 49.375 12.6847V13.6847C50.3038 13.6847 51.0791 13.9875 51.7292 14.5942L52.4115 13.8632ZM49.375 12.6847C47.5912 12.6847 46.2062 13.5841 45.244 15.2699L46.1125 15.7656C46.9259 14.3406 48.0054 13.6847 49.375 13.6847V12.6847ZM45.2445 15.269C44.2949 16.9251 43.8466 19.2162 43.8466 22.0909H44.8466C44.8466 19.298 45.286 17.207 46.112 15.7665L45.2445 15.269ZM43.8466 22.0909C43.8466 24.0123 44.0485 25.669 44.4644 27.0504L45.422 26.7621C45.0424 25.5015 44.8466 23.948 44.8466 22.0909H43.8466ZM44.4644 27.0504C44.879 28.4274 45.4883 29.521 46.3191 30.2884L46.9977 29.5539C46.337 28.9435 45.8028 28.0272 45.422 26.7621L44.4644 27.0504ZM46.3208 30.29C47.1695 31.0667 48.1969 31.4545 49.375 31.4545V30.4545C48.4366 30.4545 47.6529 30.1535 46.9959 29.5523L46.3208 30.29Z" fill="#275F4B"/>
<path d="M45.2734 31.9879L44.966 32.3822L44.9675 32.3834L45.2734 31.9879ZM42.6847 28.1634L42.2136 28.331L42.2138 28.3316L42.6847 28.1634ZM42.6847 16.0504L42.2142 15.881L42.2138 15.8821L42.6847 16.0504ZM45.2841 12.2152L45.5916 12.6095L45.5919 12.6092L45.2841 12.2152ZM53.4553 12.2152L53.1462 12.6083L53.149 12.6104L53.4553 12.2152ZM56.0547 16.0504L55.5836 16.2181L55.5845 16.2205L56.0547 16.0504ZM56.0653 28.1634L56.5362 28.3316L56.5364 28.331L56.0653 28.1634ZM53.4766 31.9879L53.7825 32.3834L53.784 32.3822L53.4766 31.9879ZM53.0824 28.6534L52.6488 28.4045L53.0824 28.6534ZM53.7962 17.2649L53.3172 17.4084L53.3179 17.4107L53.7962 17.2649ZM52.0703 14.2287L51.7291 14.5942L51.7309 14.5958L52.0703 14.2287ZM45.6783 15.5178L46.112 15.7665L46.1125 15.7656L45.6783 15.5178ZM44.9432 26.9062L44.4644 27.0504L44.9432 26.9062ZM46.6584 29.9212L46.3191 30.2884L46.3208 30.29L46.6584 29.9212ZM49.375 32.7983C47.8661 32.7983 46.6102 32.3899 45.5794 31.5924L44.9675 32.3834C46.1952 33.3331 47.6736 33.7983 49.375 33.7983V32.7983ZM45.5809 31.5937C44.5424 30.7837 43.7277 29.596 43.1555 27.9951L42.2138 28.3316C42.8348 30.0688 43.7459 31.4307 44.966 32.3822L45.5809 31.5937ZM43.1557 27.9957C42.5835 26.388 42.2898 24.4238 42.2898 22.0909H41.2898C41.2898 24.5023 41.5927 26.5865 42.2136 28.331L43.1557 27.9957ZM42.2898 22.0909C42.2898 19.7725 42.5834 17.8192 43.1555 16.2187L42.2138 15.8821C41.5927 17.6197 41.2898 19.6934 41.2898 22.0909H42.2898ZM43.1551 16.2199C43.7346 14.6109 44.553 13.4194 45.5916 12.6095L44.9766 11.8209C43.7566 12.7723 42.8421 14.1377 42.2142 15.881L43.1551 16.2199ZM45.5919 12.6092C46.6312 11.7973 47.8834 11.3835 49.375 11.3835V10.3835C47.6847 10.3835 46.2097 10.8576 44.9763 11.8212L45.5919 12.6092ZM49.375 11.3835C50.8666 11.3835 52.1146 11.7973 53.1462 12.6083L53.7643 11.8221C52.5374 10.8576 51.0652 10.3835 49.375 10.3835V11.3835ZM53.149 12.6104C54.1936 13.42 55.0115 14.6106 55.5836 16.2181L56.5257 15.8828C55.9047 14.138 54.9896 12.7717 53.7615 11.82L53.149 12.6104ZM55.5845 16.2205C56.1632 17.8204 56.4602 19.773 56.4602 22.0909H57.4602C57.4602 19.6929 57.1536 17.6186 56.5249 15.8804L55.5845 16.2205ZM56.4602 22.0909C56.4602 24.4238 56.1665 26.388 55.5943 27.9957L56.5364 28.331C57.1573 26.5865 57.4602 24.5023 57.4602 22.0909H56.4602ZM55.5945 27.9951C55.0223 29.596 54.2076 30.7837 53.1691 31.5937L53.784 32.3822C55.0041 31.4307 55.9152 30.0688 56.5362 28.3316L55.5945 27.9951ZM53.1706 31.5924C52.1398 32.3899 50.8839 32.7983 49.375 32.7983V33.7983C51.0764 33.7983 52.5548 33.3331 53.7825 32.3834L53.1706 31.5924ZM49.375 31.4545C51.168 31.4545 52.5582 30.5707 53.516 28.9023L52.6488 28.4045C51.8452 29.8043 50.7638 30.4545 49.375 30.4545V31.4545ZM53.516 28.9023C54.459 27.2598 54.9034 24.9715 54.9034 22.0909H53.9034C53.9034 24.8921 53.4672 26.9789 52.6488 28.4045L53.516 28.9023ZM54.9034 22.0909C54.9034 20.1688 54.6978 18.5081 54.2744 17.1191L53.3179 17.4107C53.7042 18.678 53.9034 20.2346 53.9034 22.0909H54.9034ZM54.2751 17.1215C53.8605 15.7367 53.2475 14.6361 52.4097 13.8616L51.7309 14.5958C52.3988 15.2134 52.9364 16.1368 53.3172 17.4084L54.2751 17.1215ZM52.4115 13.8632C51.5701 13.0779 50.5485 12.6847 49.375 12.6847V13.6847C50.3038 13.6847 51.0791 13.9875 51.7292 14.5942L52.4115 13.8632ZM49.375 12.6847C47.5912 12.6847 46.2062 13.5841 45.244 15.2699L46.1125 15.7656C46.9259 14.3406 48.0054 13.6847 49.375 13.6847V12.6847ZM45.2445 15.269C44.2949 16.9251 43.8466 19.2162 43.8466 22.0909H44.8466C44.8466 19.298 45.286 17.207 46.112 15.7665L45.2445 15.269ZM43.8466 22.0909C43.8466 24.0123 44.0485 25.669 44.4644 27.0504L45.422 26.7621C45.0424 25.5015 44.8466 23.948 44.8466 22.0909H43.8466ZM44.4644 27.0504C44.879 28.4274 45.4883 29.521 46.3191 30.2884L46.9977 29.5539C46.337 28.9435 45.8028 28.0272 45.422 26.7621L44.4644 27.0504ZM46.3208 30.29C47.1695 31.0667 48.1969 31.4545 49.375 31.4545V30.4545C48.4366 30.4545 47.6529 30.1535 46.9959 29.5523L46.3208 30.29Z" fill="black"/>
</svg>
