<svg width="42" height="42" viewBox="0 0 42 42" fill="none" xmlns="http://www.w3.org/2000/svg">
<g opacity="0.1">
<rect x="1" y="1" width="40" height="40" rx="10" fill="#00FFC2"/>
<rect x="1" y="1" width="40" height="40" rx="10" stroke="#275F4B" stroke-linecap="round"/>
<rect x="1" y="1" width="40" height="40" rx="10" stroke="black" stroke-linecap="round"/>
</g>
<path d="M23.929 10.1818V32H21.2869V12.9517H21.1591L15.8324 16.4886V13.804L21.2869 10.1818H23.929Z" fill="black"/>
<path d="M23.929 10.1818H24.429V9.68182H23.929V10.1818ZM23.929 32V32.5H24.429V32H23.929ZM21.2869 32H20.7869V32.5H21.2869V32ZM21.2869 12.9517H21.7869V12.4517H21.2869V12.9517ZM21.1591 12.9517V12.4517H21.0082L20.8825 12.5352L21.1591 12.9517ZM15.8324 16.4886H15.3324V17.4208L16.109 16.9052L15.8324 16.4886ZM15.8324 13.804L15.5558 13.3875L15.3324 13.5358V13.804H15.8324ZM21.2869 10.1818V9.68182H21.136L21.0103 9.76529L21.2869 10.1818ZM23.429 10.1818V32H24.429V10.1818H23.429ZM23.929 31.5H21.2869V32.5H23.929V31.5ZM21.7869 32V12.9517H20.7869V32H21.7869ZM21.2869 12.4517H21.1591V13.4517H21.2869V12.4517ZM20.8825 12.5352L15.5558 16.0721L16.109 16.9052L21.4357 13.3682L20.8825 12.5352ZM16.3324 16.4886V13.804H15.3324V16.4886H16.3324ZM16.109 14.2205L21.5635 10.5983L21.0103 9.76529L15.5558 13.3875L16.109 14.2205ZM21.2869 10.6818H23.929V9.68182H21.2869V10.6818Z" fill="#275F4B"/>
<path d="M23.929 10.1818H24.429V9.68182H23.929V10.1818ZM23.929 32V32.5H24.429V32H23.929ZM21.2869 32H20.7869V32.5H21.2869V32ZM21.2869 12.9517H21.7869V12.4517H21.2869V12.9517ZM21.1591 12.9517V12.4517H21.0082L20.8825 12.5352L21.1591 12.9517ZM15.8324 16.4886H15.3324V17.4208L16.109 16.9052L15.8324 16.4886ZM15.8324 13.804L15.5558 13.3875L15.3324 13.5358V13.804H15.8324ZM21.2869 10.1818V9.68182H21.136L21.0103 9.76529L21.2869 10.1818ZM23.429 10.1818V32H24.429V10.1818H23.429ZM23.929 31.5H21.2869V32.5H23.929V31.5ZM21.7869 32V12.9517H20.7869V32H21.7869ZM21.2869 12.4517H21.1591V13.4517H21.2869V12.4517ZM20.8825 12.5352L15.5558 16.0721L16.109 16.9052L21.4357 13.3682L20.8825 12.5352ZM16.3324 16.4886V13.804H15.3324V16.4886H16.3324ZM16.109 14.2205L21.5635 10.5983L21.0103 9.76529L15.5558 13.3875L16.109 14.2205ZM21.2869 10.6818H23.929V9.68182H21.2869V10.6818Z" fill="black"/>
</svg>
