<svg width="42" height="42" viewBox="0 0 42 42" fill="none" xmlns="http://www.w3.org/2000/svg">
<g opacity="0.1">
<rect x="1" y="1" width="40" height="40" rx="10" fill="#00FFC2"/>
<rect x="1" y="1" width="40" height="40" rx="10" stroke="#275F4B" stroke-linecap="round"/>
<rect x="1" y="1" width="40" height="40" rx="10" stroke="black" stroke-linecap="round"/>
</g>
<path d="M13.2585 34V32.0824L20.4602 24.1989C21.3054 23.2756 22.0014 22.473 22.5483 21.7912C23.0952 21.1023 23.5 20.456 23.7628 19.8523C24.0327 19.2415 24.1676 18.6023 24.1676 17.9347C24.1676 17.1676 23.983 16.5036 23.6136 15.9425C23.2514 15.3814 22.7543 14.9482 22.1222 14.6428C21.4901 14.3374 20.7798 14.1847 19.9915 14.1847C19.1534 14.1847 18.4219 14.3587 17.7969 14.7067C17.179 15.0476 16.6996 15.527 16.3587 16.1449C16.0249 16.7628 15.858 17.4872 15.858 18.3182H13.3438C13.3438 17.0398 13.6385 15.9176 14.228 14.9517C14.8175 13.9858 15.62 13.233 16.6357 12.6932C17.6584 12.1534 18.8054 11.8835 20.0767 11.8835C21.3551 11.8835 22.4879 12.1534 23.4751 12.6932C24.4624 13.233 25.2365 13.9609 25.7976 14.8771C26.3587 15.7933 26.6392 16.8125 26.6392 17.9347C26.6392 18.7372 26.4936 19.522 26.2024 20.2891C25.9183 21.049 25.4212 21.8977 24.7109 22.8352C24.0078 23.7656 23.0312 24.902 21.7812 26.2443L16.8807 31.4858V31.6562H27.0227V34H13.2585Z" fill="black"/>
<path d="M13.2585 34H12.7585V34.5H13.2585V34ZM13.2585 32.0824L12.8894 31.7452L12.7585 31.8884V32.0824H13.2585ZM20.4602 24.1989L20.0914 23.8613L20.0911 23.8616L20.4602 24.1989ZM22.5483 21.7912L22.9383 22.104L22.9399 22.1021L22.5483 21.7912ZM23.7628 19.8523L23.3054 19.6502L23.3043 19.6527L23.7628 19.8523ZM23.6136 15.9425L23.1936 16.2137L23.196 16.2174L23.6136 15.9425ZM22.1222 14.6428L22.3397 14.1925L22.1222 14.6428ZM17.7969 14.7067L18.0384 15.1445L18.0401 15.1435L17.7969 14.7067ZM16.3587 16.1449L15.9209 15.9033L15.9188 15.9072L16.3587 16.1449ZM15.858 18.3182V18.8182H16.358V18.3182H15.858ZM13.3438 18.3182H12.8438V18.8182H13.3438V18.3182ZM14.228 14.9517L14.6548 15.2122H14.6548L14.228 14.9517ZM16.6357 12.6932L16.4023 12.251L16.401 12.2517L16.6357 12.6932ZM23.4751 12.6932L23.715 12.2545L23.4751 12.6932ZM25.7976 14.8771L25.3712 15.1383L25.7976 14.8771ZM26.2024 20.2891L25.735 20.1116L25.7341 20.114L26.2024 20.2891ZM24.7109 22.8352L24.3124 22.5333L24.312 22.5338L24.7109 22.8352ZM21.7812 26.2443L22.1465 26.5858L22.1472 26.5851L21.7812 26.2443ZM16.8807 31.4858L16.5155 31.1443L16.3807 31.2885V31.4858H16.8807ZM16.8807 31.6562H16.3807V32.1562H16.8807V31.6562ZM27.0227 31.6562H27.5227V31.1562H27.0227V31.6562ZM27.0227 34V34.5H27.5227V34H27.0227ZM13.7585 34V32.0824H12.7585V34H13.7585ZM13.6277 32.4196L20.8294 24.5361L20.0911 23.8616L12.8894 31.7452L13.6277 32.4196ZM20.829 24.5365C21.6787 23.6083 22.3825 22.7971 22.9383 22.104L22.1583 21.4783C21.6204 22.1489 20.9321 22.9429 20.0914 23.8613L20.829 24.5365ZM22.9399 22.1021C23.5054 21.3897 23.9364 20.7061 24.2212 20.0518L23.3043 19.6527C23.0636 20.2058 22.685 20.8148 22.1567 21.4803L22.9399 22.1021ZM24.2201 20.0544C24.5181 19.3799 24.6676 18.6719 24.6676 17.9347H23.6676C23.6676 18.5327 23.5472 19.103 23.3054 19.6502L24.2201 20.0544ZM24.6676 17.9347C24.6676 17.0842 24.4617 16.3214 24.0313 15.6676L23.196 16.2174C23.5042 16.6857 23.6676 17.2511 23.6676 17.9347H24.6676ZM24.0337 15.6713C23.6191 15.029 23.05 14.5358 22.3397 14.1925L21.9046 15.093C22.4585 15.3606 22.8837 15.7337 23.1936 16.2137L24.0337 15.6713ZM22.3397 14.1925C21.6318 13.8505 20.8458 13.6847 19.9915 13.6847V14.6847C20.7138 14.6847 21.3483 14.8242 21.9046 15.093L22.3397 14.1925ZM19.9915 13.6847C19.083 13.6847 18.2649 13.8738 17.5536 14.2698L18.0401 15.1435C18.5789 14.8435 19.2239 14.6847 19.9915 14.6847V13.6847ZM17.5553 14.2689C16.8548 14.6554 16.3074 15.2028 15.9209 15.9033L16.7965 16.3864C17.0918 15.8512 17.5031 15.4398 18.0384 15.1445L17.5553 14.2689ZM15.9188 15.9072C15.5389 16.6104 15.358 17.4194 15.358 18.3182H16.358C16.358 17.555 16.5109 16.9151 16.7986 16.3825L15.9188 15.9072ZM15.858 17.8182H13.3438V18.8182H15.858V17.8182ZM13.8438 18.3182C13.8438 17.1195 14.1192 16.0898 14.6548 15.2122L13.8012 14.6912C13.1578 15.7454 12.8438 16.9601 12.8438 18.3182H13.8438ZM14.6548 15.2122C15.1968 14.324 15.9324 13.6332 16.8703 13.1347L16.401 12.2517C15.3076 12.8328 14.4381 13.6475 13.8012 14.6912L14.6548 15.2122ZM16.869 13.1354C17.8129 12.6372 18.8785 12.3835 20.0767 12.3835V11.3835C18.7323 11.3835 17.5039 11.6696 16.4023 12.251L16.869 13.1354ZM20.0767 12.3835C21.2829 12.3835 22.3311 12.6375 23.2353 13.1319L23.715 12.2545C22.6447 11.6693 21.4274 11.3835 20.0767 11.3835V12.3835ZM23.2353 13.1319C24.1496 13.6318 24.8579 14.3001 25.3712 15.1383L26.224 14.616C25.6151 13.6218 24.7751 12.8341 23.715 12.2545L23.2353 13.1319ZM25.3712 15.1383C25.8819 15.9723 26.1392 16.9004 26.1392 17.9347H27.1392C27.1392 16.7246 26.8354 15.6144 26.224 14.616L25.3712 15.1383ZM26.1392 17.9347C26.1392 18.6752 26.0051 19.4 25.735 20.1116L26.6699 20.4665C26.9821 19.6441 27.1392 18.7992 27.1392 17.9347H26.1392ZM25.7341 20.114C25.4727 20.8131 25.0052 21.6187 24.3124 22.5333L25.1095 23.1372C25.8371 22.1767 26.3639 21.2849 26.6708 20.4641L25.7341 20.114ZM24.312 22.5338C23.6233 23.4451 22.6595 24.5676 21.4153 25.9036L22.1472 26.5851C23.403 25.2364 24.3923 24.0861 25.1098 23.1367L24.312 22.5338ZM21.416 25.9028L16.5155 31.1443L17.2459 31.8273L22.1465 26.5858L21.416 25.9028ZM16.3807 31.4858V31.6562H17.3807V31.4858H16.3807ZM16.8807 32.1562H27.0227V31.1562H16.8807V32.1562ZM26.5227 31.6562V34H27.5227V31.6562H26.5227ZM27.0227 33.5H13.2585V34.5H27.0227V33.5Z" fill="#275F4B"/>
<path d="M13.2585 34H12.7585V34.5H13.2585V34ZM13.2585 32.0824L12.8894 31.7452L12.7585 31.8884V32.0824H13.2585ZM20.4602 24.1989L20.0914 23.8613L20.0911 23.8616L20.4602 24.1989ZM22.5483 21.7912L22.9383 22.104L22.9399 22.1021L22.5483 21.7912ZM23.7628 19.8523L23.3054 19.6502L23.3043 19.6527L23.7628 19.8523ZM23.6136 15.9425L23.1936 16.2137L23.196 16.2174L23.6136 15.9425ZM22.1222 14.6428L22.3397 14.1925L22.1222 14.6428ZM17.7969 14.7067L18.0384 15.1445L18.0401 15.1435L17.7969 14.7067ZM16.3587 16.1449L15.9209 15.9033L15.9188 15.9072L16.3587 16.1449ZM15.858 18.3182V18.8182H16.358V18.3182H15.858ZM13.3438 18.3182H12.8438V18.8182H13.3438V18.3182ZM14.228 14.9517L14.6548 15.2122H14.6548L14.228 14.9517ZM16.6357 12.6932L16.4023 12.251L16.401 12.2517L16.6357 12.6932ZM23.4751 12.6932L23.715 12.2545L23.4751 12.6932ZM25.7976 14.8771L25.3712 15.1383L25.7976 14.8771ZM26.2024 20.2891L25.735 20.1116L25.7341 20.114L26.2024 20.2891ZM24.7109 22.8352L24.3124 22.5333L24.312 22.5338L24.7109 22.8352ZM21.7812 26.2443L22.1465 26.5858L22.1472 26.5851L21.7812 26.2443ZM16.8807 31.4858L16.5155 31.1443L16.3807 31.2885V31.4858H16.8807ZM16.8807 31.6562H16.3807V32.1562H16.8807V31.6562ZM27.0227 31.6562H27.5227V31.1562H27.0227V31.6562ZM27.0227 34V34.5H27.5227V34H27.0227ZM13.7585 34V32.0824H12.7585V34H13.7585ZM13.6277 32.4196L20.8294 24.5361L20.0911 23.8616L12.8894 31.7452L13.6277 32.4196ZM20.829 24.5365C21.6787 23.6083 22.3825 22.7971 22.9383 22.104L22.1583 21.4783C21.6204 22.1489 20.9321 22.9429 20.0914 23.8613L20.829 24.5365ZM22.9399 22.1021C23.5054 21.3897 23.9364 20.7061 24.2212 20.0518L23.3043 19.6527C23.0636 20.2058 22.685 20.8148 22.1567 21.4803L22.9399 22.1021ZM24.2201 20.0544C24.5181 19.3799 24.6676 18.6719 24.6676 17.9347H23.6676C23.6676 18.5327 23.5472 19.103 23.3054 19.6502L24.2201 20.0544ZM24.6676 17.9347C24.6676 17.0842 24.4617 16.3214 24.0313 15.6676L23.196 16.2174C23.5042 16.6857 23.6676 17.2511 23.6676 17.9347H24.6676ZM24.0337 15.6713C23.6191 15.029 23.05 14.5358 22.3397 14.1925L21.9046 15.093C22.4585 15.3606 22.8837 15.7337 23.1936 16.2137L24.0337 15.6713ZM22.3397 14.1925C21.6318 13.8505 20.8458 13.6847 19.9915 13.6847V14.6847C20.7138 14.6847 21.3483 14.8242 21.9046 15.093L22.3397 14.1925ZM19.9915 13.6847C19.083 13.6847 18.2649 13.8738 17.5536 14.2698L18.0401 15.1435C18.5789 14.8435 19.2239 14.6847 19.9915 14.6847V13.6847ZM17.5553 14.2689C16.8548 14.6554 16.3074 15.2028 15.9209 15.9033L16.7965 16.3864C17.0918 15.8512 17.5031 15.4398 18.0384 15.1445L17.5553 14.2689ZM15.9188 15.9072C15.5389 16.6104 15.358 17.4194 15.358 18.3182H16.358C16.358 17.555 16.5109 16.9151 16.7986 16.3825L15.9188 15.9072ZM15.858 17.8182H13.3438V18.8182H15.858V17.8182ZM13.8438 18.3182C13.8438 17.1195 14.1192 16.0898 14.6548 15.2122L13.8012 14.6912C13.1578 15.7454 12.8438 16.9601 12.8438 18.3182H13.8438ZM14.6548 15.2122C15.1968 14.324 15.9324 13.6332 16.8703 13.1347L16.401 12.2517C15.3076 12.8328 14.4381 13.6475 13.8012 14.6912L14.6548 15.2122ZM16.869 13.1354C17.8129 12.6372 18.8785 12.3835 20.0767 12.3835V11.3835C18.7323 11.3835 17.5039 11.6696 16.4023 12.251L16.869 13.1354ZM20.0767 12.3835C21.2829 12.3835 22.3311 12.6375 23.2353 13.1319L23.715 12.2545C22.6447 11.6693 21.4274 11.3835 20.0767 11.3835V12.3835ZM23.2353 13.1319C24.1496 13.6318 24.8579 14.3001 25.3712 15.1383L26.224 14.616C25.6151 13.6218 24.7751 12.8341 23.715 12.2545L23.2353 13.1319ZM25.3712 15.1383C25.8819 15.9723 26.1392 16.9004 26.1392 17.9347H27.1392C27.1392 16.7246 26.8354 15.6144 26.224 14.616L25.3712 15.1383ZM26.1392 17.9347C26.1392 18.6752 26.0051 19.4 25.735 20.1116L26.6699 20.4665C26.9821 19.6441 27.1392 18.7992 27.1392 17.9347H26.1392ZM25.7341 20.114C25.4727 20.8131 25.0052 21.6187 24.3124 22.5333L25.1095 23.1372C25.8371 22.1767 26.3639 21.2849 26.6708 20.4641L25.7341 20.114ZM24.312 22.5338C23.6233 23.4451 22.6595 24.5676 21.4153 25.9036L22.1472 26.5851C23.403 25.2364 24.3923 24.0861 25.1098 23.1367L24.312 22.5338ZM21.416 25.9028L16.5155 31.1443L17.2459 31.8273L22.1465 26.5858L21.416 25.9028ZM16.3807 31.4858V31.6562H17.3807V31.4858H16.3807ZM16.8807 32.1562H27.0227V31.1562H16.8807V32.1562ZM26.5227 31.6562V34H27.5227V31.6562H26.5227ZM27.0227 33.5H13.2585V34.5H27.0227V33.5Z" fill="black"/>
</svg>
