<svg width="42" height="42" viewBox="0 0 42 42" fill="none" xmlns="http://www.w3.org/2000/svg">
<g opacity="0.1">
<rect x="1" y="1" width="40" height="40" rx="10" fill="#00FFC2"/>
<rect x="1" y="1" width="40" height="40" rx="10" stroke="#275F4B" stroke-linecap="round"/>
<rect x="1" y="1" width="40" height="40" rx="10" stroke="black" stroke-linecap="round"/>
</g>
<path d="M20.6307 32.2983C19.2244 32.2983 17.9709 32.0568 16.87 31.5739C15.7763 31.0909 14.9063 30.4197 14.2599 29.5604C13.6207 28.6939 13.2727 27.6889 13.2159 26.5455H15.9006C15.9574 27.2486 16.1989 27.8558 16.625 28.3672C17.0511 28.8714 17.6087 29.2621 18.2976 29.5391C18.9865 29.8161 19.75 29.9545 20.5881 29.9545C21.5256 29.9545 22.3565 29.7912 23.081 29.4645C23.8054 29.1378 24.3736 28.6832 24.7855 28.1009C25.1974 27.5185 25.4034 26.8438 25.4034 26.0767C25.4034 25.2741 25.2045 24.5675 24.8068 23.9567C24.4091 23.3388 23.8267 22.8558 23.0597 22.5078C22.2926 22.1598 21.3551 21.9858 20.2472 21.9858H18.5V19.642H20.2472C21.1136 19.642 21.8736 19.4858 22.527 19.1733C23.1875 18.8608 23.7024 18.4205 24.0717 17.8523C24.4482 17.2841 24.6364 16.6165 24.6364 15.8494C24.6364 15.1108 24.473 14.468 24.1463 13.9212C23.8196 13.3743 23.358 12.9482 22.7614 12.6428C22.1719 12.3374 21.4759 12.1847 20.6733 12.1847C19.9205 12.1847 19.2102 12.3232 18.5426 12.6001C17.8821 12.87 17.3423 13.2642 16.9233 13.7827C16.5043 14.294 16.277 14.9119 16.2415 15.6364H13.6847C13.7273 14.4929 14.0717 13.4915 14.718 12.6321C15.3643 11.7656 16.2095 11.0909 17.2536 10.608C18.3047 10.125 19.4588 9.88352 20.7159 9.88352C22.0653 9.88352 23.223 10.157 24.1889 10.7038C25.1548 11.2436 25.897 11.9574 26.4155 12.8452C26.9339 13.733 27.1932 14.6918 27.1932 15.7216C27.1932 16.9503 26.87 17.9979 26.2237 18.8643C25.5845 19.7308 24.7145 20.331 23.6136 20.6648V20.8352C24.9915 21.0625 26.0675 21.6484 26.8416 22.593C27.6158 23.5305 28.0028 24.6918 28.0028 26.0767C28.0028 27.2628 27.6797 28.3281 27.0334 29.2727C26.3942 30.2102 25.5206 30.9489 24.4126 31.4886C23.3047 32.0284 22.044 32.2983 20.6307 32.2983Z" fill="black"/>
<path d="M16.87 31.5739L16.6681 32.0313L16.6692 32.0317L16.87 31.5739ZM14.2599 29.5604L13.8576 29.8572L13.8603 29.8609L14.2599 29.5604ZM13.2159 26.5455V26.0455H12.6904L12.7165 26.5703L13.2159 26.5455ZM15.9006 26.5455L16.3989 26.5052L16.3618 26.0455H15.9006V26.5455ZM16.625 28.3672L16.2409 28.6873L16.2431 28.6899L16.625 28.3672ZM18.2976 29.5391L18.1111 30.003H18.1111L18.2976 29.5391ZM24.7855 28.1009L24.3773 27.8121L24.7855 28.1009ZM24.8068 23.9567L24.3864 24.2273L24.3878 24.2295L24.8068 23.9567ZM23.0597 22.5078L22.8531 22.9631L23.0597 22.5078ZM18.5 21.9858H18V22.4858H18.5V21.9858ZM18.5 19.642V19.142H18V19.642H18.5ZM22.527 19.1733L22.3132 18.7213L22.3113 18.7222L22.527 19.1733ZM24.0717 17.8523L23.6549 17.5761L23.6525 17.5798L24.0717 17.8523ZM24.1463 13.9212L24.5755 13.6647L24.1463 13.9212ZM22.7614 12.6428L22.5314 13.0867L22.5335 13.0878L22.7614 12.6428ZM18.5426 12.6001L18.7317 13.063L18.7342 13.062L18.5426 12.6001ZM16.9233 13.7827L17.31 14.0996L17.3122 14.097L16.9233 13.7827ZM16.2415 15.6364V16.1364H16.7176L16.7409 15.6608L16.2415 15.6364ZM13.6847 15.6364L13.185 15.6177L13.1657 16.1364H13.6847V15.6364ZM14.718 12.6321L15.1176 12.9326L15.1188 12.931L14.718 12.6321ZM17.2536 10.608L17.0448 10.1536L17.0436 10.1542L17.2536 10.608ZM24.1889 10.7038L23.9426 11.1389L23.945 11.1403L24.1889 10.7038ZM26.4155 12.8452L25.9837 13.0973V13.0973L26.4155 12.8452ZM26.2237 18.8643L25.8229 18.5654L25.8214 18.5675L26.2237 18.8643ZM23.6136 20.6648L23.4685 20.1863L23.1136 20.2939V20.6648H23.6136ZM23.6136 20.8352H23.1136V21.2595L23.5323 21.3286L23.6136 20.8352ZM26.8416 22.593L26.4549 22.91L26.4561 22.9114L26.8416 22.593ZM27.0334 29.2727L26.6207 28.9904L26.6203 28.9911L27.0334 29.2727ZM24.4126 31.4886L24.6316 31.9381L24.4126 31.4886ZM20.6307 31.7983C19.282 31.7983 18.0986 31.5668 17.0709 31.116L16.6692 32.0317C17.8432 32.5468 19.1669 32.7983 20.6307 32.7983V31.7983ZM17.072 31.1165C16.0475 30.6641 15.2489 30.0435 14.6595 29.2598L13.8603 29.8609C14.5636 30.796 15.505 31.5177 16.6681 32.0313L17.072 31.1165ZM14.6623 29.2635C14.0853 28.4813 13.7676 27.5724 13.7153 26.5206L12.7165 26.5703C12.7779 27.8054 13.1562 28.9065 13.8576 29.8572L14.6623 29.2635ZM13.2159 27.0455H15.9006V26.0455H13.2159V27.0455ZM15.4022 26.5857C15.4668 27.3852 15.7447 28.0918 16.2409 28.6873L17.0091 28.0471C16.6531 27.6199 16.448 27.112 16.3989 26.5052L15.4022 26.5857ZM16.2431 28.6899C16.7281 29.2639 17.356 29.6994 18.1111 30.003L18.4841 29.0752C17.8613 28.8247 17.3741 28.479 17.0069 28.0445L16.2431 28.6899ZM18.1111 30.003C18.8664 30.3067 19.6943 30.4545 20.5881 30.4545V29.4545C19.8057 29.4545 19.1066 29.3254 18.4841 29.0752L18.1111 30.003ZM20.5881 30.4545C21.5839 30.4545 22.4869 30.2809 23.2865 29.9203L22.8754 29.0087C22.2262 29.3015 21.4673 29.4545 20.5881 29.4545V30.4545ZM23.2865 29.9203C24.0827 29.5612 24.7246 29.0528 25.1937 28.3896L24.3773 27.8121C24.0225 28.3137 23.5281 28.7143 22.8754 29.0087L23.2865 29.9203ZM25.1937 28.3896C25.6699 27.7163 25.9034 26.939 25.9034 26.0767H24.9034C24.9034 26.7485 24.7249 27.3206 24.3773 27.8121L25.1937 28.3896ZM25.9034 26.0767C25.9034 25.1874 25.6817 24.3839 25.2258 23.6838L24.3878 24.2295C24.7274 24.751 24.9034 25.3608 24.9034 26.0767H25.9034ZM25.2273 23.6861C24.7702 22.976 24.1077 22.4343 23.2662 22.0525L22.8531 22.9631C23.5457 23.2774 24.048 23.7016 24.3864 24.2273L25.2273 23.6861ZM23.2662 22.0525C22.4173 21.6673 21.4049 21.4858 20.2472 21.4858V22.4858C21.3053 22.4858 22.168 22.6523 22.8531 22.9631L23.2662 22.0525ZM20.2472 21.4858H18.5V22.4858H20.2472V21.4858ZM19 21.9858V19.642H18V21.9858H19ZM18.5 20.142H20.2472V19.142H18.5V20.142ZM20.2472 20.142C21.1738 20.142 22.01 19.9748 22.7427 19.6244L22.3113 18.7222C21.7371 18.9968 21.0535 19.142 20.2472 19.142V20.142ZM22.7408 19.6253C23.4783 19.2764 24.0672 18.7767 24.491 18.1248L23.6525 17.5798C23.3377 18.0642 22.8967 18.4452 22.3132 18.7213L22.7408 19.6253ZM24.4886 18.1284C24.9259 17.4683 25.1364 16.702 25.1364 15.8494H24.1364C24.1364 16.531 23.9705 17.0998 23.6549 17.5761L24.4886 18.1284ZM25.1364 15.8494C25.1364 15.0351 24.9555 14.3008 24.5755 13.6647L23.7171 14.1776C23.9905 14.6353 24.1364 15.1865 24.1364 15.8494H25.1364ZM24.5755 13.6647C24.1982 13.033 23.6647 12.5435 22.9892 12.1977L22.5335 13.0878C23.0512 13.3528 23.441 13.7155 23.7171 14.1776L24.5755 13.6647ZM22.9914 12.1988C22.3174 11.8497 21.5393 11.6847 20.6733 11.6847V12.6847C21.4124 12.6847 22.0263 12.8251 22.5314 13.0867L22.9914 12.1988ZM20.6733 11.6847C19.8575 11.6847 19.0819 11.8351 18.351 12.1383L18.7342 13.062C19.3386 12.8112 19.9834 12.6847 20.6733 12.6847V11.6847ZM18.3535 12.1373C17.6206 12.4368 17.0102 12.8797 16.5344 13.4684L17.3122 14.097C17.6745 13.6487 18.1436 13.3033 18.7317 13.063L18.3535 12.1373ZM16.5366 13.4658C16.043 14.0681 15.7823 14.7914 15.7421 15.6119L16.7409 15.6608C16.7717 15.0325 16.9656 14.52 17.31 14.0996L16.5366 13.4658ZM16.2415 15.1364H13.6847V16.1364H16.2415V15.1364ZM14.1843 15.655C14.2234 14.6066 14.5367 13.7051 15.1176 12.9326L14.3184 12.3316C13.6068 13.2779 13.2312 14.3792 13.185 15.6177L14.1843 15.655ZM15.1188 12.931C15.7122 12.1355 16.49 11.5121 17.4635 11.0618L17.0436 10.1542C15.9291 10.6697 15.0165 11.3957 14.3173 12.3332L15.1188 12.931ZM17.4623 11.0623C18.4424 10.612 19.5245 10.3835 20.7159 10.3835V9.38352C19.3931 9.38352 18.1669 9.63804 17.0448 10.1536L17.4623 11.0623ZM20.7159 10.3835C21.9975 10.3835 23.0664 10.6429 23.9426 11.1389L24.4353 10.2687C23.3796 9.67103 22.1331 9.38352 20.7159 9.38352V10.3835ZM23.945 11.1403C24.8391 11.64 25.5137 12.2925 25.9837 13.0973L26.8472 12.593C26.2803 11.6223 25.4705 10.8473 24.4328 10.2674L23.945 11.1403ZM25.9837 13.0973C26.4574 13.9084 26.6932 14.7802 26.6932 15.7216H27.6932C27.6932 14.6033 27.4105 13.5575 26.8472 12.593L25.9837 13.0973ZM26.6932 15.7216C26.6932 16.8579 26.3962 17.7968 25.8229 18.5654L26.6245 19.1633C27.3439 18.1989 27.6932 17.0426 27.6932 15.7216H26.6932ZM25.8214 18.5675C25.2506 19.3412 24.4738 19.8815 23.4685 20.1863L23.7587 21.1433C24.9552 20.7805 25.9184 20.1204 26.6261 19.1612L25.8214 18.5675ZM23.1136 20.6648V20.8352H24.1136V20.6648H23.1136ZM23.5323 21.3286C24.8086 21.5391 25.7687 22.0727 26.4549 22.91L27.2283 22.2761C26.3662 21.2241 25.1744 20.5859 23.695 20.3419L23.5323 21.3286ZM26.4561 22.9114C27.146 23.747 27.5028 24.7909 27.5028 26.0767H28.5028C28.5028 24.5927 28.0855 23.3141 27.2272 22.2747L26.4561 22.9114ZM27.5028 26.0767C27.5028 27.1659 27.208 28.1321 26.6207 28.9904L27.446 29.5551C28.1514 28.5242 28.5028 27.3597 28.5028 26.0767H27.5028ZM26.6203 28.9911C26.0342 29.8506 25.2303 30.5341 24.1937 31.0391L24.6316 31.9381C25.8109 31.3636 26.7541 30.5699 27.4465 29.5544L26.6203 28.9911ZM24.1937 31.0391C23.1633 31.5411 21.9793 31.7983 20.6307 31.7983V32.7983C22.1088 32.7983 23.4461 32.5157 24.6316 31.9381L24.1937 31.0391Z" fill="#275F4B"/>
<path d="M16.87 31.5739L16.6681 32.0313L16.6692 32.0317L16.87 31.5739ZM14.2599 29.5604L13.8576 29.8572L13.8603 29.8609L14.2599 29.5604ZM13.2159 26.5455V26.0455H12.6904L12.7165 26.5703L13.2159 26.5455ZM15.9006 26.5455L16.3989 26.5052L16.3618 26.0455H15.9006V26.5455ZM16.625 28.3672L16.2409 28.6873L16.2431 28.6899L16.625 28.3672ZM18.2976 29.5391L18.1111 30.003H18.1111L18.2976 29.5391ZM24.7855 28.1009L24.3773 27.8121L24.7855 28.1009ZM24.8068 23.9567L24.3864 24.2273L24.3878 24.2295L24.8068 23.9567ZM23.0597 22.5078L22.8531 22.9631L23.0597 22.5078ZM18.5 21.9858H18V22.4858H18.5V21.9858ZM18.5 19.642V19.142H18V19.642H18.5ZM22.527 19.1733L22.3132 18.7213L22.3113 18.7222L22.527 19.1733ZM24.0717 17.8523L23.6549 17.5761L23.6525 17.5798L24.0717 17.8523ZM24.1463 13.9212L24.5755 13.6647L24.1463 13.9212ZM22.7614 12.6428L22.5314 13.0867L22.5335 13.0878L22.7614 12.6428ZM18.5426 12.6001L18.7317 13.063L18.7342 13.062L18.5426 12.6001ZM16.9233 13.7827L17.31 14.0996L17.3122 14.097L16.9233 13.7827ZM16.2415 15.6364V16.1364H16.7176L16.7409 15.6608L16.2415 15.6364ZM13.6847 15.6364L13.185 15.6177L13.1657 16.1364H13.6847V15.6364ZM14.718 12.6321L15.1176 12.9326L15.1188 12.931L14.718 12.6321ZM17.2536 10.608L17.0448 10.1536L17.0436 10.1542L17.2536 10.608ZM24.1889 10.7038L23.9426 11.1389L23.945 11.1403L24.1889 10.7038ZM26.4155 12.8452L25.9837 13.0973V13.0973L26.4155 12.8452ZM26.2237 18.8643L25.8229 18.5654L25.8214 18.5675L26.2237 18.8643ZM23.6136 20.6648L23.4685 20.1863L23.1136 20.2939V20.6648H23.6136ZM23.6136 20.8352H23.1136V21.2595L23.5323 21.3286L23.6136 20.8352ZM26.8416 22.593L26.4549 22.91L26.4561 22.9114L26.8416 22.593ZM27.0334 29.2727L26.6207 28.9904L26.6203 28.9911L27.0334 29.2727ZM24.4126 31.4886L24.6316 31.9381L24.4126 31.4886ZM20.6307 31.7983C19.282 31.7983 18.0986 31.5668 17.0709 31.116L16.6692 32.0317C17.8432 32.5468 19.1669 32.7983 20.6307 32.7983V31.7983ZM17.072 31.1165C16.0475 30.6641 15.2489 30.0435 14.6595 29.2598L13.8603 29.8609C14.5636 30.796 15.505 31.5177 16.6681 32.0313L17.072 31.1165ZM14.6623 29.2635C14.0853 28.4813 13.7676 27.5724 13.7153 26.5206L12.7165 26.5703C12.7779 27.8054 13.1562 28.9065 13.8576 29.8572L14.6623 29.2635ZM13.2159 27.0455H15.9006V26.0455H13.2159V27.0455ZM15.4022 26.5857C15.4668 27.3852 15.7447 28.0918 16.2409 28.6873L17.0091 28.0471C16.6531 27.6199 16.448 27.112 16.3989 26.5052L15.4022 26.5857ZM16.2431 28.6899C16.7281 29.2639 17.356 29.6994 18.1111 30.003L18.4841 29.0752C17.8613 28.8247 17.3741 28.479 17.0069 28.0445L16.2431 28.6899ZM18.1111 30.003C18.8664 30.3067 19.6943 30.4545 20.5881 30.4545V29.4545C19.8057 29.4545 19.1066 29.3254 18.4841 29.0752L18.1111 30.003ZM20.5881 30.4545C21.5839 30.4545 22.4869 30.2809 23.2865 29.9203L22.8754 29.0087C22.2262 29.3015 21.4673 29.4545 20.5881 29.4545V30.4545ZM23.2865 29.9203C24.0827 29.5612 24.7246 29.0528 25.1937 28.3896L24.3773 27.8121C24.0225 28.3137 23.5281 28.7143 22.8754 29.0087L23.2865 29.9203ZM25.1937 28.3896C25.6699 27.7163 25.9034 26.939 25.9034 26.0767H24.9034C24.9034 26.7485 24.7249 27.3206 24.3773 27.8121L25.1937 28.3896ZM25.9034 26.0767C25.9034 25.1874 25.6817 24.3839 25.2258 23.6838L24.3878 24.2295C24.7274 24.751 24.9034 25.3608 24.9034 26.0767H25.9034ZM25.2273 23.6861C24.7702 22.976 24.1077 22.4343 23.2662 22.0525L22.8531 22.9631C23.5457 23.2774 24.048 23.7016 24.3864 24.2273L25.2273 23.6861ZM23.2662 22.0525C22.4173 21.6673 21.4049 21.4858 20.2472 21.4858V22.4858C21.3053 22.4858 22.168 22.6523 22.8531 22.9631L23.2662 22.0525ZM20.2472 21.4858H18.5V22.4858H20.2472V21.4858ZM19 21.9858V19.642H18V21.9858H19ZM18.5 20.142H20.2472V19.142H18.5V20.142ZM20.2472 20.142C21.1738 20.142 22.01 19.9748 22.7427 19.6244L22.3113 18.7222C21.7371 18.9968 21.0535 19.142 20.2472 19.142V20.142ZM22.7408 19.6253C23.4783 19.2764 24.0672 18.7767 24.491 18.1248L23.6525 17.5798C23.3377 18.0642 22.8967 18.4452 22.3132 18.7213L22.7408 19.6253ZM24.4886 18.1284C24.9259 17.4683 25.1364 16.702 25.1364 15.8494H24.1364C24.1364 16.531 23.9705 17.0998 23.6549 17.5761L24.4886 18.1284ZM25.1364 15.8494C25.1364 15.0351 24.9555 14.3008 24.5755 13.6647L23.7171 14.1776C23.9905 14.6353 24.1364 15.1865 24.1364 15.8494H25.1364ZM24.5755 13.6647C24.1982 13.033 23.6647 12.5435 22.9892 12.1977L22.5335 13.0878C23.0512 13.3528 23.441 13.7155 23.7171 14.1776L24.5755 13.6647ZM22.9914 12.1988C22.3174 11.8497 21.5393 11.6847 20.6733 11.6847V12.6847C21.4124 12.6847 22.0263 12.8251 22.5314 13.0867L22.9914 12.1988ZM20.6733 11.6847C19.8575 11.6847 19.0819 11.8351 18.351 12.1383L18.7342 13.062C19.3386 12.8112 19.9834 12.6847 20.6733 12.6847V11.6847ZM18.3535 12.1373C17.6206 12.4368 17.0102 12.8797 16.5344 13.4684L17.3122 14.097C17.6745 13.6487 18.1436 13.3033 18.7317 13.063L18.3535 12.1373ZM16.5366 13.4658C16.043 14.0681 15.7823 14.7914 15.7421 15.6119L16.7409 15.6608C16.7717 15.0325 16.9656 14.52 17.31 14.0996L16.5366 13.4658ZM16.2415 15.1364H13.6847V16.1364H16.2415V15.1364ZM14.1843 15.655C14.2234 14.6066 14.5367 13.7051 15.1176 12.9326L14.3184 12.3316C13.6068 13.2779 13.2312 14.3792 13.185 15.6177L14.1843 15.655ZM15.1188 12.931C15.7122 12.1355 16.49 11.5121 17.4635 11.0618L17.0436 10.1542C15.9291 10.6697 15.0165 11.3957 14.3173 12.3332L15.1188 12.931ZM17.4623 11.0623C18.4424 10.612 19.5245 10.3835 20.7159 10.3835V9.38352C19.3931 9.38352 18.1669 9.63804 17.0448 10.1536L17.4623 11.0623ZM20.7159 10.3835C21.9975 10.3835 23.0664 10.6429 23.9426 11.1389L24.4353 10.2687C23.3796 9.67103 22.1331 9.38352 20.7159 9.38352V10.3835ZM23.945 11.1403C24.8391 11.64 25.5137 12.2925 25.9837 13.0973L26.8472 12.593C26.2803 11.6223 25.4705 10.8473 24.4328 10.2674L23.945 11.1403ZM25.9837 13.0973C26.4574 13.9084 26.6932 14.7802 26.6932 15.7216H27.6932C27.6932 14.6033 27.4105 13.5575 26.8472 12.593L25.9837 13.0973ZM26.6932 15.7216C26.6932 16.8579 26.3962 17.7968 25.8229 18.5654L26.6245 19.1633C27.3439 18.1989 27.6932 17.0426 27.6932 15.7216H26.6932ZM25.8214 18.5675C25.2506 19.3412 24.4738 19.8815 23.4685 20.1863L23.7587 21.1433C24.9552 20.7805 25.9184 20.1204 26.6261 19.1612L25.8214 18.5675ZM23.1136 20.6648V20.8352H24.1136V20.6648H23.1136ZM23.5323 21.3286C24.8086 21.5391 25.7687 22.0727 26.4549 22.91L27.2283 22.2761C26.3662 21.2241 25.1744 20.5859 23.695 20.3419L23.5323 21.3286ZM26.4561 22.9114C27.146 23.747 27.5028 24.7909 27.5028 26.0767H28.5028C28.5028 24.5927 28.0855 23.3141 27.2272 22.2747L26.4561 22.9114ZM27.5028 26.0767C27.5028 27.1659 27.208 28.1321 26.6207 28.9904L27.446 29.5551C28.1514 28.5242 28.5028 27.3597 28.5028 26.0767H27.5028ZM26.6203 28.9911C26.0342 29.8506 25.2303 30.5341 24.1937 31.0391L24.6316 31.9381C25.8109 31.3636 26.7541 30.5699 27.4465 29.5544L26.6203 28.9911ZM24.1937 31.0391C23.1633 31.5411 21.9793 31.7983 20.6307 31.7983V32.7983C22.1088 32.7983 23.4461 32.5157 24.6316 31.9381L24.1937 31.0391Z" fill="black"/>
</svg>
