<svg width="42" height="42" viewBox="0 0 42 42" fill="none" xmlns="http://www.w3.org/2000/svg">
<g opacity="0.1">
<rect x="1" y="1" width="40" height="40" rx="10" fill="#00FFC2"/>
<rect x="1" y="1" width="40" height="40" rx="10" stroke="#275F4B" stroke-linecap="round"/>
<rect x="1" y="1" width="40" height="40" rx="10" stroke="black" stroke-linecap="round"/>
</g>
<path d="M12.7472 28.5256V26.3523L22.3352 11.1818H23.9119V14.5483H22.8466L15.6023 26.0114V26.1818H28.5142V28.5256H12.7472ZM23.017 33V27.8651V26.853V11.1818H25.5312V33H23.017Z" fill="black"/>
<path d="M12.7472 28.5256H12.2472V29.0256H12.7472V28.5256ZM12.7472 26.3523L12.3245 26.0851L12.2472 26.2075V26.3523H12.7472ZM22.3352 11.1818V10.6818H22.0597L21.9126 10.9147L22.3352 11.1818ZM23.9119 11.1818H24.4119V10.6818H23.9119V11.1818ZM23.9119 14.5483V15.0483H24.4119V14.5483H23.9119ZM22.8466 14.5483V14.0483H22.5711L22.4239 14.2812L22.8466 14.5483ZM15.6023 26.0114L15.1796 25.7442L15.1023 25.8666V26.0114H15.6023ZM15.6023 26.1818H15.1023V26.6818H15.6023V26.1818ZM28.5142 26.1818H29.0142V25.6818H28.5142V26.1818ZM28.5142 28.5256V29.0256H29.0142V28.5256H28.5142ZM23.017 33H22.517V33.5H23.017V33ZM23.017 11.1818V10.6818H22.517V11.1818H23.017ZM25.5312 11.1818H26.0312V10.6818H25.5312V11.1818ZM25.5312 33V33.5H26.0312V33H25.5312ZM13.2472 28.5256V26.3523H12.2472V28.5256H13.2472ZM13.1698 26.6194L22.7579 11.4489L21.9126 10.9147L12.3245 26.0851L13.1698 26.6194ZM22.3352 11.6818H23.9119V10.6818H22.3352V11.6818ZM23.4119 11.1818V14.5483H24.4119V11.1818H23.4119ZM23.9119 14.0483H22.8466V15.0483H23.9119V14.0483ZM22.4239 14.2812L15.1796 25.7442L16.0249 26.2785L23.2693 14.8154L22.4239 14.2812ZM15.1023 26.0114V26.1818H16.1023V26.0114H15.1023ZM15.6023 26.6818H28.5142V25.6818H15.6023V26.6818ZM28.0142 26.1818V28.5256H29.0142V26.1818H28.0142ZM28.5142 28.0256H12.7472V29.0256H28.5142V28.0256ZM23.517 33V27.8651H22.517V33H23.517ZM23.517 27.8651V26.853H22.517V27.8651H23.517ZM23.517 26.853V11.1818H22.517V26.853H23.517ZM23.017 11.6818H25.5312V10.6818H23.017V11.6818ZM25.0312 11.1818V33H26.0312V11.1818H25.0312ZM25.5312 32.5H23.017V33.5H25.5312V32.5Z" fill="#275F4B"/>
<path d="M12.7472 28.5256H12.2472V29.0256H12.7472V28.5256ZM12.7472 26.3523L12.3245 26.0851L12.2472 26.2075V26.3523H12.7472ZM22.3352 11.1818V10.6818H22.0597L21.9126 10.9147L22.3352 11.1818ZM23.9119 11.1818H24.4119V10.6818H23.9119V11.1818ZM23.9119 14.5483V15.0483H24.4119V14.5483H23.9119ZM22.8466 14.5483V14.0483H22.5711L22.4239 14.2812L22.8466 14.5483ZM15.6023 26.0114L15.1796 25.7442L15.1023 25.8666V26.0114H15.6023ZM15.6023 26.1818H15.1023V26.6818H15.6023V26.1818ZM28.5142 26.1818H29.0142V25.6818H28.5142V26.1818ZM28.5142 28.5256V29.0256H29.0142V28.5256H28.5142ZM23.017 33H22.517V33.5H23.017V33ZM23.017 11.1818V10.6818H22.517V11.1818H23.017ZM25.5312 11.1818H26.0312V10.6818H25.5312V11.1818ZM25.5312 33V33.5H26.0312V33H25.5312ZM13.2472 28.5256V26.3523H12.2472V28.5256H13.2472ZM13.1698 26.6194L22.7579 11.4489L21.9126 10.9147L12.3245 26.0851L13.1698 26.6194ZM22.3352 11.6818H23.9119V10.6818H22.3352V11.6818ZM23.4119 11.1818V14.5483H24.4119V11.1818H23.4119ZM23.9119 14.0483H22.8466V15.0483H23.9119V14.0483ZM22.4239 14.2812L15.1796 25.7442L16.0249 26.2785L23.2693 14.8154L22.4239 14.2812ZM15.1023 26.0114V26.1818H16.1023V26.0114H15.1023ZM15.6023 26.6818H28.5142V25.6818H15.6023V26.6818ZM28.0142 26.1818V28.5256H29.0142V26.1818H28.0142ZM28.5142 28.0256H12.7472V29.0256H28.5142V28.0256ZM23.517 33V27.8651H22.517V33H23.517ZM23.517 27.8651V26.853H22.517V27.8651H23.517ZM23.517 26.853V11.1818H22.517V26.853H23.517ZM23.017 11.6818H25.5312V10.6818H23.017V11.6818ZM25.0312 11.1818V33H26.0312V11.1818H25.0312ZM25.5312 32.5H23.017V33.5H25.5312V32.5Z" fill="black"/>
</svg>
