<svg width="42" height="42" viewBox="0 0 42 42" fill="none" xmlns="http://www.w3.org/2000/svg">
<g opacity="0.1">
<rect x="1" y="1" width="40" height="40" rx="10" fill="#00FFC2"/>
<rect x="1" y="1" width="40" height="40" rx="10" stroke="#275F4B" stroke-linecap="round"/>
<rect x="1" y="1" width="40" height="40" rx="10" stroke="black" stroke-linecap="round"/>
</g>
<path d="M20.0767 32.2983C18.8267 32.2983 17.701 32.0497 16.6996 31.5526C15.6982 31.0554 14.8956 30.3736 14.2919 29.5071C13.6882 28.6406 13.358 27.6534 13.3011 26.5455H15.858C15.9574 27.5327 16.4048 28.3494 17.2003 28.9957C18.0028 29.6349 18.9616 29.9545 20.0767 29.9545C20.9716 29.9545 21.767 29.745 22.4631 29.326C23.1662 28.907 23.7166 28.3317 24.1143 27.6001C24.5192 26.8615 24.7216 26.027 24.7216 25.0966C24.7216 24.1449 24.5121 23.2962 24.093 22.5504C23.6811 21.7976 23.1129 21.2045 22.3885 20.7713C21.6641 20.3381 20.8366 20.1179 19.9062 20.1108C19.2386 20.1037 18.5533 20.2067 17.8501 20.4197C17.147 20.6257 16.5682 20.892 16.1136 21.2188L13.642 20.9205L14.9631 10.1818H26.2983V12.5256H17.179L16.4119 18.9602H16.5398C16.9872 18.6051 17.5483 18.3104 18.223 18.076C18.8977 17.8416 19.6009 17.7244 20.3324 17.7244C21.6676 17.7244 22.8572 18.044 23.9013 18.6832C24.9524 19.3153 25.7763 20.1818 26.3729 21.2827C26.9766 22.3835 27.2784 23.6406 27.2784 25.054C27.2784 26.446 26.9659 27.6889 26.3409 28.7827C25.723 29.8693 24.8707 30.7287 23.7841 31.3608C22.6974 31.9858 21.4616 32.2983 20.0767 32.2983Z" fill="black"/>
<path d="M16.6996 31.5526L16.4772 32.0004L16.6996 31.5526ZM14.2919 29.5071L14.7022 29.2213L14.2919 29.5071ZM13.3011 26.5455V26.0455H12.7748L12.8018 26.5711L13.3011 26.5455ZM15.858 26.5455L16.3554 26.4953L16.3101 26.0455H15.858V26.5455ZM17.2003 28.9957L16.885 29.3838L16.8888 29.3868L17.2003 28.9957ZM22.4631 29.326L22.2071 28.8965L22.2052 28.8976L22.4631 29.326ZM24.1143 27.6001L23.6759 27.3598L23.6751 27.3613L24.1143 27.6001ZM24.093 22.5504L23.6544 22.7904L23.6571 22.7954L24.093 22.5504ZM19.9062 20.1108L19.9009 20.6108L19.9024 20.6108L19.9062 20.1108ZM17.8501 20.4197L17.9907 20.8996L17.9951 20.8983L17.8501 20.4197ZM16.1136 21.2188L16.0537 21.7151L16.2472 21.7385L16.4055 21.6248L16.1136 21.2188ZM13.642 20.9205L13.1458 20.8594L13.0846 21.3568L13.5821 21.4169L13.642 20.9205ZM14.9631 10.1818V9.68182H14.5208L14.4668 10.1208L14.9631 10.1818ZM26.2983 10.1818H26.7983V9.68182H26.2983V10.1818ZM26.2983 12.5256V13.0256H26.7983V12.5256H26.2983ZM17.179 12.5256V12.0256H16.735L16.6825 12.4664L17.179 12.5256ZM16.4119 18.9602L15.9154 18.901L15.8488 19.4602H16.4119V18.9602ZM16.5398 18.9602V19.4602H16.7141L16.8506 19.3519L16.5398 18.9602ZM23.9013 18.6832L23.6402 19.1097L23.6436 19.1117L23.9013 18.6832ZM26.3729 21.2827L25.9333 21.5209L25.9345 21.5231L26.3729 21.2827ZM26.3409 28.7827L25.9068 28.5346L25.9063 28.5355L26.3409 28.7827ZM23.7841 31.3608L24.0334 31.7942L24.0355 31.793L23.7841 31.3608ZM20.0767 31.7983C18.8946 31.7983 17.8464 31.5637 16.9219 31.1047L16.4772 32.0004C17.5555 32.5357 18.7588 32.7983 20.0767 32.7983V31.7983ZM16.9219 31.1047C15.9912 30.6426 15.255 30.0147 14.7022 29.2213L13.8817 29.7929C14.5362 30.7324 15.4051 31.4682 16.4772 32.0004L16.9219 31.1047ZM14.7022 29.2213C14.1547 28.4355 13.8528 27.5394 13.8005 26.5198L12.8018 26.5711C12.8631 27.7674 13.2218 28.8458 13.8817 29.7929L14.7022 29.2213ZM13.3011 27.0455H15.858V26.0455H13.3011V27.0455ZM15.3605 26.5956C15.4737 27.72 15.9901 28.6567 16.885 29.3838L17.5156 28.6077C16.8196 28.0422 16.4411 27.3454 16.3554 26.4953L15.3605 26.5956ZM16.8888 29.3868C17.7877 30.1028 18.859 30.4545 20.0767 30.4545V29.4545C19.0643 29.4545 18.218 29.1671 17.5118 28.6046L16.8888 29.3868ZM20.0767 30.4545C21.053 30.4545 21.9393 30.2249 22.721 29.7544L22.2052 28.8976C21.5948 29.2651 20.8902 29.4545 20.0767 29.4545V30.4545ZM22.719 29.7555C23.5007 29.2897 24.1138 28.6479 24.5536 27.839L23.6751 27.3613C23.3194 28.0154 22.8317 28.5242 22.2071 28.8965L22.719 29.7555ZM24.5528 27.8405C25.0021 27.0207 25.2216 26.102 25.2216 25.0966H24.2216C24.2216 25.952 24.0362 26.7023 23.6759 27.3598L24.5528 27.8405ZM25.2216 25.0966C25.2216 24.069 24.9946 23.1342 24.5289 22.3055L23.6571 22.7954C24.0296 23.4582 24.2216 24.2208 24.2216 25.0966H25.2216ZM24.5317 22.3104C24.0777 21.4808 23.4473 20.8219 22.6451 20.3422L22.1319 21.2004C22.7785 21.5872 23.2845 22.1143 23.6544 22.7904L24.5317 22.3104ZM22.6451 20.3422C21.8366 19.8586 20.9202 19.6185 19.9101 19.6108L19.9024 20.6108C20.7531 20.6173 21.4915 20.8175 22.1319 21.2004L22.6451 20.3422ZM19.9116 19.6108C19.1882 19.6031 18.4521 19.7149 17.7051 19.9412L17.9951 20.8983C18.6544 20.6985 19.2891 20.6043 19.9009 20.6108L19.9116 19.6108ZM17.7096 19.9399C16.968 20.1571 16.334 20.4446 15.8218 20.8127L16.4055 21.6248C16.8024 21.3394 17.326 21.0943 17.9907 20.8996L17.7096 19.9399ZM16.1735 20.7224L13.702 20.4241L13.5821 21.4169L16.0537 21.7151L16.1735 20.7224ZM14.1383 20.9815L15.4593 10.2429L14.4668 10.1208L13.1458 20.8594L14.1383 20.9815ZM14.9631 10.6818H26.2983V9.68182H14.9631V10.6818ZM25.7983 10.1818V12.5256H26.7983V10.1818H25.7983ZM26.2983 12.0256H17.179V13.0256H26.2983V12.0256ZM16.6825 12.4664L15.9154 18.901L16.9084 19.0194L17.6755 12.5848L16.6825 12.4664ZM16.4119 19.4602H16.5398V18.4602H16.4119V19.4602ZM16.8506 19.3519C17.2446 19.0392 17.7527 18.7687 18.3871 18.5483L18.0589 17.6037C17.3439 17.8521 16.7299 18.171 16.2289 18.5686L16.8506 19.3519ZM18.3871 18.5483C19.0078 18.3327 19.6553 18.2244 20.3324 18.2244V17.2244C19.5464 17.2244 18.7877 17.3505 18.0589 17.6037L18.3871 18.5483ZM20.3324 18.2244C21.5841 18.2244 22.6818 18.5229 23.6402 19.1097L24.1624 18.2568C23.0327 17.5652 21.7511 17.2244 20.3324 17.2244V18.2244ZM23.6436 19.1117C24.6165 19.6968 25.3783 20.4969 25.9333 21.5209L26.8125 21.0444C26.1742 19.8668 25.2883 18.9339 24.159 18.2547L23.6436 19.1117ZM25.9345 21.5231C26.4929 22.5414 26.7784 23.7139 26.7784 25.054H27.7784C27.7784 23.5673 27.4602 22.2257 26.8113 21.0423L25.9345 21.5231ZM26.7784 25.054C26.7784 26.3684 26.4842 27.5241 25.9068 28.5346L26.775 29.0307C27.4476 27.8537 27.7784 26.5237 27.7784 25.054H26.7784ZM25.9063 28.5355C25.3323 29.5449 24.5434 30.3406 23.5327 30.9286L24.0355 31.793C25.198 31.1167 26.1137 30.1937 26.7756 29.0298L25.9063 28.5355ZM23.5348 30.9274C22.5318 31.5043 21.3836 31.7983 20.0767 31.7983V32.7983C21.5397 32.7983 22.8631 32.4673 24.0334 31.7942L23.5348 30.9274Z" fill="#275F4B"/>
<path d="M16.6996 31.5526L16.4772 32.0004L16.6996 31.5526ZM14.2919 29.5071L14.7022 29.2213L14.2919 29.5071ZM13.3011 26.5455V26.0455H12.7748L12.8018 26.5711L13.3011 26.5455ZM15.858 26.5455L16.3554 26.4953L16.3101 26.0455H15.858V26.5455ZM17.2003 28.9957L16.885 29.3838L16.8888 29.3868L17.2003 28.9957ZM22.4631 29.326L22.2071 28.8965L22.2052 28.8976L22.4631 29.326ZM24.1143 27.6001L23.6759 27.3598L23.6751 27.3613L24.1143 27.6001ZM24.093 22.5504L23.6544 22.7904L23.6571 22.7954L24.093 22.5504ZM19.9062 20.1108L19.9009 20.6108L19.9024 20.6108L19.9062 20.1108ZM17.8501 20.4197L17.9907 20.8996L17.9951 20.8983L17.8501 20.4197ZM16.1136 21.2188L16.0537 21.7151L16.2472 21.7385L16.4055 21.6248L16.1136 21.2188ZM13.642 20.9205L13.1458 20.8594L13.0846 21.3568L13.5821 21.4169L13.642 20.9205ZM14.9631 10.1818V9.68182H14.5208L14.4668 10.1208L14.9631 10.1818ZM26.2983 10.1818H26.7983V9.68182H26.2983V10.1818ZM26.2983 12.5256V13.0256H26.7983V12.5256H26.2983ZM17.179 12.5256V12.0256H16.735L16.6825 12.4664L17.179 12.5256ZM16.4119 18.9602L15.9154 18.901L15.8488 19.4602H16.4119V18.9602ZM16.5398 18.9602V19.4602H16.7141L16.8506 19.3519L16.5398 18.9602ZM23.9013 18.6832L23.6402 19.1097L23.6436 19.1117L23.9013 18.6832ZM26.3729 21.2827L25.9333 21.5209L25.9345 21.5231L26.3729 21.2827ZM26.3409 28.7827L25.9068 28.5346L25.9063 28.5355L26.3409 28.7827ZM23.7841 31.3608L24.0334 31.7942L24.0355 31.793L23.7841 31.3608ZM20.0767 31.7983C18.8946 31.7983 17.8464 31.5637 16.9219 31.1047L16.4772 32.0004C17.5555 32.5357 18.7588 32.7983 20.0767 32.7983V31.7983ZM16.9219 31.1047C15.9912 30.6426 15.255 30.0147 14.7022 29.2213L13.8817 29.7929C14.5362 30.7324 15.4051 31.4682 16.4772 32.0004L16.9219 31.1047ZM14.7022 29.2213C14.1547 28.4355 13.8528 27.5394 13.8005 26.5198L12.8018 26.5711C12.8631 27.7674 13.2218 28.8458 13.8817 29.7929L14.7022 29.2213ZM13.3011 27.0455H15.858V26.0455H13.3011V27.0455ZM15.3605 26.5956C15.4737 27.72 15.9901 28.6567 16.885 29.3838L17.5156 28.6077C16.8196 28.0422 16.4411 27.3454 16.3554 26.4953L15.3605 26.5956ZM16.8888 29.3868C17.7877 30.1028 18.859 30.4545 20.0767 30.4545V29.4545C19.0643 29.4545 18.218 29.1671 17.5118 28.6046L16.8888 29.3868ZM20.0767 30.4545C21.053 30.4545 21.9393 30.2249 22.721 29.7544L22.2052 28.8976C21.5948 29.2651 20.8902 29.4545 20.0767 29.4545V30.4545ZM22.719 29.7555C23.5007 29.2897 24.1138 28.6479 24.5536 27.839L23.6751 27.3613C23.3194 28.0154 22.8317 28.5242 22.2071 28.8965L22.719 29.7555ZM24.5528 27.8405C25.0021 27.0207 25.2216 26.102 25.2216 25.0966H24.2216C24.2216 25.952 24.0362 26.7023 23.6759 27.3598L24.5528 27.8405ZM25.2216 25.0966C25.2216 24.069 24.9946 23.1342 24.5289 22.3055L23.6571 22.7954C24.0296 23.4582 24.2216 24.2208 24.2216 25.0966H25.2216ZM24.5317 22.3104C24.0777 21.4808 23.4473 20.8219 22.6451 20.3422L22.1319 21.2004C22.7785 21.5872 23.2845 22.1143 23.6544 22.7904L24.5317 22.3104ZM22.6451 20.3422C21.8366 19.8586 20.9202 19.6185 19.9101 19.6108L19.9024 20.6108C20.7531 20.6173 21.4915 20.8175 22.1319 21.2004L22.6451 20.3422ZM19.9116 19.6108C19.1882 19.6031 18.4521 19.7149 17.7051 19.9412L17.9951 20.8983C18.6544 20.6985 19.2891 20.6043 19.9009 20.6108L19.9116 19.6108ZM17.7096 19.9399C16.968 20.1571 16.334 20.4446 15.8218 20.8127L16.4055 21.6248C16.8024 21.3394 17.326 21.0943 17.9907 20.8996L17.7096 19.9399ZM16.1735 20.7224L13.702 20.4241L13.5821 21.4169L16.0537 21.7151L16.1735 20.7224ZM14.1383 20.9815L15.4593 10.2429L14.4668 10.1208L13.1458 20.8594L14.1383 20.9815ZM14.9631 10.6818H26.2983V9.68182H14.9631V10.6818ZM25.7983 10.1818V12.5256H26.7983V10.1818H25.7983ZM26.2983 12.0256H17.179V13.0256H26.2983V12.0256ZM16.6825 12.4664L15.9154 18.901L16.9084 19.0194L17.6755 12.5848L16.6825 12.4664ZM16.4119 19.4602H16.5398V18.4602H16.4119V19.4602ZM16.8506 19.3519C17.2446 19.0392 17.7527 18.7687 18.3871 18.5483L18.0589 17.6037C17.3439 17.8521 16.7299 18.171 16.2289 18.5686L16.8506 19.3519ZM18.3871 18.5483C19.0078 18.3327 19.6553 18.2244 20.3324 18.2244V17.2244C19.5464 17.2244 18.7877 17.3505 18.0589 17.6037L18.3871 18.5483ZM20.3324 18.2244C21.5841 18.2244 22.6818 18.5229 23.6402 19.1097L24.1624 18.2568C23.0327 17.5652 21.7511 17.2244 20.3324 17.2244V18.2244ZM23.6436 19.1117C24.6165 19.6968 25.3783 20.4969 25.9333 21.5209L26.8125 21.0444C26.1742 19.8668 25.2883 18.9339 24.159 18.2547L23.6436 19.1117ZM25.9345 21.5231C26.4929 22.5414 26.7784 23.7139 26.7784 25.054H27.7784C27.7784 23.5673 27.4602 22.2257 26.8113 21.0423L25.9345 21.5231ZM26.7784 25.054C26.7784 26.3684 26.4842 27.5241 25.9068 28.5346L26.775 29.0307C27.4476 27.8537 27.7784 26.5237 27.7784 25.054H26.7784ZM25.9063 28.5355C25.3323 29.5449 24.5434 30.3406 23.5327 30.9286L24.0355 31.793C25.198 31.1167 26.1137 30.1937 26.7756 29.0298L25.9063 28.5355ZM23.5348 30.9274C22.5318 31.5043 21.3836 31.7983 20.0767 31.7983V32.7983C21.5397 32.7983 22.8631 32.4673 24.0334 31.7942L23.5348 30.9274Z" fill="black"/>
</svg>
