<svg width="42" height="42" viewBox="0 0 42 42" fill="none" xmlns="http://www.w3.org/2000/svg">
<g opacity="0.1">
<rect x="1" y="1" width="40" height="40" rx="10" fill="#00FFC2"/>
<rect x="1" y="1" width="40" height="40" rx="10" stroke="#275F4B" stroke-linecap="round"/>
<rect x="1" y="1" width="40" height="40" rx="10" stroke="black" stroke-linecap="round"/>
</g>
<path d="M21.5028 34.2983C20.608 34.2841 19.7131 34.1136 18.8182 33.7869C17.9233 33.4602 17.1065 32.9098 16.3679 32.1357C15.6293 31.3544 15.0362 30.2997 14.5888 28.9716C14.1413 27.6364 13.9176 25.9602 13.9176 23.9432C13.9176 22.0114 14.0987 20.2997 14.4609 18.8082C14.8232 17.3097 15.3487 16.049 16.0376 15.0263C16.7266 13.9964 17.5575 13.2152 18.5305 12.6825C19.5107 12.1499 20.6151 11.8835 21.8438 11.8835C23.0653 11.8835 24.152 12.1286 25.1037 12.6186C26.0625 13.1016 26.8438 13.7763 27.4474 14.6428C28.0511 15.5092 28.4418 16.5071 28.6193 17.6364H26.0199C25.7784 16.6562 25.3097 15.843 24.6136 15.1967C23.9176 14.5504 22.9943 14.2273 21.8438 14.2273C20.1534 14.2273 18.8217 14.9624 17.8487 16.4325C16.8828 17.9027 16.3963 19.9659 16.3892 22.6222H16.5597C16.9574 22.0185 17.4297 21.5036 17.9766 21.0774C18.5305 20.6442 19.1413 20.3104 19.8089 20.076C20.4766 19.8416 21.1832 19.7244 21.929 19.7244C23.179 19.7244 24.3224 20.0369 25.3594 20.6619C26.3963 21.2798 27.2273 22.1357 27.8523 23.2294C28.4773 24.3161 28.7898 25.5625 28.7898 26.9688C28.7898 28.3182 28.4879 29.554 27.8842 30.6761C27.2805 31.7912 26.4318 32.679 25.3381 33.3395C24.2514 33.9929 22.973 34.3125 21.5028 34.2983ZM21.5028 31.9545C22.3977 31.9545 23.2003 31.7308 23.9105 31.2834C24.6278 30.8359 25.1925 30.2358 25.6044 29.483C26.0234 28.7301 26.233 27.892 26.233 26.9688C26.233 26.0668 26.0305 25.2464 25.6257 24.5078C25.228 23.7621 24.6776 23.169 23.9744 22.7287C23.2784 22.2884 22.483 22.0682 21.5881 22.0682C20.9134 22.0682 20.2848 22.2031 19.7024 22.473C19.12 22.7358 18.6087 23.098 18.1683 23.5597C17.7351 24.0213 17.3942 24.5504 17.1456 25.147C16.897 25.7365 16.7727 26.358 16.7727 27.0114C16.7727 27.8778 16.9751 28.6875 17.38 29.4403C17.7919 30.1932 18.353 30.8004 19.0632 31.2621C19.7805 31.7237 20.5938 31.9545 21.5028 31.9545Z" fill="black"/>
<path d="M21.5028 34.2983L21.4949 34.7982L21.498 34.7983L21.5028 34.2983ZM18.8182 33.7869L18.6467 34.2566L18.8182 33.7869ZM16.3679 32.1357L16.0046 32.4792L16.0061 32.4808L16.3679 32.1357ZM14.5888 28.9716L14.1147 29.1305L14.1149 29.1312L14.5888 28.9716ZM14.4609 18.8082L14.9468 18.9262L14.9469 18.9257L14.4609 18.8082ZM16.0376 15.0263L16.4523 15.3056L16.4532 15.3043L16.0376 15.0263ZM18.5305 12.6825L18.2918 12.2432L18.2904 12.2439L18.5305 12.6825ZM25.1037 12.6186L24.8748 13.0632L24.8788 13.0652L25.1037 12.6186ZM27.4474 14.6428L27.8577 14.3569L27.8577 14.3569L27.4474 14.6428ZM28.6193 17.6364V18.1364H29.2041L29.1133 17.5587L28.6193 17.6364ZM26.0199 17.6364L25.5344 17.756L25.6281 18.1364H26.0199V17.6364ZM24.6136 15.1967L24.2734 15.5631L24.2734 15.5631L24.6136 15.1967ZM17.8487 16.4325L17.4318 16.1566L17.4308 16.158L17.8487 16.4325ZM16.3892 22.6222L15.8892 22.6208L15.8879 23.1222H16.3892V22.6222ZM16.5597 22.6222V23.1222H16.829L16.9772 22.8972L16.5597 22.6222ZM17.9766 21.0774L18.2839 21.4718L18.2846 21.4713L17.9766 21.0774ZM25.3594 20.6619L25.1013 21.0902L25.1034 21.0915L25.3594 20.6619ZM27.8523 23.2294L27.4182 23.4775L27.4189 23.4787L27.8523 23.2294ZM27.8842 30.6761L28.3239 30.9142L28.3246 30.913L27.8842 30.6761ZM25.3381 33.3395L25.5957 33.768L25.5965 33.7675L25.3381 33.3395ZM23.9105 31.2834L23.6459 30.8591L23.644 30.8603L23.9105 31.2834ZM25.6044 29.483L25.1675 29.2398L25.1658 29.2429L25.6044 29.483ZM25.6257 24.5078L25.1845 24.7431L25.1872 24.7481L25.6257 24.5078ZM23.9744 22.7287L23.7071 23.1512L23.709 23.1525L23.9744 22.7287ZM19.7024 22.473L19.9081 22.9288L19.9126 22.9267L19.7024 22.473ZM18.1683 23.5597L17.8065 23.2145L17.8037 23.2175L18.1683 23.5597ZM17.1456 25.147L17.6063 25.3413L17.6071 25.3393L17.1456 25.147ZM17.38 29.4403L16.9396 29.6771L16.9413 29.6803L17.38 29.4403ZM19.0632 31.2621L18.7907 31.6813L18.7926 31.6825L19.0632 31.2621ZM21.5108 33.7984C20.6752 33.7851 19.8355 33.6261 18.9897 33.3173L18.6467 34.2566C19.5906 34.6012 20.5407 34.7831 21.4949 34.7982L21.5108 33.7984ZM18.9897 33.3173C18.1754 33.02 17.4219 32.516 16.7297 31.7905L16.0061 32.4808C16.7912 33.3036 17.6712 33.9005 18.6467 34.2566L18.9897 33.3173ZM16.7312 31.7921C16.055 31.0769 15.4937 30.0915 15.0626 28.812L14.1149 29.1312C14.5788 30.508 15.2036 31.6319 16.0046 32.4792L16.7312 31.7921ZM15.0629 28.8127C14.6383 27.5456 14.4176 25.9275 14.4176 23.9432H13.4176C13.4176 25.9929 13.6444 27.7271 14.1147 29.1305L15.0629 28.8127ZM14.4176 23.9432C14.4176 22.0414 14.596 20.3707 14.9468 18.9262L13.9751 18.6902C13.6014 20.2288 13.4176 21.9813 13.4176 23.9432H14.4176ZM14.9469 18.9257C15.2986 17.471 15.8038 16.2685 16.4523 15.3056L15.623 14.7469C14.8937 15.8296 14.3478 17.1483 13.9749 18.6908L14.9469 18.9257ZM16.4532 15.3043C17.1027 14.3334 17.8761 13.6108 18.7706 13.1211L18.2904 12.2439C17.239 12.8196 16.3504 13.6595 15.6221 14.7483L16.4532 15.3043ZM18.7693 13.1218C19.6689 12.6329 20.6898 12.3835 21.8438 12.3835V11.3835C20.5403 11.3835 19.3524 11.6668 18.2918 12.2432L18.7693 13.1218ZM21.8438 12.3835C22.997 12.3835 24.0033 12.6144 24.8748 13.0631L25.3326 12.1741C24.3007 11.6427 23.1336 11.3835 21.8438 11.3835V12.3835ZM24.8788 13.0652C25.7647 13.5114 26.4818 14.1314 27.0372 14.9286L27.8577 14.3569C27.2057 13.4211 26.3603 12.6917 25.3286 12.1721L24.8788 13.0652ZM27.0372 14.9286C27.5941 15.7279 27.9586 16.6533 28.1254 17.714L29.1133 17.5587C28.9249 16.3609 28.5082 15.2906 27.8577 14.3569L27.0372 14.9286ZM28.6193 17.1364H26.0199V18.1364H28.6193V17.1364ZM26.5054 17.5168C26.2421 16.4482 25.7259 15.5472 24.9539 14.8303L24.2734 15.5631C24.8934 16.1389 25.3147 16.8643 25.5344 17.756L26.5054 17.5168ZM24.9539 14.8303C24.1466 14.0807 23.0924 13.7273 21.8438 13.7273V14.7273C22.8963 14.7273 23.6886 15.0201 24.2734 15.5631L24.9539 14.8303ZM21.8438 13.7273C19.9772 13.7273 18.4926 14.5537 17.4318 16.1566L18.2657 16.7085C19.1509 15.371 20.3296 14.7273 21.8438 14.7273V13.7273ZM17.4308 16.158C16.3909 17.7408 15.8964 19.9137 15.8892 22.6208L16.8892 22.6235C16.8962 20.0181 17.3747 18.0646 18.2666 16.7071L17.4308 16.158ZM16.3892 23.1222H16.5597V22.1222H16.3892V23.1222ZM16.9772 22.8972C17.3462 22.3371 17.7818 21.863 18.2839 21.4718L17.6692 20.683C17.0776 21.1441 16.5685 21.6998 16.1421 22.3471L16.9772 22.8972ZM18.2846 21.4713C18.7954 21.0718 19.358 20.7642 19.9746 20.5478L19.6433 19.6042C18.9246 19.8565 18.2657 20.2166 17.6685 20.6836L18.2846 21.4713ZM19.9746 20.5478C20.5861 20.3331 21.2366 20.2244 21.929 20.2244V19.2244C21.1299 19.2244 20.367 19.3502 19.6433 19.6042L19.9746 20.5478ZM21.929 20.2244C23.0911 20.2244 24.1448 20.5137 25.1013 21.0902L25.6175 20.2337C24.5 19.5602 23.2668 19.2244 21.929 19.2244V20.2244ZM25.1034 21.0915C26.063 21.6633 26.834 22.4552 27.4182 23.4775L28.2864 22.9813C27.6206 21.8161 26.7296 20.8964 25.6153 20.2324L25.1034 21.0915ZM27.4189 23.4787C27.9951 24.4806 28.2898 25.6391 28.2898 26.9688H29.2898C29.2898 25.4859 28.9594 24.1515 28.2857 22.9801L27.4189 23.4787ZM28.2898 26.9688C28.2898 28.2405 28.0061 29.3942 27.4439 30.4393L28.3246 30.913C28.9697 29.7137 29.2898 28.3958 29.2898 26.9688H28.2898ZM27.4445 30.4381C26.8836 31.4742 26.0977 32.2966 25.0796 32.9115L25.5965 33.7675C26.7659 33.0613 27.6775 32.1082 28.3239 30.9142L27.4445 30.4381ZM25.0804 32.911C24.0849 33.5096 22.9004 33.8118 21.5077 33.7983L21.498 34.7983C23.0456 34.8132 24.4179 34.4762 25.5957 33.768L25.0804 32.911ZM21.5028 32.4545C22.4855 32.4545 23.3817 32.2075 24.177 31.7064L23.644 30.8603C23.0189 31.2541 22.3099 31.4545 21.5028 31.4545V32.4545ZM24.1751 31.7076C24.9665 31.214 25.5905 30.5499 26.043 29.723L25.1658 29.2429C24.7944 29.9216 24.2892 30.4579 23.6459 30.8591L24.1751 31.7076ZM26.0413 29.7261C26.5047 28.8936 26.733 27.9709 26.733 26.9688H25.733C25.733 27.8132 25.5422 28.5666 25.1675 29.2398L26.0413 29.7261ZM26.733 26.9688C26.733 25.9889 26.5122 25.085 26.0642 24.2675L25.1872 24.7481C25.5489 25.4079 25.733 26.1446 25.733 26.9688H26.733ZM26.0669 24.2725C25.6288 23.4512 25.0184 22.7926 24.2398 22.3049L23.709 23.1525C24.3367 23.5455 24.8271 24.073 25.1845 24.7431L26.0669 24.2725ZM24.2418 22.3062C23.4588 21.8108 22.5691 21.5682 21.5881 21.5682V22.5682C22.3968 22.5682 23.098 22.7659 23.7071 23.1512L24.2418 22.3062ZM21.5881 21.5682C20.8445 21.5682 20.1438 21.7174 19.4922 22.0194L19.9126 22.9267C20.4258 22.6889 20.9822 22.5682 21.5881 22.5682V21.5682ZM19.4968 22.0173C18.8558 22.3065 18.2914 22.7062 17.8065 23.2146L18.5301 23.9048C18.926 23.4898 19.3843 23.1651 19.9081 22.9288L19.4968 22.0173ZM17.8037 23.2175C17.3286 23.7238 16.9552 24.3039 16.6841 24.9547L17.6071 25.3393C17.8331 24.7969 18.1416 24.3188 18.5329 23.9018L17.8037 23.2175ZM16.6849 24.9527C16.4098 25.605 16.2727 26.2927 16.2727 27.0114H17.2727C17.2727 26.4232 17.3842 25.868 17.6063 25.3413L16.6849 24.9527ZM16.2727 27.0114C16.2727 27.9593 16.4951 28.8505 16.9396 29.6771L17.8203 29.2035C17.4552 28.5245 17.2727 27.7964 17.2727 27.0114H16.2727ZM16.9413 29.6803C17.3924 30.5048 18.0102 31.174 18.7907 31.6813L19.3357 30.8429C18.6958 30.4269 18.1914 29.8816 17.8186 29.2003L16.9413 29.6803ZM18.7926 31.6825C19.596 32.1996 20.5044 32.4545 21.5028 32.4545V31.4545C20.6831 31.4545 19.9651 31.2479 19.3338 30.8416L18.7926 31.6825Z" fill="#275F4B"/>
<path d="M21.5028 34.2983L21.4949 34.7982L21.498 34.7983L21.5028 34.2983ZM18.8182 33.7869L18.6467 34.2566L18.8182 33.7869ZM16.3679 32.1357L16.0046 32.4792L16.0061 32.4808L16.3679 32.1357ZM14.5888 28.9716L14.1147 29.1305L14.1149 29.1312L14.5888 28.9716ZM14.4609 18.8082L14.9468 18.9262L14.9469 18.9257L14.4609 18.8082ZM16.0376 15.0263L16.4523 15.3056L16.4532 15.3043L16.0376 15.0263ZM18.5305 12.6825L18.2918 12.2432L18.2904 12.2439L18.5305 12.6825ZM25.1037 12.6186L24.8748 13.0632L24.8788 13.0652L25.1037 12.6186ZM27.4474 14.6428L27.8577 14.3569L27.8577 14.3569L27.4474 14.6428ZM28.6193 17.6364V18.1364H29.2041L29.1133 17.5587L28.6193 17.6364ZM26.0199 17.6364L25.5344 17.756L25.6281 18.1364H26.0199V17.6364ZM24.6136 15.1967L24.2734 15.5631L24.2734 15.5631L24.6136 15.1967ZM17.8487 16.4325L17.4318 16.1566L17.4308 16.158L17.8487 16.4325ZM16.3892 22.6222L15.8892 22.6208L15.8879 23.1222H16.3892V22.6222ZM16.5597 22.6222V23.1222H16.829L16.9772 22.8972L16.5597 22.6222ZM17.9766 21.0774L18.2839 21.4718L18.2846 21.4713L17.9766 21.0774ZM25.3594 20.6619L25.1013 21.0902L25.1034 21.0915L25.3594 20.6619ZM27.8523 23.2294L27.4182 23.4775L27.4189 23.4787L27.8523 23.2294ZM27.8842 30.6761L28.3239 30.9142L28.3246 30.913L27.8842 30.6761ZM25.3381 33.3395L25.5957 33.768L25.5965 33.7675L25.3381 33.3395ZM23.9105 31.2834L23.6459 30.8591L23.644 30.8603L23.9105 31.2834ZM25.6044 29.483L25.1675 29.2398L25.1658 29.2429L25.6044 29.483ZM25.6257 24.5078L25.1845 24.7431L25.1872 24.7481L25.6257 24.5078ZM23.9744 22.7287L23.7071 23.1512L23.709 23.1525L23.9744 22.7287ZM19.7024 22.473L19.9081 22.9288L19.9126 22.9267L19.7024 22.473ZM18.1683 23.5597L17.8065 23.2145L17.8037 23.2175L18.1683 23.5597ZM17.1456 25.147L17.6063 25.3413L17.6071 25.3393L17.1456 25.147ZM17.38 29.4403L16.9396 29.6771L16.9413 29.6803L17.38 29.4403ZM19.0632 31.2621L18.7907 31.6813L18.7926 31.6825L19.0632 31.2621ZM21.5108 33.7984C20.6752 33.7851 19.8355 33.6261 18.9897 33.3173L18.6467 34.2566C19.5906 34.6012 20.5407 34.7831 21.4949 34.7982L21.5108 33.7984ZM18.9897 33.3173C18.1754 33.02 17.4219 32.516 16.7297 31.7905L16.0061 32.4808C16.7912 33.3036 17.6712 33.9005 18.6467 34.2566L18.9897 33.3173ZM16.7312 31.7921C16.055 31.0769 15.4937 30.0915 15.0626 28.812L14.1149 29.1312C14.5788 30.508 15.2036 31.6319 16.0046 32.4792L16.7312 31.7921ZM15.0629 28.8127C14.6383 27.5456 14.4176 25.9275 14.4176 23.9432H13.4176C13.4176 25.9929 13.6444 27.7271 14.1147 29.1305L15.0629 28.8127ZM14.4176 23.9432C14.4176 22.0414 14.596 20.3707 14.9468 18.9262L13.9751 18.6902C13.6014 20.2288 13.4176 21.9813 13.4176 23.9432H14.4176ZM14.9469 18.9257C15.2986 17.471 15.8038 16.2685 16.4523 15.3056L15.623 14.7469C14.8937 15.8296 14.3478 17.1483 13.9749 18.6908L14.9469 18.9257ZM16.4532 15.3043C17.1027 14.3334 17.8761 13.6108 18.7706 13.1211L18.2904 12.2439C17.239 12.8196 16.3504 13.6595 15.6221 14.7483L16.4532 15.3043ZM18.7693 13.1218C19.6689 12.6329 20.6898 12.3835 21.8438 12.3835V11.3835C20.5403 11.3835 19.3524 11.6668 18.2918 12.2432L18.7693 13.1218ZM21.8438 12.3835C22.997 12.3835 24.0033 12.6144 24.8748 13.0631L25.3326 12.1741C24.3007 11.6427 23.1336 11.3835 21.8438 11.3835V12.3835ZM24.8788 13.0652C25.7647 13.5114 26.4818 14.1314 27.0372 14.9286L27.8577 14.3569C27.2057 13.4211 26.3603 12.6917 25.3286 12.1721L24.8788 13.0652ZM27.0372 14.9286C27.5941 15.7279 27.9586 16.6533 28.1254 17.714L29.1133 17.5587C28.9249 16.3609 28.5082 15.2906 27.8577 14.3569L27.0372 14.9286ZM28.6193 17.1364H26.0199V18.1364H28.6193V17.1364ZM26.5054 17.5168C26.2421 16.4482 25.7259 15.5472 24.9539 14.8303L24.2734 15.5631C24.8934 16.1389 25.3147 16.8643 25.5344 17.756L26.5054 17.5168ZM24.9539 14.8303C24.1466 14.0807 23.0924 13.7273 21.8438 13.7273V14.7273C22.8963 14.7273 23.6886 15.0201 24.2734 15.5631L24.9539 14.8303ZM21.8438 13.7273C19.9772 13.7273 18.4926 14.5537 17.4318 16.1566L18.2657 16.7085C19.1509 15.371 20.3296 14.7273 21.8438 14.7273V13.7273ZM17.4308 16.158C16.3909 17.7408 15.8964 19.9137 15.8892 22.6208L16.8892 22.6235C16.8962 20.0181 17.3747 18.0646 18.2666 16.7071L17.4308 16.158ZM16.3892 23.1222H16.5597V22.1222H16.3892V23.1222ZM16.9772 22.8972C17.3462 22.3371 17.7818 21.863 18.2839 21.4718L17.6692 20.683C17.0776 21.1441 16.5685 21.6998 16.1421 22.3471L16.9772 22.8972ZM18.2846 21.4713C18.7954 21.0718 19.358 20.7642 19.9746 20.5478L19.6433 19.6042C18.9246 19.8565 18.2657 20.2166 17.6685 20.6836L18.2846 21.4713ZM19.9746 20.5478C20.5861 20.3331 21.2366 20.2244 21.929 20.2244V19.2244C21.1299 19.2244 20.367 19.3502 19.6433 19.6042L19.9746 20.5478ZM21.929 20.2244C23.0911 20.2244 24.1448 20.5137 25.1013 21.0902L25.6175 20.2337C24.5 19.5602 23.2668 19.2244 21.929 19.2244V20.2244ZM25.1034 21.0915C26.063 21.6633 26.834 22.4552 27.4182 23.4775L28.2864 22.9813C27.6206 21.8161 26.7296 20.8964 25.6153 20.2324L25.1034 21.0915ZM27.4189 23.4787C27.9951 24.4806 28.2898 25.6391 28.2898 26.9688H29.2898C29.2898 25.4859 28.9594 24.1515 28.2857 22.9801L27.4189 23.4787ZM28.2898 26.9688C28.2898 28.2405 28.0061 29.3942 27.4439 30.4393L28.3246 30.913C28.9697 29.7137 29.2898 28.3958 29.2898 26.9688H28.2898ZM27.4445 30.4381C26.8836 31.4742 26.0977 32.2966 25.0796 32.9115L25.5965 33.7675C26.7659 33.0613 27.6775 32.1082 28.3239 30.9142L27.4445 30.4381ZM25.0804 32.911C24.0849 33.5096 22.9004 33.8118 21.5077 33.7983L21.498 34.7983C23.0456 34.8132 24.4179 34.4762 25.5957 33.768L25.0804 32.911ZM21.5028 32.4545C22.4855 32.4545 23.3817 32.2075 24.177 31.7064L23.644 30.8603C23.0189 31.2541 22.3099 31.4545 21.5028 31.4545V32.4545ZM24.1751 31.7076C24.9665 31.214 25.5905 30.5499 26.043 29.723L25.1658 29.2429C24.7944 29.9216 24.2892 30.4579 23.6459 30.8591L24.1751 31.7076ZM26.0413 29.7261C26.5047 28.8936 26.733 27.9709 26.733 26.9688H25.733C25.733 27.8132 25.5422 28.5666 25.1675 29.2398L26.0413 29.7261ZM26.733 26.9688C26.733 25.9889 26.5122 25.085 26.0642 24.2675L25.1872 24.7481C25.5489 25.4079 25.733 26.1446 25.733 26.9688H26.733ZM26.0669 24.2725C25.6288 23.4512 25.0184 22.7926 24.2398 22.3049L23.709 23.1525C24.3367 23.5455 24.8271 24.073 25.1845 24.7431L26.0669 24.2725ZM24.2418 22.3062C23.4588 21.8108 22.5691 21.5682 21.5881 21.5682V22.5682C22.3968 22.5682 23.098 22.7659 23.7071 23.1512L24.2418 22.3062ZM21.5881 21.5682C20.8445 21.5682 20.1438 21.7174 19.4922 22.0194L19.9126 22.9267C20.4258 22.6889 20.9822 22.5682 21.5881 22.5682V21.5682ZM19.4968 22.0173C18.8558 22.3065 18.2914 22.7062 17.8065 23.2146L18.5301 23.9048C18.926 23.4898 19.3843 23.1651 19.9081 22.9288L19.4968 22.0173ZM17.8037 23.2175C17.3286 23.7238 16.9552 24.3039 16.6841 24.9547L17.6071 25.3393C17.8331 24.7969 18.1416 24.3188 18.5329 23.9018L17.8037 23.2175ZM16.6849 24.9527C16.4098 25.605 16.2727 26.2927 16.2727 27.0114H17.2727C17.2727 26.4232 17.3842 25.868 17.6063 25.3413L16.6849 24.9527ZM16.2727 27.0114C16.2727 27.9593 16.4951 28.8505 16.9396 29.6771L17.8203 29.2035C17.4552 28.5245 17.2727 27.7964 17.2727 27.0114H16.2727ZM16.9413 29.6803C17.3924 30.5048 18.0102 31.174 18.7907 31.6813L19.3357 30.8429C18.6958 30.4269 18.1914 29.8816 17.8186 29.2003L16.9413 29.6803ZM18.7926 31.6825C19.596 32.1996 20.5044 32.4545 21.5028 32.4545V31.4545C20.6831 31.4545 19.9651 31.2479 19.3338 30.8416L18.7926 31.6825Z" fill="black"/>
</svg>
