<svg width="42" height="42" viewBox="0 0 42 42" fill="none" xmlns="http://www.w3.org/2000/svg">
<g opacity="0.1">
<rect x="1" y="1" width="40" height="40" rx="10" fill="#00FFC2"/>
<rect x="1" y="1" width="40" height="40" rx="10" stroke="#275F4B" stroke-linecap="round"/>
<rect x="1" y="1" width="40" height="40" rx="10" stroke="black" stroke-linecap="round"/>
</g>
<path d="M14.9403 33L24.6989 13.696V13.5256H13.4489V11.1818H27.4261V13.6534L17.7102 33H14.9403Z" fill="black"/>
<path d="M14.9403 33L14.4941 32.7744L14.1273 33.5H14.9403V33ZM24.6989 13.696L25.1451 13.9216L25.1989 13.8152V13.696H24.6989ZM24.6989 13.5256H25.1989V13.0256H24.6989V13.5256ZM13.4489 13.5256H12.9489V14.0256H13.4489V13.5256ZM13.4489 11.1818V10.6818H12.9489V11.1818H13.4489ZM27.4261 11.1818H27.9261V10.6818H27.4261V11.1818ZM27.4261 13.6534L27.873 13.8778L27.9261 13.7719V13.6534H27.4261ZM17.7102 33V33.5H18.0186L18.157 33.2244L17.7102 33ZM15.3866 33.2256L25.1451 13.9216L24.2526 13.4704L14.4941 32.7744L15.3866 33.2256ZM25.1989 13.696V13.5256H24.1989V13.696H25.1989ZM24.6989 13.0256H13.4489V14.0256H24.6989V13.0256ZM13.9489 13.5256V11.1818H12.9489V13.5256H13.9489ZM13.4489 11.6818H27.4261V10.6818H13.4489V11.6818ZM26.9261 11.1818V13.6534H27.9261V11.1818H26.9261ZM26.9793 13.429L17.2634 32.7756L18.157 33.2244L27.873 13.8778L26.9793 13.429ZM17.7102 32.5H14.9403V33.5H17.7102V32.5Z" fill="#275F4B"/>
<path d="M14.9403 33L14.4941 32.7744L14.1273 33.5H14.9403V33ZM24.6989 13.696L25.1451 13.9216L25.1989 13.8152V13.696H24.6989ZM24.6989 13.5256H25.1989V13.0256H24.6989V13.5256ZM13.4489 13.5256H12.9489V14.0256H13.4489V13.5256ZM13.4489 11.1818V10.6818H12.9489V11.1818H13.4489ZM27.4261 11.1818H27.9261V10.6818H27.4261V11.1818ZM27.4261 13.6534L27.873 13.8778L27.9261 13.7719V13.6534H27.4261ZM17.7102 33V33.5H18.0186L18.157 33.2244L17.7102 33ZM15.3866 33.2256L25.1451 13.9216L24.2526 13.4704L14.4941 32.7744L15.3866 33.2256ZM25.1989 13.696V13.5256H24.1989V13.696H25.1989ZM24.6989 13.0256H13.4489V14.0256H24.6989V13.0256ZM13.9489 13.5256V11.1818H12.9489V13.5256H13.9489ZM13.4489 11.6818H27.4261V10.6818H13.4489V11.6818ZM26.9261 11.1818V13.6534H27.9261V11.1818H26.9261ZM26.9793 13.429L17.2634 32.7756L18.157 33.2244L27.873 13.8778L26.9793 13.429ZM17.7102 32.5H14.9403V33.5H17.7102V32.5Z" fill="black"/>
</svg>
