<svg width="42" height="42" viewBox="0 0 42 42" fill="none" xmlns="http://www.w3.org/2000/svg">
<g opacity="0.1">
<rect x="1" y="1" width="40" height="40" rx="10" fill="#00FFC2"/>
<rect x="1" y="1" width="40" height="40" rx="10" stroke="#275F4B" stroke-linecap="round"/>
<rect x="1" y="1" width="40" height="40" rx="10" stroke="black" stroke-linecap="round"/>
</g>
<path d="M20.2472 33.2983C18.7841 33.2983 17.4915 33.0391 16.3693 32.5206C15.2543 31.995 14.3842 31.2741 13.7592 30.358C13.1342 29.4347 12.8253 28.3835 12.8324 27.2045C12.8253 26.2812 13.0064 25.429 13.3757 24.6477C13.745 23.8594 14.2493 23.2024 14.8885 22.6768C15.5348 22.1442 16.2557 21.8068 17.0511 21.6648V21.5369C16.0071 21.267 15.1761 20.6811 14.5582 19.7791C13.9403 18.87 13.6349 17.8366 13.642 16.679C13.6349 15.571 13.9155 14.5803 14.4837 13.7067C15.0518 12.8331 15.8331 12.1442 16.8274 11.6399C17.8288 11.1357 18.9688 10.8835 20.2472 10.8835C21.5114 10.8835 22.6406 11.1357 23.6349 11.6399C24.6293 12.1442 25.4105 12.8331 25.9787 13.7067C26.554 14.5803 26.8452 15.571 26.8523 16.679C26.8452 17.8366 26.5291 18.87 25.9041 19.7791C25.2862 20.6811 24.4659 21.267 23.4432 21.5369V21.6648C24.2315 21.8068 24.9418 22.1442 25.5739 22.6768C26.206 23.2024 26.7102 23.8594 27.0866 24.6477C27.4631 25.429 27.6548 26.2812 27.6619 27.2045C27.6548 28.3835 27.3352 29.4347 26.7031 30.358C26.0781 31.2741 25.2081 31.995 24.093 32.5206C22.9851 33.0391 21.7031 33.2983 20.2472 33.2983ZM20.2472 30.9545C21.2344 30.9545 22.0866 30.7947 22.804 30.4751C23.5213 30.1555 24.0753 29.7045 24.4659 29.1222C24.8565 28.5398 25.0554 27.858 25.0625 27.0767C25.0554 26.2528 24.8423 25.5249 24.4233 24.8928C24.0043 24.2607 23.4325 23.7635 22.7081 23.4013C21.9908 23.0391 21.1705 22.858 20.2472 22.858C19.3168 22.858 18.4858 23.0391 17.7543 23.4013C17.0298 23.7635 16.4581 24.2607 16.0391 24.8928C15.6271 25.5249 15.4247 26.2528 15.4318 27.0767C15.4247 27.858 15.6129 28.5398 15.9964 29.1222C16.3871 29.7045 16.9446 30.1555 17.669 30.4751C18.3935 30.7947 19.2528 30.9545 20.2472 30.9545ZM20.2472 20.5994C21.0284 20.5994 21.7209 20.4432 22.3246 20.1307C22.9354 19.8182 23.4148 19.3814 23.7628 18.8203C24.1108 18.2592 24.2884 17.6023 24.2955 16.8494C24.2884 16.1108 24.1143 15.468 23.7734 14.9212C23.4325 14.3672 22.9602 13.9411 22.3565 13.6428C21.7528 13.3374 21.0497 13.1847 20.2472 13.1847C19.4304 13.1847 18.7166 13.3374 18.1058 13.6428C17.495 13.9411 17.0227 14.3672 16.6889 14.9212C16.3551 15.468 16.1918 16.1108 16.1989 16.8494C16.1918 17.6023 16.3587 18.2592 16.6996 18.8203C17.0476 19.3814 17.527 19.8182 18.1378 20.1307C18.7486 20.4432 19.4517 20.5994 20.2472 20.5994Z" fill="black"/>
<path d="M16.3693 32.5206L16.1561 32.9729L16.1596 32.9745L16.3693 32.5206ZM13.7592 30.358L13.3452 30.6382L13.3462 30.6397L13.7592 30.358ZM12.8324 27.2045L13.3324 27.2076L13.3324 27.2007L12.8324 27.2045ZM13.3757 24.6477L13.8277 24.8614L13.8285 24.8598L13.3757 24.6477ZM14.8885 22.6768L15.206 23.0631L15.2065 23.0627L14.8885 22.6768ZM17.0511 21.6648L17.139 22.157L17.5511 22.0834V21.6648H17.0511ZM17.0511 21.5369H17.5511V21.1497L17.1763 21.0528L17.0511 21.5369ZM14.5582 19.7791L14.1447 20.0602L14.1457 20.0617L14.5582 19.7791ZM13.642 16.679L14.1421 16.682L14.142 16.6758L13.642 16.679ZM14.4837 13.7067L14.9028 13.9793L14.4837 13.7067ZM16.8274 11.6399L16.6025 11.1933L16.6013 11.194L16.8274 11.6399ZM25.9787 13.7067L25.5595 13.9793L25.5611 13.9817L25.9787 13.7067ZM26.8523 16.679L27.3523 16.682L27.3523 16.6758L26.8523 16.679ZM25.9041 19.7791L25.4921 19.4959L25.4916 19.4965L25.9041 19.7791ZM23.4432 21.5369L23.3156 21.0535L22.9432 21.1518V21.5369H23.4432ZM23.4432 21.6648H22.9432V22.0827L23.3545 22.1568L23.4432 21.6648ZM25.5739 22.6768L25.2517 23.0592L25.2542 23.0613L25.5739 22.6768ZM27.0866 24.6477L26.6354 24.8632L26.6362 24.8648L27.0866 24.6477ZM27.6619 27.2045L28.162 27.2076L28.1619 27.2007L27.6619 27.2045ZM26.7031 30.358L26.2905 30.0755L26.2901 30.0762L26.7031 30.358ZM24.093 32.5206L24.305 32.9735L24.3062 32.9729L24.093 32.5206ZM22.804 30.4751L22.6005 30.0184L22.804 30.4751ZM24.4659 29.1222L24.0507 28.8436L24.4659 29.1222ZM25.0625 27.0767L25.5626 27.0812L25.5625 27.0724L25.0625 27.0767ZM24.4233 24.8928L24.0066 25.169L24.4233 24.8928ZM22.7081 23.4013L22.4827 23.8476L22.4845 23.8485L22.7081 23.4013ZM17.7543 23.4013L17.5324 22.9532L17.5307 22.9541L17.7543 23.4013ZM16.0391 24.8928L15.6223 24.6165L15.6202 24.6198L16.0391 24.8928ZM15.4318 27.0767L15.9319 27.0813L15.9318 27.0724L15.4318 27.0767ZM15.9964 29.1222L15.5788 29.3972L15.5812 29.4007L15.9964 29.1222ZM17.669 30.4751L17.8709 30.0177L17.669 30.4751ZM22.3246 20.1307L22.0968 19.6856L22.0947 19.6866L22.3246 20.1307ZM23.7628 18.8203L24.1877 19.0839V19.0839L23.7628 18.8203ZM24.2955 16.8494L24.7955 16.8541L24.7954 16.8446L24.2955 16.8494ZM23.7734 14.9212L23.3476 15.1832L23.3491 15.1857L23.7734 14.9212ZM22.3565 13.6428L22.1308 14.0889L22.135 14.091L22.3565 13.6428ZM18.1058 13.6428L18.3253 14.0921L18.3294 14.09L18.1058 13.6428ZM16.6889 14.9212L17.1157 15.1817L17.1172 15.1792L16.6889 14.9212ZM16.1989 16.8494L16.6989 16.8541L16.6988 16.8446L16.1989 16.8494ZM16.6996 18.8203L16.2722 19.08L16.2747 19.0839L16.6996 18.8203ZM20.2472 32.7983C18.8434 32.7983 17.6245 32.5497 16.579 32.0667L16.1596 32.9745C17.3585 33.5284 18.7248 33.7983 20.2472 33.7983V32.7983ZM16.5825 32.0683C15.5388 31.5764 14.7416 30.9108 14.1723 30.0762L13.3462 30.6397C14.0269 31.6375 14.9697 32.4136 16.1561 32.9729L16.5825 32.0683ZM14.1733 30.0777C13.6082 29.2429 13.3258 28.2917 13.3324 27.2076L12.3324 27.2015C12.3247 28.4753 12.6603 29.6264 13.3452 30.6382L14.1733 30.0777ZM13.3324 27.2007C13.3258 26.3473 13.4927 25.5701 13.8277 24.8614L12.9237 24.434C12.52 25.2879 12.3248 26.2152 12.3324 27.2084L13.3324 27.2007ZM13.8285 24.8598C14.1679 24.1353 14.6273 23.5389 15.206 23.0631L14.5709 22.2906C13.8713 22.8659 13.3221 23.5835 12.9229 24.4356L13.8285 24.8598ZM15.2065 23.0627C15.789 22.5826 16.4313 22.2834 17.139 22.157L16.9632 21.1726C16.0801 21.3303 15.2806 21.7058 14.5705 22.291L15.2065 23.0627ZM17.5511 21.6648V21.5369H16.5511V21.6648H17.5511ZM17.1763 21.0528C16.251 20.8137 15.5214 20.3004 14.9707 19.4965L14.1457 20.0617C14.8309 21.0618 15.7632 21.7204 16.926 22.021L17.1763 21.0528ZM14.9718 19.4981C14.4139 18.6773 14.1355 17.7441 14.142 16.682L13.1421 16.6759C13.1344 17.9292 13.4668 19.0627 14.1447 20.0602L14.9718 19.4981ZM14.142 16.6758C14.1355 15.6592 14.3914 14.7655 14.9028 13.9793L14.0645 13.4341C13.4395 14.395 13.1344 15.4829 13.1421 16.6822L14.142 16.6758ZM14.9028 13.9793C15.4197 13.1846 16.132 12.5532 17.0536 12.0858L16.6013 11.194C15.5342 11.7352 14.684 12.4816 14.0645 13.4341L14.9028 13.9793ZM17.0523 12.0865C17.9747 11.622 19.0358 11.3835 20.2472 11.3835V10.3835C18.9017 10.3835 17.6829 10.6493 16.6025 11.1933L17.0523 12.0865ZM20.2472 11.3835C21.4434 11.3835 22.4934 11.6216 23.4088 12.0858L23.8611 11.194C22.7878 10.6497 21.5793 10.3835 20.2472 10.3835V11.3835ZM23.4088 12.0858C24.3303 12.5532 25.0427 13.1846 25.5595 13.9793L26.3978 13.4341C25.7783 12.4816 24.9282 11.7352 23.8611 11.194L23.4088 12.0858ZM25.5611 13.9817C26.08 14.7696 26.3458 15.6649 26.3523 16.6822L27.3523 16.6758C27.3446 15.4772 27.0279 14.3909 26.3963 13.4317L25.5611 13.9817ZM26.3523 16.6759C26.3458 17.7387 26.0575 18.6735 25.4921 19.4959L26.3161 20.0624C27.0007 19.0666 27.3446 17.9346 27.3523 16.682L26.3523 16.6759ZM25.4916 19.4965C24.939 20.3032 24.2181 20.8153 23.3156 21.0535L23.5708 22.0204C24.7137 21.7188 25.6334 21.059 26.3166 20.0617L25.4916 19.4965ZM22.9432 21.5369V21.6648H23.9432V21.5369H22.9432ZM23.3545 22.1568C24.0539 22.2829 24.6842 22.581 25.2517 23.0592L25.8961 22.2945C25.1993 21.7073 24.4091 21.3308 23.5318 21.1727L23.3545 22.1568ZM25.2542 23.0613C25.8273 23.5378 26.2882 24.1358 26.6354 24.8632L27.5379 24.4323C27.1323 23.5829 26.5846 22.867 25.8935 22.2924L25.2542 23.0613ZM26.6362 24.8648C26.9785 25.5752 27.1554 26.3541 27.1619 27.2084L28.1619 27.2007C28.1543 26.2084 27.9476 25.2827 27.5371 24.4307L26.6362 24.8648ZM27.1619 27.2015C27.1554 28.2864 26.8632 29.2391 26.2905 30.0755L27.1157 30.6404C27.8073 29.6302 28.1543 28.4807 28.1619 27.2076L27.1619 27.2015ZM26.2901 30.0762C25.7208 30.9108 24.9235 31.5764 23.8799 32.0683L24.3062 32.9729C25.4927 32.4136 26.4355 31.6375 27.1162 30.6397L26.2901 30.0762ZM23.8811 32.0677C22.8509 32.5498 21.6436 32.7983 20.2472 32.7983V33.7983C21.7626 33.7983 23.1192 33.5283 24.305 32.9735L23.8811 32.0677ZM20.2472 31.4545C21.287 31.4545 22.2119 31.2863 23.0075 30.9319L22.6005 30.0184C21.9614 30.3032 21.1817 30.4545 20.2472 30.4545V31.4545ZM23.0075 30.9319C23.8001 30.5787 24.432 30.0703 24.8812 29.4007L24.0507 28.8436C23.7186 29.3388 23.2425 29.7324 22.6005 30.0184L23.0075 30.9319ZM24.8812 29.4007C25.3323 28.7281 25.5546 27.9486 25.5625 27.0812L24.5625 27.0722C24.5562 27.7673 24.3808 28.3514 24.0507 28.8436L24.8812 29.4007ZM25.5625 27.0724C25.5546 26.1604 25.3172 25.3362 24.84 24.6165L24.0066 25.169C24.3675 25.7135 24.5562 26.3452 24.5625 27.081L25.5625 27.0724ZM24.84 24.6165C24.3694 23.9065 23.7289 23.3526 22.9317 22.9541L22.4845 23.8485C23.1362 24.1743 23.6391 24.6148 24.0066 25.169L24.84 24.6165ZM22.9335 22.955C22.1365 22.5525 21.237 22.358 20.2472 22.358V23.358C21.1039 23.358 21.845 23.5256 22.4827 23.8476L22.9335 22.955ZM20.2472 22.358C19.2506 22.358 18.342 22.5523 17.5324 22.9532L17.9761 23.8494C18.6296 23.5258 19.3829 23.358 20.2472 23.358V22.358ZM17.5307 22.9541C16.7335 23.3526 16.093 23.9065 15.6223 24.6165L16.4558 25.169C16.8232 24.6148 17.3262 24.1743 17.9779 23.8485L17.5307 22.9541ZM15.6202 24.6198C15.1496 25.3419 14.924 26.1682 14.9318 27.081L15.9318 27.0724C15.9255 26.3375 16.1047 25.7078 16.458 25.1657L15.6202 24.6198ZM14.9318 27.0722C14.9239 27.9403 15.1343 28.7221 15.5789 29.3972L16.414 28.8472C16.0916 28.3575 15.9255 27.7756 15.9318 27.0812L14.9318 27.0722ZM15.5812 29.4007C16.0312 30.0715 16.6676 30.5798 17.4672 30.9326L17.8709 30.0177C17.2216 29.7312 16.743 29.3375 16.4117 28.8436L15.5812 29.4007ZM17.4672 30.9326C18.2693 31.2865 19.2005 31.4545 20.2472 31.4545V30.4545C19.3051 30.4545 18.5177 30.303 17.8709 30.0177L17.4672 30.9326ZM20.2472 21.0994C21.0964 21.0994 21.8698 20.9291 22.5544 20.5747L22.0947 19.6866C21.572 19.9572 20.9604 20.0994 20.2472 20.0994V21.0994ZM22.5523 20.5758C23.2408 20.2236 23.7898 19.7254 24.1877 19.0839L23.3379 18.5568C23.0398 19.0374 22.6299 19.4128 22.0968 19.6856L22.5523 20.5758ZM24.1877 19.0839C24.5904 18.4346 24.7876 17.6854 24.7954 16.8541L23.7955 16.8447C23.7891 17.5191 23.6312 18.0839 23.3379 18.5568L24.1877 19.0839ZM24.7954 16.8446C24.7876 16.0278 24.594 15.2924 24.1977 14.6567L23.3491 15.1857C23.6347 15.6437 23.7891 16.1938 23.7955 16.8542L24.7954 16.8446ZM24.1993 14.6591C23.8073 14.0222 23.2629 13.5329 22.578 13.1945L22.135 14.091C22.6576 14.3492 23.0577 14.7122 23.3476 15.1832L24.1993 14.6591ZM22.5822 13.1966C21.8967 12.8498 21.1136 12.6847 20.2472 12.6847V13.6847C20.9858 13.6847 21.609 13.8249 22.1308 14.0889L22.5822 13.1966ZM20.2472 12.6847C19.3679 12.6847 18.5748 12.8493 17.8822 13.1955L18.3294 14.09C18.8585 13.8255 19.4929 13.6847 20.2472 13.6847V12.6847ZM17.8864 13.1935C17.1937 13.5318 16.6468 14.0223 16.2607 14.6631L17.1172 15.1792C17.3987 14.7121 17.7964 14.3503 18.3252 14.092L17.8864 13.1935ZM16.2621 14.6607C15.8725 15.299 15.691 16.0367 15.6989 16.8542L16.6988 16.8446C16.6925 16.1849 16.8377 15.6371 17.1157 15.1817L16.2621 14.6607ZM15.6989 16.8447C15.691 17.6768 15.8762 18.4281 16.2723 19.0799L17.1269 18.5607C16.8411 18.0904 16.6925 17.5278 16.6988 16.8541L15.6989 16.8447ZM16.2747 19.0839C16.6726 19.7254 17.2216 20.2236 17.91 20.5758L18.3655 19.6856C17.8324 19.4128 17.4226 19.0374 17.1245 18.5568L16.2747 19.0839ZM17.91 20.5758C18.6018 20.9297 19.3852 21.0994 20.2472 21.0994V20.0994C19.5182 20.0994 18.8954 19.9566 18.3655 19.6856L17.91 20.5758Z" fill="#275F4B"/>
<path d="M16.3693 32.5206L16.1561 32.9729L16.1596 32.9745L16.3693 32.5206ZM13.7592 30.358L13.3452 30.6382L13.3462 30.6397L13.7592 30.358ZM12.8324 27.2045L13.3324 27.2076L13.3324 27.2007L12.8324 27.2045ZM13.3757 24.6477L13.8277 24.8614L13.8285 24.8598L13.3757 24.6477ZM14.8885 22.6768L15.206 23.0631L15.2065 23.0627L14.8885 22.6768ZM17.0511 21.6648L17.139 22.157L17.5511 22.0834V21.6648H17.0511ZM17.0511 21.5369H17.5511V21.1497L17.1763 21.0528L17.0511 21.5369ZM14.5582 19.7791L14.1447 20.0602L14.1457 20.0617L14.5582 19.7791ZM13.642 16.679L14.1421 16.682L14.142 16.6758L13.642 16.679ZM14.4837 13.7067L14.9028 13.9793L14.4837 13.7067ZM16.8274 11.6399L16.6025 11.1933L16.6013 11.194L16.8274 11.6399ZM25.9787 13.7067L25.5595 13.9793L25.5611 13.9817L25.9787 13.7067ZM26.8523 16.679L27.3523 16.682L27.3523 16.6758L26.8523 16.679ZM25.9041 19.7791L25.4921 19.4959L25.4916 19.4965L25.9041 19.7791ZM23.4432 21.5369L23.3156 21.0535L22.9432 21.1518V21.5369H23.4432ZM23.4432 21.6648H22.9432V22.0827L23.3545 22.1568L23.4432 21.6648ZM25.5739 22.6768L25.2517 23.0592L25.2542 23.0613L25.5739 22.6768ZM27.0866 24.6477L26.6354 24.8632L26.6362 24.8648L27.0866 24.6477ZM27.6619 27.2045L28.162 27.2076L28.1619 27.2007L27.6619 27.2045ZM26.7031 30.358L26.2905 30.0755L26.2901 30.0762L26.7031 30.358ZM24.093 32.5206L24.305 32.9735L24.3062 32.9729L24.093 32.5206ZM22.804 30.4751L22.6005 30.0184L22.804 30.4751ZM24.4659 29.1222L24.0507 28.8436L24.4659 29.1222ZM25.0625 27.0767L25.5626 27.0812L25.5625 27.0724L25.0625 27.0767ZM24.4233 24.8928L24.0066 25.169L24.4233 24.8928ZM22.7081 23.4013L22.4827 23.8476L22.4845 23.8485L22.7081 23.4013ZM17.7543 23.4013L17.5324 22.9532L17.5307 22.9541L17.7543 23.4013ZM16.0391 24.8928L15.6223 24.6165L15.6202 24.6198L16.0391 24.8928ZM15.4318 27.0767L15.9319 27.0813L15.9318 27.0724L15.4318 27.0767ZM15.9964 29.1222L15.5788 29.3972L15.5812 29.4007L15.9964 29.1222ZM17.669 30.4751L17.8709 30.0177L17.669 30.4751ZM22.3246 20.1307L22.0968 19.6856L22.0947 19.6866L22.3246 20.1307ZM23.7628 18.8203L24.1877 19.0839V19.0839L23.7628 18.8203ZM24.2955 16.8494L24.7955 16.8541L24.7954 16.8446L24.2955 16.8494ZM23.7734 14.9212L23.3476 15.1832L23.3491 15.1857L23.7734 14.9212ZM22.3565 13.6428L22.1308 14.0889L22.135 14.091L22.3565 13.6428ZM18.1058 13.6428L18.3253 14.0921L18.3294 14.09L18.1058 13.6428ZM16.6889 14.9212L17.1157 15.1817L17.1172 15.1792L16.6889 14.9212ZM16.1989 16.8494L16.6989 16.8541L16.6988 16.8446L16.1989 16.8494ZM16.6996 18.8203L16.2722 19.08L16.2747 19.0839L16.6996 18.8203ZM20.2472 32.7983C18.8434 32.7983 17.6245 32.5497 16.579 32.0667L16.1596 32.9745C17.3585 33.5284 18.7248 33.7983 20.2472 33.7983V32.7983ZM16.5825 32.0683C15.5388 31.5764 14.7416 30.9108 14.1723 30.0762L13.3462 30.6397C14.0269 31.6375 14.9697 32.4136 16.1561 32.9729L16.5825 32.0683ZM14.1733 30.0777C13.6082 29.2429 13.3258 28.2917 13.3324 27.2076L12.3324 27.2015C12.3247 28.4753 12.6603 29.6264 13.3452 30.6382L14.1733 30.0777ZM13.3324 27.2007C13.3258 26.3473 13.4927 25.5701 13.8277 24.8614L12.9237 24.434C12.52 25.2879 12.3248 26.2152 12.3324 27.2084L13.3324 27.2007ZM13.8285 24.8598C14.1679 24.1353 14.6273 23.5389 15.206 23.0631L14.5709 22.2906C13.8713 22.8659 13.3221 23.5835 12.9229 24.4356L13.8285 24.8598ZM15.2065 23.0627C15.789 22.5826 16.4313 22.2834 17.139 22.157L16.9632 21.1726C16.0801 21.3303 15.2806 21.7058 14.5705 22.291L15.2065 23.0627ZM17.5511 21.6648V21.5369H16.5511V21.6648H17.5511ZM17.1763 21.0528C16.251 20.8137 15.5214 20.3004 14.9707 19.4965L14.1457 20.0617C14.8309 21.0618 15.7632 21.7204 16.926 22.021L17.1763 21.0528ZM14.9718 19.4981C14.4139 18.6773 14.1355 17.7441 14.142 16.682L13.1421 16.6759C13.1344 17.9292 13.4668 19.0627 14.1447 20.0602L14.9718 19.4981ZM14.142 16.6758C14.1355 15.6592 14.3914 14.7655 14.9028 13.9793L14.0645 13.4341C13.4395 14.395 13.1344 15.4829 13.1421 16.6822L14.142 16.6758ZM14.9028 13.9793C15.4197 13.1846 16.132 12.5532 17.0536 12.0858L16.6013 11.194C15.5342 11.7352 14.684 12.4816 14.0645 13.4341L14.9028 13.9793ZM17.0523 12.0865C17.9747 11.622 19.0358 11.3835 20.2472 11.3835V10.3835C18.9017 10.3835 17.6829 10.6493 16.6025 11.1933L17.0523 12.0865ZM20.2472 11.3835C21.4434 11.3835 22.4934 11.6216 23.4088 12.0858L23.8611 11.194C22.7878 10.6497 21.5793 10.3835 20.2472 10.3835V11.3835ZM23.4088 12.0858C24.3303 12.5532 25.0427 13.1846 25.5595 13.9793L26.3978 13.4341C25.7783 12.4816 24.9282 11.7352 23.8611 11.194L23.4088 12.0858ZM25.5611 13.9817C26.08 14.7696 26.3458 15.6649 26.3523 16.6822L27.3523 16.6758C27.3446 15.4772 27.0279 14.3909 26.3963 13.4317L25.5611 13.9817ZM26.3523 16.6759C26.3458 17.7387 26.0575 18.6735 25.4921 19.4959L26.3161 20.0624C27.0007 19.0666 27.3446 17.9346 27.3523 16.682L26.3523 16.6759ZM25.4916 19.4965C24.939 20.3032 24.2181 20.8153 23.3156 21.0535L23.5708 22.0204C24.7137 21.7188 25.6334 21.059 26.3166 20.0617L25.4916 19.4965ZM22.9432 21.5369V21.6648H23.9432V21.5369H22.9432ZM23.3545 22.1568C24.0539 22.2829 24.6842 22.581 25.2517 23.0592L25.8961 22.2945C25.1993 21.7073 24.4091 21.3308 23.5318 21.1727L23.3545 22.1568ZM25.2542 23.0613C25.8273 23.5378 26.2882 24.1358 26.6354 24.8632L27.5379 24.4323C27.1323 23.5829 26.5846 22.867 25.8935 22.2924L25.2542 23.0613ZM26.6362 24.8648C26.9785 25.5752 27.1554 26.3541 27.1619 27.2084L28.1619 27.2007C28.1543 26.2084 27.9476 25.2827 27.5371 24.4307L26.6362 24.8648ZM27.1619 27.2015C27.1554 28.2864 26.8632 29.2391 26.2905 30.0755L27.1157 30.6404C27.8073 29.6302 28.1543 28.4807 28.1619 27.2076L27.1619 27.2015ZM26.2901 30.0762C25.7208 30.9108 24.9235 31.5764 23.8799 32.0683L24.3062 32.9729C25.4927 32.4136 26.4355 31.6375 27.1162 30.6397L26.2901 30.0762ZM23.8811 32.0677C22.8509 32.5498 21.6436 32.7983 20.2472 32.7983V33.7983C21.7626 33.7983 23.1192 33.5283 24.305 32.9735L23.8811 32.0677ZM20.2472 31.4545C21.287 31.4545 22.2119 31.2863 23.0075 30.9319L22.6005 30.0184C21.9614 30.3032 21.1817 30.4545 20.2472 30.4545V31.4545ZM23.0075 30.9319C23.8001 30.5787 24.432 30.0703 24.8812 29.4007L24.0507 28.8436C23.7186 29.3388 23.2425 29.7324 22.6005 30.0184L23.0075 30.9319ZM24.8812 29.4007C25.3323 28.7281 25.5546 27.9486 25.5625 27.0812L24.5625 27.0722C24.5562 27.7673 24.3808 28.3514 24.0507 28.8436L24.8812 29.4007ZM25.5625 27.0724C25.5546 26.1604 25.3172 25.3362 24.84 24.6165L24.0066 25.169C24.3675 25.7135 24.5562 26.3452 24.5625 27.081L25.5625 27.0724ZM24.84 24.6165C24.3694 23.9065 23.7289 23.3526 22.9317 22.9541L22.4845 23.8485C23.1362 24.1743 23.6391 24.6148 24.0066 25.169L24.84 24.6165ZM22.9335 22.955C22.1365 22.5525 21.237 22.358 20.2472 22.358V23.358C21.1039 23.358 21.845 23.5256 22.4827 23.8476L22.9335 22.955ZM20.2472 22.358C19.2506 22.358 18.342 22.5523 17.5324 22.9532L17.9761 23.8494C18.6296 23.5258 19.3829 23.358 20.2472 23.358V22.358ZM17.5307 22.9541C16.7335 23.3526 16.093 23.9065 15.6223 24.6165L16.4558 25.169C16.8232 24.6148 17.3262 24.1743 17.9779 23.8485L17.5307 22.9541ZM15.6202 24.6198C15.1496 25.3419 14.924 26.1682 14.9318 27.081L15.9318 27.0724C15.9255 26.3375 16.1047 25.7078 16.458 25.1657L15.6202 24.6198ZM14.9318 27.0722C14.9239 27.9403 15.1343 28.7221 15.5789 29.3972L16.414 28.8472C16.0916 28.3575 15.9255 27.7756 15.9318 27.0812L14.9318 27.0722ZM15.5812 29.4007C16.0312 30.0715 16.6676 30.5798 17.4672 30.9326L17.8709 30.0177C17.2216 29.7312 16.743 29.3375 16.4117 28.8436L15.5812 29.4007ZM17.4672 30.9326C18.2693 31.2865 19.2005 31.4545 20.2472 31.4545V30.4545C19.3051 30.4545 18.5177 30.303 17.8709 30.0177L17.4672 30.9326ZM20.2472 21.0994C21.0964 21.0994 21.8698 20.9291 22.5544 20.5747L22.0947 19.6866C21.572 19.9572 20.9604 20.0994 20.2472 20.0994V21.0994ZM22.5523 20.5758C23.2408 20.2236 23.7898 19.7254 24.1877 19.0839L23.3379 18.5568C23.0398 19.0374 22.6299 19.4128 22.0968 19.6856L22.5523 20.5758ZM24.1877 19.0839C24.5904 18.4346 24.7876 17.6854 24.7954 16.8541L23.7955 16.8447C23.7891 17.5191 23.6312 18.0839 23.3379 18.5568L24.1877 19.0839ZM24.7954 16.8446C24.7876 16.0278 24.594 15.2924 24.1977 14.6567L23.3491 15.1857C23.6347 15.6437 23.7891 16.1938 23.7955 16.8542L24.7954 16.8446ZM24.1993 14.6591C23.8073 14.0222 23.2629 13.5329 22.578 13.1945L22.135 14.091C22.6576 14.3492 23.0577 14.7122 23.3476 15.1832L24.1993 14.6591ZM22.5822 13.1966C21.8967 12.8498 21.1136 12.6847 20.2472 12.6847V13.6847C20.9858 13.6847 21.609 13.8249 22.1308 14.0889L22.5822 13.1966ZM20.2472 12.6847C19.3679 12.6847 18.5748 12.8493 17.8822 13.1955L18.3294 14.09C18.8585 13.8255 19.4929 13.6847 20.2472 13.6847V12.6847ZM17.8864 13.1935C17.1937 13.5318 16.6468 14.0223 16.2607 14.6631L17.1172 15.1792C17.3987 14.7121 17.7964 14.3503 18.3252 14.092L17.8864 13.1935ZM16.2621 14.6607C15.8725 15.299 15.691 16.0367 15.6989 16.8542L16.6988 16.8446C16.6925 16.1849 16.8377 15.6371 17.1157 15.1817L16.2621 14.6607ZM15.6989 16.8447C15.691 17.6768 15.8762 18.4281 16.2723 19.0799L17.1269 18.5607C16.8411 18.0904 16.6925 17.5278 16.6988 16.8541L15.6989 16.8447ZM16.2747 19.0839C16.6726 19.7254 17.2216 20.2236 17.91 20.5758L18.3655 19.6856C17.8324 19.4128 17.4226 19.0374 17.1245 18.5568L16.2747 19.0839ZM17.91 20.5758C18.6018 20.9297 19.3852 21.0994 20.2472 21.0994V20.0994C19.5182 20.0994 18.8954 19.9566 18.3655 19.6856L17.91 20.5758Z" fill="black"/>
</svg>
