<svg width="42" height="42" viewBox="0 0 42 42" fill="none" xmlns="http://www.w3.org/2000/svg">
<g opacity="0.1">
<rect x="1" y="1" width="40" height="40" rx="10" fill="#00FFC2"/>
<rect x="1" y="1" width="40" height="40" rx="10" stroke="#275F4B" stroke-linecap="round"/>
<rect x="1" y="1" width="40" height="40" rx="10" stroke="black" stroke-linecap="round"/>
</g>
<path d="M21.2045 10.8835C22.0994 10.8906 22.9943 11.0611 23.8892 11.3949C24.7841 11.7287 25.6009 12.2827 26.3395 13.0568C27.0781 13.8239 27.6712 14.8714 28.1186 16.1996C28.5661 17.5277 28.7898 19.1932 28.7898 21.196C28.7898 23.1349 28.6051 24.8572 28.2358 26.3629C27.8736 27.8615 27.348 29.1257 26.6591 30.1555C25.9773 31.1854 25.1463 31.9666 24.1662 32.4993C23.1932 33.032 22.0923 33.2983 20.8636 33.2983C19.642 33.2983 18.5518 33.0568 17.593 32.5739C16.6413 32.0838 15.8601 31.4055 15.2493 30.5391C14.6456 29.6655 14.2585 28.6534 14.0881 27.5028H16.6875C16.9219 28.5043 17.3871 29.3317 18.0831 29.9851C18.7862 30.6314 19.7131 30.9545 20.8636 30.9545C22.5469 30.9545 23.875 30.2195 24.848 28.7493C25.8281 27.2791 26.3182 25.2017 26.3182 22.517H26.1477C25.75 23.1136 25.2777 23.6286 24.7308 24.0618C24.1839 24.495 23.5767 24.8288 22.9091 25.0632C22.2415 25.2976 21.5313 25.4148 20.7784 25.4148C19.5284 25.4148 18.3814 25.1058 17.3374 24.4879C16.3004 23.8629 15.4695 23.0071 14.8445 21.9205C14.2266 20.8267 13.9176 19.5767 13.9176 18.1705C13.9176 16.8352 14.2159 15.6136 14.8125 14.5057C15.4162 13.3906 16.2614 12.5028 17.348 11.8423C18.4418 11.1818 19.7273 10.8622 21.2045 10.8835ZM21.2045 13.2273C20.3097 13.2273 19.5036 13.451 18.7862 13.8984C18.076 14.3388 17.5114 14.9354 17.0923 15.6882C16.6804 16.4339 16.4744 17.2614 16.4744 18.1705C16.4744 19.0795 16.6733 19.907 17.071 20.6527C17.4759 21.3913 18.0263 21.9808 18.7223 22.4212C19.4254 22.8544 20.2244 23.071 21.1193 23.071C21.794 23.071 22.4226 22.9396 23.005 22.6768C23.5874 22.407 24.0952 22.0412 24.5284 21.5795C24.9688 21.1108 25.3132 20.5817 25.5618 19.9922C25.8104 19.3956 25.9347 18.7741 25.9347 18.1278C25.9347 17.2756 25.7287 16.4766 25.3168 15.7308C24.9119 14.9851 24.3509 14.3814 23.6335 13.9197C22.9233 13.4581 22.1136 13.2273 21.2045 13.2273Z" fill="black"/>
<path d="M21.2045 10.8835L21.1973 11.3835L21.2006 11.3835L21.2045 10.8835ZM23.8892 11.3949L24.064 10.9264L24.064 10.9264L23.8892 11.3949ZM26.3395 13.0568L25.9777 13.402L25.9793 13.4036L26.3395 13.0568ZM28.1186 16.1996L27.6448 16.3592L28.1186 16.1996ZM28.2358 26.3629L27.7502 26.2438L27.7498 26.2455L28.2358 26.3629ZM26.6591 30.1555L26.2435 29.8775L26.2422 29.8795L26.6591 30.1555ZM24.1662 32.4993L23.9274 32.06L23.9261 32.0607L24.1662 32.4993ZM17.593 32.5739L17.3641 33.0184L17.3681 33.0204L17.593 32.5739ZM15.2493 30.5391L14.8379 30.8233L14.8406 30.8271L15.2493 30.5391ZM14.0881 27.5028V27.0028H13.5085L13.5935 27.5761L14.0881 27.5028ZM16.6875 27.5028L17.1743 27.3889L17.084 27.0028H16.6875V27.5028ZM18.0831 29.9851L17.7409 30.3496L17.7447 30.3532L18.0831 29.9851ZM24.848 28.7493L24.432 28.4719L24.4311 28.4733L24.848 28.7493ZM26.3182 22.517H26.8182V22.017H26.3182V22.517ZM26.1477 22.517V22.017H25.8801L25.7317 22.2397L26.1477 22.517ZM17.3374 24.4879L17.0792 24.9162L17.0827 24.9182L17.3374 24.4879ZM14.8445 21.9205L14.4091 22.1664L14.411 22.1697L14.8445 21.9205ZM14.8125 14.5057L14.3728 14.2676L14.3723 14.2686L14.8125 14.5057ZM17.348 11.8423L17.0895 11.4143L17.0883 11.4151L17.348 11.8423ZM18.7862 13.8984L19.0497 14.3234L19.0508 14.3227L18.7862 13.8984ZM17.0923 15.6882L16.6554 15.445L16.6547 15.4465L17.0923 15.6882ZM17.071 20.6527L16.6298 20.888L16.6326 20.893L17.071 20.6527ZM18.7223 22.4212L18.455 22.8437L18.46 22.8468L18.7223 22.4212ZM23.005 22.6768L23.2106 23.1326L23.2152 23.1305L23.005 22.6768ZM24.5284 21.5795L24.164 21.2372L24.1638 21.2374L24.5284 21.5795ZM25.5618 19.9922L26.0225 20.1865L26.0233 20.1845L25.5618 19.9922ZM25.3168 15.7308L24.8773 15.9694L24.8791 15.9726L25.3168 15.7308ZM23.6335 13.9197L23.361 14.339L23.3629 14.3402L23.6335 13.9197ZM21.2006 11.3835C22.0333 11.3901 22.8705 11.5486 23.7145 11.8634L24.064 10.9264C23.1181 10.5736 22.1656 10.3911 21.2085 10.3835L21.2006 11.3835ZM23.7145 11.8634C24.5304 12.1677 25.285 12.6759 25.9777 13.402L26.7012 12.7117C25.9167 11.8894 25.0378 11.2897 24.064 10.9264L23.7145 11.8634ZM25.9793 13.4036C26.6532 14.1034 27.2138 15.0799 27.6448 16.3592L28.5924 16.0399C28.1285 14.663 27.5031 13.5443 26.6996 12.71L25.9793 13.4036ZM27.6448 16.3592C28.0692 17.619 28.2898 19.2262 28.2898 21.196H29.2898C29.2898 19.1602 29.0629 17.4364 28.5924 16.0399L27.6448 16.3592ZM28.2898 21.196C28.2898 23.1043 28.1079 24.7854 27.7502 26.2438L28.7214 26.482C29.1023 24.9291 29.2898 23.1655 29.2898 21.196H28.2898ZM27.7498 26.2455C27.3982 27.7002 26.8928 28.907 26.2435 29.8775L27.0747 30.4335C27.8032 29.3445 28.349 28.0228 28.7218 26.4804L27.7498 26.2455ZM26.2422 29.8795C25.6006 30.8486 24.8283 31.5704 23.9274 32.06L24.405 32.9386C25.4644 32.3628 26.354 31.5221 27.076 30.4316L26.2422 29.8795ZM23.9261 32.0607C23.0344 32.5489 22.0176 32.7983 20.8636 32.7983V33.7983C22.167 33.7983 23.352 33.515 24.4063 32.9379L23.9261 32.0607ZM20.8636 32.7983C19.7093 32.7983 18.6979 32.5706 17.818 32.1273L17.3681 33.0204C18.4058 33.5431 19.5748 33.7983 20.8636 33.7983V32.7983ZM17.8219 32.1293C16.9412 31.6758 16.2218 31.0509 15.658 30.251L14.8406 30.8271C15.4983 31.7602 16.3415 32.4918 17.3641 33.0184L17.8219 32.1293ZM15.6606 30.2548C15.1045 29.4501 14.743 28.5117 14.5827 27.4296L13.5935 27.5761C13.7741 28.7951 14.1867 29.8809 14.838 30.8233L15.6606 30.2548ZM14.0881 28.0028H16.6875V27.0028H14.0881V28.0028ZM16.2007 27.6168C16.4557 28.7064 16.9674 29.6235 17.7409 30.3496L18.4253 29.6205C17.8067 29.0399 17.3881 28.3021 17.1743 27.3889L16.2007 27.6168ZM17.7447 30.3532C18.5583 31.101 19.6148 31.4545 20.8636 31.4545V30.4545C19.8113 30.4545 19.0141 30.1618 18.4215 29.617L17.7447 30.3532ZM20.8636 31.4545C22.7239 31.4545 24.2046 30.6274 25.265 29.0252L24.4311 28.4733C23.5454 29.8115 22.3698 30.4545 20.8636 30.4545V31.4545ZM25.264 29.0266C26.3205 27.4419 26.8182 25.2526 26.8182 22.517H25.8182C25.8182 25.1509 25.3358 27.1163 24.432 28.4719L25.264 29.0266ZM26.3182 22.017H26.1477V23.017H26.3182V22.017ZM25.7317 22.2397C25.3621 22.794 24.9251 23.27 24.4203 23.6699L25.0413 24.4537C25.6303 23.9871 26.1379 23.4332 26.5638 22.7944L25.7317 22.2397ZM24.4203 23.6699C23.9176 24.0681 23.3595 24.3752 22.7435 24.5914L23.0747 25.535C23.794 25.2825 24.4503 24.9219 25.0413 24.4537L24.4203 23.6699ZM22.7435 24.5914C22.1324 24.806 21.4785 24.9148 20.7784 24.9148V25.9148C21.584 25.9148 22.3506 25.7892 23.0747 25.535L22.7435 24.5914ZM20.7784 24.9148C19.6152 24.9148 18.5565 24.6285 17.592 24.0576L17.0827 24.9182C18.2063 25.5832 19.4417 25.9148 20.7784 25.9148V24.9148ZM17.5955 24.0597C16.6338 23.4801 15.8621 22.687 15.2779 21.6712L14.411 22.1697C15.0768 23.3272 15.967 24.2458 17.0792 24.9162L17.5955 24.0597ZM15.2798 21.6745C14.7092 20.6644 14.4176 19.501 14.4176 18.1705H13.4176C13.4176 19.6524 13.744 20.989 14.4091 22.1664L15.2798 21.6745ZM14.4176 18.1705C14.4176 16.9128 14.6978 15.7734 15.2527 14.7427L14.3723 14.2686C13.734 15.4539 13.4176 16.7577 13.4176 18.1705H14.4176ZM15.2522 14.7437C15.8136 13.7068 16.5965 12.8842 17.6077 12.2696L17.0883 11.4151C15.9262 12.1215 15.0188 13.0744 14.3728 14.2676L15.2522 14.7437ZM17.6065 12.2703C18.6083 11.6654 19.7987 11.3633 21.1973 11.3835L21.2118 10.3836C19.6558 10.3611 18.2752 10.6983 17.0895 11.4143L17.6065 12.2703ZM21.2045 12.7273C20.2218 12.7273 19.323 12.9743 18.5216 13.4742L19.0508 14.3227C19.6841 13.9277 20.3975 13.7273 21.2045 13.7273V12.7273ZM18.5228 13.4735C17.7379 13.9601 17.1145 14.6202 16.6554 15.445L17.5292 15.9314C17.9082 15.2505 18.4141 14.7175 19.0497 14.3234L18.5228 13.4735ZM16.6547 15.4465C16.1991 16.2712 15.9744 17.1827 15.9744 18.1705H16.9744C16.9744 17.3401 17.1617 16.5967 17.53 15.93L16.6547 15.4465ZM15.9744 18.1705C15.9744 19.1552 16.1906 20.0644 16.6298 20.888L17.5122 20.4174C17.156 19.7495 16.9744 19.0038 16.9744 18.1705H15.9744ZM16.6326 20.893C17.0771 21.7041 17.6857 22.357 18.455 22.8437L18.9896 21.9986C18.3668 21.6046 17.8746 21.0785 17.5095 20.4124L16.6326 20.893ZM18.46 22.8468C19.2486 23.3327 20.1398 23.571 21.1193 23.571V22.571C20.309 22.571 19.6023 22.3761 18.9846 21.9955L18.46 22.8468ZM21.1193 23.571C21.8609 23.571 22.56 23.4262 23.2106 23.1326L22.7993 22.2211C22.2852 22.4531 21.7272 22.571 21.1193 22.571V23.571ZM23.2152 23.1305C23.8549 22.8341 24.4153 22.4307 24.893 21.9217L24.1638 21.2374C23.775 21.6517 23.3198 21.9799 22.7947 22.2232L23.2152 23.1305ZM24.8928 21.9219C25.3736 21.4101 25.7507 20.8309 26.0225 20.1865L25.1011 19.7979C24.8757 20.3324 24.5639 20.8115 24.164 21.2372L24.8928 21.9219ZM26.0233 20.1845C26.2973 19.527 26.4347 18.8402 26.4347 18.1278H25.4347C25.4347 18.7081 25.3234 19.2642 25.1003 19.7999L26.0233 20.1845ZM26.4347 18.1278C26.4347 17.191 26.2073 16.3089 25.7544 15.4891L24.8791 15.9726C25.2501 16.6443 25.4347 17.3601 25.4347 18.1278H26.4347ZM25.7562 15.4923C25.311 14.6723 24.6917 14.0062 23.9041 13.4993L23.3629 14.3402C24.01 14.7566 24.5128 15.2979 24.8773 15.9694L25.7562 15.4923ZM23.906 13.5005C23.1087 12.9823 22.203 12.7273 21.2045 12.7273V13.7273C22.0243 13.7273 22.7379 13.9339 23.361 14.339L23.906 13.5005Z" fill="#275F4B"/>
<path d="M21.2045 10.8835L21.1973 11.3835L21.2006 11.3835L21.2045 10.8835ZM23.8892 11.3949L24.064 10.9264L24.064 10.9264L23.8892 11.3949ZM26.3395 13.0568L25.9777 13.402L25.9793 13.4036L26.3395 13.0568ZM28.1186 16.1996L27.6448 16.3592L28.1186 16.1996ZM28.2358 26.3629L27.7502 26.2438L27.7498 26.2455L28.2358 26.3629ZM26.6591 30.1555L26.2435 29.8775L26.2422 29.8795L26.6591 30.1555ZM24.1662 32.4993L23.9274 32.06L23.9261 32.0607L24.1662 32.4993ZM17.593 32.5739L17.3641 33.0184L17.3681 33.0204L17.593 32.5739ZM15.2493 30.5391L14.8379 30.8233L14.8406 30.8271L15.2493 30.5391ZM14.0881 27.5028V27.0028H13.5085L13.5935 27.5761L14.0881 27.5028ZM16.6875 27.5028L17.1743 27.3889L17.084 27.0028H16.6875V27.5028ZM18.0831 29.9851L17.7409 30.3496L17.7447 30.3532L18.0831 29.9851ZM24.848 28.7493L24.432 28.4719L24.4311 28.4733L24.848 28.7493ZM26.3182 22.517H26.8182V22.017H26.3182V22.517ZM26.1477 22.517V22.017H25.8801L25.7317 22.2397L26.1477 22.517ZM17.3374 24.4879L17.0792 24.9162L17.0827 24.9182L17.3374 24.4879ZM14.8445 21.9205L14.4091 22.1664L14.411 22.1697L14.8445 21.9205ZM14.8125 14.5057L14.3728 14.2676L14.3723 14.2686L14.8125 14.5057ZM17.348 11.8423L17.0895 11.4143L17.0883 11.4151L17.348 11.8423ZM18.7862 13.8984L19.0497 14.3234L19.0508 14.3227L18.7862 13.8984ZM17.0923 15.6882L16.6554 15.445L16.6547 15.4465L17.0923 15.6882ZM17.071 20.6527L16.6298 20.888L16.6326 20.893L17.071 20.6527ZM18.7223 22.4212L18.455 22.8437L18.46 22.8468L18.7223 22.4212ZM23.005 22.6768L23.2106 23.1326L23.2152 23.1305L23.005 22.6768ZM24.5284 21.5795L24.164 21.2372L24.1638 21.2374L24.5284 21.5795ZM25.5618 19.9922L26.0225 20.1865L26.0233 20.1845L25.5618 19.9922ZM25.3168 15.7308L24.8773 15.9694L24.8791 15.9726L25.3168 15.7308ZM23.6335 13.9197L23.361 14.339L23.3629 14.3402L23.6335 13.9197ZM21.2006 11.3835C22.0333 11.3901 22.8705 11.5486 23.7145 11.8634L24.064 10.9264C23.1181 10.5736 22.1656 10.3911 21.2085 10.3835L21.2006 11.3835ZM23.7145 11.8634C24.5304 12.1677 25.285 12.6759 25.9777 13.402L26.7012 12.7117C25.9167 11.8894 25.0378 11.2897 24.064 10.9264L23.7145 11.8634ZM25.9793 13.4036C26.6532 14.1034 27.2138 15.0799 27.6448 16.3592L28.5924 16.0399C28.1285 14.663 27.5031 13.5443 26.6996 12.71L25.9793 13.4036ZM27.6448 16.3592C28.0692 17.619 28.2898 19.2262 28.2898 21.196H29.2898C29.2898 19.1602 29.0629 17.4364 28.5924 16.0399L27.6448 16.3592ZM28.2898 21.196C28.2898 23.1043 28.1079 24.7854 27.7502 26.2438L28.7214 26.482C29.1023 24.9291 29.2898 23.1655 29.2898 21.196H28.2898ZM27.7498 26.2455C27.3982 27.7002 26.8928 28.907 26.2435 29.8775L27.0747 30.4335C27.8032 29.3445 28.349 28.0228 28.7218 26.4804L27.7498 26.2455ZM26.2422 29.8795C25.6006 30.8486 24.8283 31.5704 23.9274 32.06L24.405 32.9386C25.4644 32.3628 26.354 31.5221 27.076 30.4316L26.2422 29.8795ZM23.9261 32.0607C23.0344 32.5489 22.0176 32.7983 20.8636 32.7983V33.7983C22.167 33.7983 23.352 33.515 24.4063 32.9379L23.9261 32.0607ZM20.8636 32.7983C19.7093 32.7983 18.6979 32.5706 17.818 32.1273L17.3681 33.0204C18.4058 33.5431 19.5748 33.7983 20.8636 33.7983V32.7983ZM17.8219 32.1293C16.9412 31.6758 16.2218 31.0509 15.658 30.251L14.8406 30.8271C15.4983 31.7602 16.3415 32.4918 17.3641 33.0184L17.8219 32.1293ZM15.6606 30.2548C15.1045 29.4501 14.743 28.5117 14.5827 27.4296L13.5935 27.5761C13.7741 28.7951 14.1867 29.8809 14.838 30.8233L15.6606 30.2548ZM14.0881 28.0028H16.6875V27.0028H14.0881V28.0028ZM16.2007 27.6168C16.4557 28.7064 16.9674 29.6235 17.7409 30.3496L18.4253 29.6205C17.8067 29.0399 17.3881 28.3021 17.1743 27.3889L16.2007 27.6168ZM17.7447 30.3532C18.5583 31.101 19.6148 31.4545 20.8636 31.4545V30.4545C19.8113 30.4545 19.0141 30.1618 18.4215 29.617L17.7447 30.3532ZM20.8636 31.4545C22.7239 31.4545 24.2046 30.6274 25.265 29.0252L24.4311 28.4733C23.5454 29.8115 22.3698 30.4545 20.8636 30.4545V31.4545ZM25.264 29.0266C26.3205 27.4419 26.8182 25.2526 26.8182 22.517H25.8182C25.8182 25.1509 25.3358 27.1163 24.432 28.4719L25.264 29.0266ZM26.3182 22.017H26.1477V23.017H26.3182V22.017ZM25.7317 22.2397C25.3621 22.794 24.9251 23.27 24.4203 23.6699L25.0413 24.4537C25.6303 23.9871 26.1379 23.4332 26.5638 22.7944L25.7317 22.2397ZM24.4203 23.6699C23.9176 24.0681 23.3595 24.3752 22.7435 24.5914L23.0747 25.535C23.794 25.2825 24.4503 24.9219 25.0413 24.4537L24.4203 23.6699ZM22.7435 24.5914C22.1324 24.806 21.4785 24.9148 20.7784 24.9148V25.9148C21.584 25.9148 22.3506 25.7892 23.0747 25.535L22.7435 24.5914ZM20.7784 24.9148C19.6152 24.9148 18.5565 24.6285 17.592 24.0576L17.0827 24.9182C18.2063 25.5832 19.4417 25.9148 20.7784 25.9148V24.9148ZM17.5955 24.0597C16.6338 23.4801 15.8621 22.687 15.2779 21.6712L14.411 22.1697C15.0768 23.3272 15.967 24.2458 17.0792 24.9162L17.5955 24.0597ZM15.2798 21.6745C14.7092 20.6644 14.4176 19.501 14.4176 18.1705H13.4176C13.4176 19.6524 13.744 20.989 14.4091 22.1664L15.2798 21.6745ZM14.4176 18.1705C14.4176 16.9128 14.6978 15.7734 15.2527 14.7427L14.3723 14.2686C13.734 15.4539 13.4176 16.7577 13.4176 18.1705H14.4176ZM15.2522 14.7437C15.8136 13.7068 16.5965 12.8842 17.6077 12.2696L17.0883 11.4151C15.9262 12.1215 15.0188 13.0744 14.3728 14.2676L15.2522 14.7437ZM17.6065 12.2703C18.6083 11.6654 19.7987 11.3633 21.1973 11.3835L21.2118 10.3836C19.6558 10.3611 18.2752 10.6983 17.0895 11.4143L17.6065 12.2703ZM21.2045 12.7273C20.2218 12.7273 19.323 12.9743 18.5216 13.4742L19.0508 14.3227C19.6841 13.9277 20.3975 13.7273 21.2045 13.7273V12.7273ZM18.5228 13.4735C17.7379 13.9601 17.1145 14.6202 16.6554 15.445L17.5292 15.9314C17.9082 15.2505 18.4141 14.7175 19.0497 14.3234L18.5228 13.4735ZM16.6547 15.4465C16.1991 16.2712 15.9744 17.1827 15.9744 18.1705H16.9744C16.9744 17.3401 17.1617 16.5967 17.53 15.93L16.6547 15.4465ZM15.9744 18.1705C15.9744 19.1552 16.1906 20.0644 16.6298 20.888L17.5122 20.4174C17.156 19.7495 16.9744 19.0038 16.9744 18.1705H15.9744ZM16.6326 20.893C17.0771 21.7041 17.6857 22.357 18.455 22.8437L18.9896 21.9986C18.3668 21.6046 17.8746 21.0785 17.5095 20.4124L16.6326 20.893ZM18.46 22.8468C19.2486 23.3327 20.1398 23.571 21.1193 23.571V22.571C20.309 22.571 19.6023 22.3761 18.9846 21.9955L18.46 22.8468ZM21.1193 23.571C21.8609 23.571 22.56 23.4262 23.2106 23.1326L22.7993 22.2211C22.2852 22.4531 21.7272 22.571 21.1193 22.571V23.571ZM23.2152 23.1305C23.8549 22.8341 24.4153 22.4307 24.893 21.9217L24.1638 21.2374C23.775 21.6517 23.3198 21.9799 22.7947 22.2232L23.2152 23.1305ZM24.8928 21.9219C25.3736 21.4101 25.7507 20.8309 26.0225 20.1865L25.1011 19.7979C24.8757 20.3324 24.5639 20.8115 24.164 21.2372L24.8928 21.9219ZM26.0233 20.1845C26.2973 19.527 26.4347 18.8402 26.4347 18.1278H25.4347C25.4347 18.7081 25.3234 19.2642 25.1003 19.7999L26.0233 20.1845ZM26.4347 18.1278C26.4347 17.191 26.2073 16.3089 25.7544 15.4891L24.8791 15.9726C25.2501 16.6443 25.4347 17.3601 25.4347 18.1278H26.4347ZM25.7562 15.4923C25.311 14.6723 24.6917 14.0062 23.9041 13.4993L23.3629 14.3402C24.01 14.7566 24.5128 15.2979 24.8773 15.9694L25.7562 15.4923ZM23.906 13.5005C23.1087 12.9823 22.203 12.7273 21.2045 12.7273V13.7273C22.0243 13.7273 22.7379 13.9339 23.361 14.339L23.906 13.5005Z" fill="black"/>
</svg>
