<svg width="42" height="42" viewBox="0 0 42 42" fill="none" xmlns="http://www.w3.org/2000/svg">
<rect x="1" y="1" width="40" height="40" rx="11" fill="white" fill-opacity="0.72"/>
<rect x="1" y="1" width="40" height="40" rx="11" stroke="#275F4B" stroke-linecap="round"/>
<rect x="1" y="1" width="40" height="40" rx="11" stroke="black" stroke-linecap="round"/>
<path d="M30.1989 17H27.5568C27.4006 16.2401 27.1271 15.5724 26.7365 14.9972C26.353 14.4219 25.8842 13.9389 25.3303 13.5483C24.7834 13.1506 24.1761 12.8523 23.5085 12.6534C22.8409 12.4545 22.1449 12.3551 21.4205 12.3551C20.0994 12.3551 18.9027 12.6889 17.8303 13.3565C16.7649 14.0241 15.9162 15.0078 15.2841 16.3075C14.6591 17.6072 14.3466 19.2017 14.3466 21.0909C14.3466 22.9801 14.6591 24.5746 15.2841 25.8743C15.9162 27.174 16.7649 28.1577 17.8303 28.8253C18.9027 29.4929 20.0994 29.8267 21.4205 29.8267C22.1449 29.8267 22.8409 29.7273 23.5085 29.5284C24.1761 29.3295 24.7834 29.0348 25.3303 28.6442C25.8842 28.2464 26.353 27.7599 26.7365 27.1847C27.1271 26.6023 27.4006 25.9347 27.5568 25.1818H30.1989C30 26.2969 29.6378 27.2947 29.1122 28.1754C28.5866 29.0561 27.9332 29.8054 27.152 30.4233C26.3707 31.0341 25.4936 31.4993 24.5206 31.8189C23.5547 32.1385 22.5213 32.2983 21.4205 32.2983C19.5597 32.2983 17.9048 31.8438 16.456 30.9347C15.0071 30.0256 13.8672 28.733 13.0362 27.0568C12.2053 25.3807 11.7898 23.392 11.7898 21.0909C11.7898 18.7898 12.2053 16.8011 13.0362 15.125C13.8672 13.4489 15.0071 12.1562 16.456 11.2472C17.9048 10.3381 19.5597 9.88352 21.4205 9.88352C22.5213 9.88352 23.5547 10.0433 24.5206 10.3629C25.4936 10.6825 26.3707 11.1513 27.152 11.7692C27.9332 12.38 28.5866 13.1257 29.1122 14.0064C29.6378 14.88 30 15.8778 30.1989 17Z" fill="#275F4B"/>
<path d="M30.1989 17V17.5H30.7953L30.6912 16.9128L30.1989 17ZM27.5568 17L27.0671 17.1007L27.1492 17.5H27.5568V17ZM26.7365 14.9972L26.3205 15.2745L26.3229 15.278L26.7365 14.9972ZM25.3303 13.5483L25.0361 13.9527L25.0421 13.9569L25.3303 13.5483ZM23.5085 12.6534L23.3658 13.1326L23.3658 13.1326L23.5085 12.6534ZM17.8303 13.3565L17.566 12.9321L17.5647 12.9329L17.8303 13.3565ZM15.2841 16.3075L14.8344 16.0888L14.8335 16.0908L15.2841 16.3075ZM15.2841 25.8743L14.8335 26.091L14.8344 26.093L15.2841 25.8743ZM17.8303 28.8253L17.5647 29.249L17.566 29.2498L17.8303 28.8253ZM23.5085 29.5284L23.3658 29.0492L23.3658 29.0492L23.5085 29.5284ZM25.3303 28.6442L25.6209 29.051L25.6219 29.0503L25.3303 28.6442ZM26.7365 27.1847L26.3213 26.9061L26.3205 26.9073L26.7365 27.1847ZM27.5568 25.1818V24.6818H27.1499L27.0673 25.0802L27.5568 25.1818ZM30.1989 25.1818L30.6911 25.2696L30.7959 24.6818H30.1989V25.1818ZM29.1122 28.1754L28.6829 27.9192L28.6829 27.9192L29.1122 28.1754ZM27.152 30.4233L27.46 30.8172L27.4622 30.8155L27.152 30.4233ZM24.5206 31.8189L24.3646 31.3439L24.3635 31.3442L24.5206 31.8189ZM16.456 30.9347L16.1902 31.3582L16.1902 31.3582L16.456 30.9347ZM13.0362 27.0568L13.4842 26.8347L13.4842 26.8347L13.0362 27.0568ZM13.0362 15.125L12.5883 14.9029L13.0362 15.125ZM24.5206 10.3629L24.3635 10.8376L24.3646 10.838L24.5206 10.3629ZM27.152 11.7692L26.8418 12.1613L26.844 12.1631L27.152 11.7692ZM29.1122 14.0064L28.6829 14.2626L28.6838 14.2642L29.1122 14.0064ZM30.1989 16.5H27.5568V17.5H30.1989V16.5ZM28.0466 16.8993C27.8786 16.0823 27.5818 15.352 27.1502 14.7163L26.3229 15.278C26.6724 15.7929 26.9225 16.3978 27.0671 17.1007L28.0466 16.8993ZM27.1525 14.7198C26.7355 14.0943 26.2237 13.5665 25.6184 13.1397L25.0421 13.9569C25.5447 14.3113 25.9704 14.7494 26.3205 15.2745L27.1525 14.7198ZM25.6243 13.1439C25.0302 12.7119 24.3715 12.3888 23.6513 12.1742L23.3658 13.1326C23.9807 13.3158 24.5365 13.5893 25.0362 13.9527L25.6243 13.1439ZM23.6513 12.1742C22.9355 11.961 22.1913 11.8551 21.4205 11.8551V12.8551C22.0985 12.8551 22.7463 12.9481 23.3658 13.1326L23.6513 12.1742ZM21.4205 11.8551C20.0105 11.8551 18.7215 12.2128 17.566 12.9321L18.0945 13.781C19.0839 13.1651 20.1884 12.8551 21.4205 12.8551V11.8551ZM17.5647 12.9329C16.4087 13.6573 15.5013 14.7178 14.8344 16.0888L15.7337 16.5262C16.3311 15.2979 17.1211 14.391 18.0958 13.7802L17.5647 12.9329ZM14.8335 16.0908C14.1675 17.4757 13.8466 19.149 13.8466 21.0909H14.8466C14.8466 19.2544 15.1507 17.7387 15.7347 16.5242L14.8335 16.0908ZM13.8466 21.0909C13.8466 23.0328 14.1675 24.7061 14.8335 26.091L15.7347 25.6576C15.1507 24.4431 14.8466 22.9274 14.8466 21.0909H13.8466ZM14.8344 26.093C15.5013 27.464 16.4087 28.5245 17.5647 29.249L18.0958 28.4016C17.1211 27.7908 16.3311 26.884 15.7337 25.6556L14.8344 26.093ZM17.566 29.2498C18.7215 29.969 20.0105 30.3267 21.4205 30.3267V29.3267C20.1884 29.3267 19.0839 29.0167 18.0945 28.4008L17.566 29.2498ZM21.4205 30.3267C22.1913 30.3267 22.9355 30.2208 23.6513 30.0076L23.3658 29.0492C22.7463 29.2337 22.0985 29.3267 21.4205 29.3267V30.3267ZM23.6513 30.0076C24.3699 29.7935 25.0274 29.4749 25.6209 29.051L25.0396 28.2373C24.5394 28.5947 23.9824 28.8655 23.3658 29.0492L23.6513 30.0076ZM25.6219 29.0503C26.2254 28.617 26.7361 28.0867 27.1525 27.462L26.3205 26.9073C25.9699 27.4332 25.5431 27.8759 25.0387 28.238L25.6219 29.0503ZM27.1518 27.4632C27.5817 26.8222 27.8783 26.0934 28.0464 25.2834L27.0673 25.0802C26.9229 25.776 26.6726 26.3823 26.3213 26.9061L27.1518 27.4632ZM27.5568 25.6818H30.1989V24.6818H27.5568V25.6818ZM29.7066 25.094C29.5173 26.1558 29.1744 27.0955 28.6829 27.9192L29.5416 28.4317C30.1012 27.4939 30.4827 26.4379 30.6911 25.2696L29.7066 25.094ZM28.6829 27.9192C28.1875 28.7493 27.574 29.452 26.8418 30.0311L27.4622 30.8155C28.2925 30.1588 28.9858 29.3629 29.5416 28.4317L28.6829 27.9192ZM26.844 30.0294C26.1098 30.6034 25.2844 31.0417 24.3646 31.3439L24.6766 32.2939C25.7028 31.9569 26.6316 31.4648 27.46 30.8172L26.844 30.0294ZM24.3635 31.3442C23.4523 31.6457 22.4723 31.7983 21.4205 31.7983V32.7983C22.5703 32.7983 23.6571 32.6313 24.6777 32.2936L24.3635 31.3442ZM21.4205 31.7983C19.6451 31.7983 18.084 31.3659 16.7217 30.5111L16.1902 31.3582C17.7257 32.3216 19.4742 32.7983 21.4205 32.7983V31.7983ZM16.7217 30.5111C15.3583 29.6556 14.2781 28.4362 13.4842 26.8347L12.5883 27.2789C13.4562 29.0297 14.6559 30.3955 16.1902 31.3582L16.7217 30.5111ZM13.4842 26.8347C12.6944 25.2417 12.2898 23.3324 12.2898 21.0909H11.2898C11.2898 23.4517 11.7161 25.5197 12.5883 27.2789L13.4842 26.8347ZM12.2898 21.0909C12.2898 18.8494 12.6944 16.9401 13.4842 15.3471L12.5883 14.9029C11.7161 16.6621 11.2898 18.7301 11.2898 21.0909H12.2898ZM13.4842 15.3471C14.2781 13.7456 15.3583 12.5262 16.7217 11.6707L16.1902 10.8236C14.6559 11.7863 13.4562 13.1521 12.5883 14.9029L13.4842 15.3471ZM16.7217 11.6707C18.084 10.8159 19.6451 10.3835 21.4205 10.3835V9.38352C19.4742 9.38352 17.7257 9.8602 16.1902 10.8236L16.7217 11.6707ZM21.4205 10.3835C22.4723 10.3835 23.4523 10.5361 24.3635 10.8376L24.6777 9.88824C23.6571 9.55055 22.5703 9.38352 21.4205 9.38352V10.3835ZM24.3646 10.838C25.2833 11.1397 26.108 11.5809 26.8418 12.1613L27.4622 11.377C26.6335 10.7216 25.7039 10.2253 24.6766 9.8879L24.3646 10.838ZM26.844 12.1631C27.575 12.7346 28.1878 13.4331 28.6829 14.2626L29.5416 13.7502C28.9855 12.8183 28.2915 12.0254 27.46 11.3753L26.844 12.1631ZM28.6838 14.2642C29.1743 15.0795 29.5171 16.0183 29.7065 17.0872L30.6912 16.9128C30.4829 15.7374 30.1013 14.6805 29.5407 13.7486L28.6838 14.2642Z" fill="#275F4B"/>
<path d="M30.1989 17V17.5H30.7953L30.6912 16.9128L30.1989 17ZM27.5568 17L27.0671 17.1007L27.1492 17.5H27.5568V17ZM26.7365 14.9972L26.3205 15.2745L26.3229 15.278L26.7365 14.9972ZM25.3303 13.5483L25.0361 13.9527L25.0421 13.9569L25.3303 13.5483ZM23.5085 12.6534L23.3658 13.1326L23.3658 13.1326L23.5085 12.6534ZM17.8303 13.3565L17.566 12.9321L17.5647 12.9329L17.8303 13.3565ZM15.2841 16.3075L14.8344 16.0888L14.8335 16.0908L15.2841 16.3075ZM15.2841 25.8743L14.8335 26.091L14.8344 26.093L15.2841 25.8743ZM17.8303 28.8253L17.5647 29.249L17.566 29.2498L17.8303 28.8253ZM23.5085 29.5284L23.3658 29.0492L23.3658 29.0492L23.5085 29.5284ZM25.3303 28.6442L25.6209 29.051L25.6219 29.0503L25.3303 28.6442ZM26.7365 27.1847L26.3213 26.9061L26.3205 26.9073L26.7365 27.1847ZM27.5568 25.1818V24.6818H27.1499L27.0673 25.0802L27.5568 25.1818ZM30.1989 25.1818L30.6911 25.2696L30.7959 24.6818H30.1989V25.1818ZM29.1122 28.1754L28.6829 27.9192L28.6829 27.9192L29.1122 28.1754ZM27.152 30.4233L27.46 30.8172L27.4622 30.8155L27.152 30.4233ZM24.5206 31.8189L24.3646 31.3439L24.3635 31.3442L24.5206 31.8189ZM16.456 30.9347L16.1902 31.3582L16.1902 31.3582L16.456 30.9347ZM13.0362 27.0568L13.4842 26.8347L13.4842 26.8347L13.0362 27.0568ZM13.0362 15.125L12.5883 14.9029L13.0362 15.125ZM24.5206 10.3629L24.3635 10.8376L24.3646 10.838L24.5206 10.3629ZM27.152 11.7692L26.8418 12.1613L26.844 12.1631L27.152 11.7692ZM29.1122 14.0064L28.6829 14.2626L28.6838 14.2642L29.1122 14.0064ZM30.1989 16.5H27.5568V17.5H30.1989V16.5ZM28.0466 16.8993C27.8786 16.0823 27.5818 15.352 27.1502 14.7163L26.3229 15.278C26.6724 15.7929 26.9225 16.3978 27.0671 17.1007L28.0466 16.8993ZM27.1525 14.7198C26.7355 14.0943 26.2237 13.5665 25.6184 13.1397L25.0421 13.9569C25.5447 14.3113 25.9704 14.7494 26.3205 15.2745L27.1525 14.7198ZM25.6243 13.1439C25.0302 12.7119 24.3715 12.3888 23.6513 12.1742L23.3658 13.1326C23.9807 13.3158 24.5365 13.5893 25.0362 13.9527L25.6243 13.1439ZM23.6513 12.1742C22.9355 11.961 22.1913 11.8551 21.4205 11.8551V12.8551C22.0985 12.8551 22.7463 12.9481 23.3658 13.1326L23.6513 12.1742ZM21.4205 11.8551C20.0105 11.8551 18.7215 12.2128 17.566 12.9321L18.0945 13.781C19.0839 13.1651 20.1884 12.8551 21.4205 12.8551V11.8551ZM17.5647 12.9329C16.4087 13.6573 15.5013 14.7178 14.8344 16.0888L15.7337 16.5262C16.3311 15.2979 17.1211 14.391 18.0958 13.7802L17.5647 12.9329ZM14.8335 16.0908C14.1675 17.4757 13.8466 19.149 13.8466 21.0909H14.8466C14.8466 19.2544 15.1507 17.7387 15.7347 16.5242L14.8335 16.0908ZM13.8466 21.0909C13.8466 23.0328 14.1675 24.7061 14.8335 26.091L15.7347 25.6576C15.1507 24.4431 14.8466 22.9274 14.8466 21.0909H13.8466ZM14.8344 26.093C15.5013 27.464 16.4087 28.5245 17.5647 29.249L18.0958 28.4016C17.1211 27.7908 16.3311 26.884 15.7337 25.6556L14.8344 26.093ZM17.566 29.2498C18.7215 29.969 20.0105 30.3267 21.4205 30.3267V29.3267C20.1884 29.3267 19.0839 29.0167 18.0945 28.4008L17.566 29.2498ZM21.4205 30.3267C22.1913 30.3267 22.9355 30.2208 23.6513 30.0076L23.3658 29.0492C22.7463 29.2337 22.0985 29.3267 21.4205 29.3267V30.3267ZM23.6513 30.0076C24.3699 29.7935 25.0274 29.4749 25.6209 29.051L25.0396 28.2373C24.5394 28.5947 23.9824 28.8655 23.3658 29.0492L23.6513 30.0076ZM25.6219 29.0503C26.2254 28.617 26.7361 28.0867 27.1525 27.462L26.3205 26.9073C25.9699 27.4332 25.5431 27.8759 25.0387 28.238L25.6219 29.0503ZM27.1518 27.4632C27.5817 26.8222 27.8783 26.0934 28.0464 25.2834L27.0673 25.0802C26.9229 25.776 26.6726 26.3823 26.3213 26.9061L27.1518 27.4632ZM27.5568 25.6818H30.1989V24.6818H27.5568V25.6818ZM29.7066 25.094C29.5173 26.1558 29.1744 27.0955 28.6829 27.9192L29.5416 28.4317C30.1012 27.4939 30.4827 26.4379 30.6911 25.2696L29.7066 25.094ZM28.6829 27.9192C28.1875 28.7493 27.574 29.452 26.8418 30.0311L27.4622 30.8155C28.2925 30.1588 28.9858 29.3629 29.5416 28.4317L28.6829 27.9192ZM26.844 30.0294C26.1098 30.6034 25.2844 31.0417 24.3646 31.3439L24.6766 32.2939C25.7028 31.9569 26.6316 31.4648 27.46 30.8172L26.844 30.0294ZM24.3635 31.3442C23.4523 31.6457 22.4723 31.7983 21.4205 31.7983V32.7983C22.5703 32.7983 23.6571 32.6313 24.6777 32.2936L24.3635 31.3442ZM21.4205 31.7983C19.6451 31.7983 18.084 31.3659 16.7217 30.5111L16.1902 31.3582C17.7257 32.3216 19.4742 32.7983 21.4205 32.7983V31.7983ZM16.7217 30.5111C15.3583 29.6556 14.2781 28.4362 13.4842 26.8347L12.5883 27.2789C13.4562 29.0297 14.6559 30.3955 16.1902 31.3582L16.7217 30.5111ZM13.4842 26.8347C12.6944 25.2417 12.2898 23.3324 12.2898 21.0909H11.2898C11.2898 23.4517 11.7161 25.5197 12.5883 27.2789L13.4842 26.8347ZM12.2898 21.0909C12.2898 18.8494 12.6944 16.9401 13.4842 15.3471L12.5883 14.9029C11.7161 16.6621 11.2898 18.7301 11.2898 21.0909H12.2898ZM13.4842 15.3471C14.2781 13.7456 15.3583 12.5262 16.7217 11.6707L16.1902 10.8236C14.6559 11.7863 13.4562 13.1521 12.5883 14.9029L13.4842 15.3471ZM16.7217 11.6707C18.084 10.8159 19.6451 10.3835 21.4205 10.3835V9.38352C19.4742 9.38352 17.7257 9.8602 16.1902 10.8236L16.7217 11.6707ZM21.4205 10.3835C22.4723 10.3835 23.4523 10.5361 24.3635 10.8376L24.6777 9.88824C23.6571 9.55055 22.5703 9.38352 21.4205 9.38352V10.3835ZM24.3646 10.838C25.2833 11.1397 26.108 11.5809 26.8418 12.1613L27.4622 11.377C26.6335 10.7216 25.7039 10.2253 24.6766 9.8879L24.3646 10.838ZM26.844 12.1631C27.575 12.7346 28.1878 13.4331 28.6829 14.2626L29.5416 13.7502C28.9855 12.8183 28.2915 12.0254 27.46 11.3753L26.844 12.1631ZM28.6838 14.2642C29.1743 15.0795 29.5171 16.0183 29.7065 17.0872L30.6912 16.9128C30.4829 15.7374 30.1013 14.6805 29.5407 13.7486L28.6838 14.2642Z" fill="black"/>
</svg>
