<svg width="68" height="28" viewBox="0 0 68 28" fill="none" xmlns="http://www.w3.org/2000/svg">
<path d="M53.502 3.414C53.0436 5.37122 52.9812 7.40036 53.3186 9.38204C53.656 11.3637 54.3864 13.2579 55.4667 14.9531C56.5469 16.6484 57.9554 18.1105 59.6091 19.2533C61.2627 20.3962 63.1283 21.1968 65.096 21.608C64.0615 22.6784 62.8225 23.53 61.4525 24.1124C60.0826 24.6947 58.6096 24.9959 57.121 24.998C56.983 24.998 56.843 25.003 56.703 24.998C54.1114 24.9067 51.6336 23.9104 49.7002 22.1822C47.7668 20.454 46.4999 18.1031 46.1195 15.5379C45.7392 12.9727 46.2696 10.3553 47.6184 8.14047C48.9672 5.92564 51.0493 4.2533 53.503 3.414M54.98 1C54.9213 1.0002 54.8628 1.00555 54.805 1.016C51.6216 1.58252 48.7604 3.30669 46.7721 5.85653C44.7838 8.40637 43.8092 11.6016 44.0357 14.8271C44.2623 18.0525 45.6741 21.0801 47.9993 23.327C50.3245 25.5738 53.3987 26.8811 56.63 26.997C56.794 27.003 56.958 26.997 57.12 26.997C59.2189 26.9984 61.2873 26.4943 63.1503 25.5274C65.0133 24.5605 66.616 23.1592 67.823 21.442C67.9208 21.294 67.9779 21.1229 67.9885 20.9458C67.9991 20.7687 67.9629 20.592 67.8836 20.4333C67.8042 20.2747 67.6844 20.1397 67.5364 20.0421C67.3883 19.9444 67.2171 19.8875 67.04 19.877C65.0423 19.7017 63.1116 19.0693 61.3972 18.0288C59.6828 16.9884 58.2306 15.5676 57.1529 13.8764C56.0752 12.1852 55.4008 10.2688 55.1818 8.27536C54.9628 6.28193 55.2051 4.26484 55.89 2.38C55.9483 2.22913 55.9696 2.06652 55.9523 1.90572C55.935 1.74492 55.8795 1.59059 55.7905 1.45557C55.7015 1.32055 55.5815 1.20877 55.4405 1.12952C55.2995 1.05028 55.1416 1.00587 54.98 1Z" fill="#FF7A00"/>
<path d="M14 10C14.7911 10 15.5645 10.2346 16.2223 10.6741C16.8801 11.1136 17.3928 11.7384 17.6955 12.4693C17.9983 13.2002 18.0775 14.0044 17.9231 14.7804C17.7688 15.5563 17.3878 16.269 16.8284 16.8284C16.269 17.3878 15.5563 17.7688 14.7804 17.9231C14.0044 18.0775 13.2002 17.9983 12.4693 17.6955C11.7384 17.3928 11.1136 16.8801 10.6741 16.2223C10.2346 15.5645 10 14.7911 10 14C10.0013 12.9395 10.4232 11.9229 11.173 11.173C11.9229 10.4232 12.9395 10.0013 14 10ZM14 8C12.8133 8 11.6533 8.35189 10.6666 9.01118C9.67988 9.67047 8.91085 10.6075 8.45672 11.7039C8.0026 12.8003 7.88378 14.0067 8.11529 15.1705C8.3468 16.3344 8.91824 17.4035 9.75736 18.2426C10.5965 19.0818 11.6656 19.6532 12.8295 19.8847C13.9933 20.1162 15.1997 19.9974 16.2961 19.5433C17.3925 19.0892 18.3295 18.3201 18.9888 17.3334C19.6481 16.3467 20 15.1867 20 14C20 12.4087 19.3679 10.8826 18.2426 9.75736C17.1174 8.63214 15.5913 8 14 8ZM3.394 4.808L4.81 3.394L8.315 6.9L6.9 8.314L3.394 4.808ZM0 13H5V15H0V13ZM3.394 23.193L6.9 19.687L8.314 21.101L4.809 24.607L3.394 23.193ZM13 23H15V28H13V23ZM19.687 21.1L21.101 19.686L24.607 23.192L23.193 24.606L19.687 21.1ZM23 13H28V15H23V13ZM19.687 6.899L23.193 3.393L24.607 4.807L21.101 8.313L19.687 6.899ZM13 0H15V5H13V0Z" fill="black"/>
</svg>
