<svg width="42" height="42" viewBox="0 0 42 42" fill="none" xmlns="http://www.w3.org/2000/svg">
<rect x="1" y="1" width="40" height="40" rx="11" fill="#E46E00"/>
<rect x="1" y="1" width="40" height="40" rx="11" stroke="#275F4B" stroke-linecap="round"/>
<rect x="1" y="1" width="40" height="40" rx="11" stroke="black" stroke-linecap="round"/>
<path d="M21 24.7143C19.4219 24.7143 18.1429 26.1212 18.1429 27.8571C18.1429 29.5931 19.4219 31 21 31C22.5781 31 23.8571 29.5931 23.8571 27.8571C23.8571 26.1212 22.5781 24.7143 21 24.7143ZM21 15.2857C22.5781 15.2857 23.8571 13.8788 23.8571 12.1429C23.8571 10.4069 22.5781 9 21 9C19.4219 9 18.1429 10.4069 18.1429 12.1429C18.1429 13.8788 19.4219 15.2857 21 15.2857ZM29.5714 17.6429H12.4286C11.6397 17.6429 11 18.3466 11 19.2143V20.7857C11 21.6534 11.6397 22.3571 12.4286 22.3571H29.5714C30.3603 22.3571 31 21.6534 31 20.7857V19.2143C31 18.3466 30.3603 17.6429 29.5714 17.6429Z" fill="white"/>
<path d="M21 24.7143C19.4219 24.7143 18.1429 26.1212 18.1429 27.8571C18.1429 29.5931 19.4219 31 21 31C22.5781 31 23.8571 29.5931 23.8571 27.8571C23.8571 26.1212 22.5781 24.7143 21 24.7143ZM21 15.2857C22.5781 15.2857 23.8571 13.8788 23.8571 12.1429C23.8571 10.4069 22.5781 9 21 9C19.4219 9 18.1429 10.4069 18.1429 12.1429C18.1429 13.8788 19.4219 15.2857 21 15.2857ZM29.5714 17.6429H12.4286C11.6397 17.6429 11 18.3466 11 19.2143V20.7857C11 21.6534 11.6397 22.3571 12.4286 22.3571H29.5714C30.3603 22.3571 31 21.6534 31 20.7857V19.2143C31 18.3466 30.3603 17.6429 29.5714 17.6429Z" stroke="#275F4B" stroke-linecap="round"/>
<path d="M21 24.7143C19.4219 24.7143 18.1429 26.1212 18.1429 27.8571C18.1429 29.5931 19.4219 31 21 31C22.5781 31 23.8571 29.5931 23.8571 27.8571C23.8571 26.1212 22.5781 24.7143 21 24.7143ZM21 15.2857C22.5781 15.2857 23.8571 13.8788 23.8571 12.1429C23.8571 10.4069 22.5781 9 21 9C19.4219 9 18.1429 10.4069 18.1429 12.1429C18.1429 13.8788 19.4219 15.2857 21 15.2857ZM29.5714 17.6429H12.4286C11.6397 17.6429 11 18.3466 11 19.2143V20.7857C11 21.6534 11.6397 22.3571 12.4286 22.3571H29.5714C30.3603 22.3571 31 21.6534 31 20.7857V19.2143C31 18.3466 30.3603 17.6429 29.5714 17.6429Z" stroke="black" stroke-linecap="round"/>
</svg>
