<svg width="68" height="28" viewBox="0 0 68 28" fill="none" xmlns="http://www.w3.org/2000/svg">
<path d="M53.4985 2.414C53.0401 4.37122 52.9777 6.40036 53.3151 8.38204C53.6525 10.3637 54.3828 12.2579 55.4631 13.9531C56.5434 15.6484 57.9518 17.1105 59.6055 18.2533C61.2592 19.3962 63.1248 20.1968 65.0925 20.608C64.058 21.6784 62.819 22.53 61.449 23.1124C60.0791 23.6947 58.6061 23.9959 57.1175 23.998C56.9795 23.998 56.8395 24.003 56.6995 23.998C54.1079 23.9067 51.6301 22.9104 49.6967 21.1822C47.7633 19.454 46.4963 17.1031 46.116 14.5379C45.7357 11.9727 46.266 9.35531 47.6149 7.14047C48.9637 4.92564 51.0458 3.2533 53.4995 2.414M54.9765 0C54.9178 0.000197945 54.8592 0.0055519 54.8015 0.016C51.6181 0.582522 48.7568 2.30669 46.7686 4.85653C44.7803 7.40637 43.8056 10.6016 44.0322 13.8271C44.2588 17.0525 45.6706 20.0801 47.9958 22.327C50.321 24.5738 53.3952 25.8811 56.6265 25.997C56.7905 26.003 56.9545 25.997 57.1165 25.997C59.2154 25.9984 61.2838 25.4943 63.1468 24.5274C65.0097 23.5605 66.6125 22.1592 67.8195 20.442C67.9173 20.294 67.9743 20.1229 67.985 19.9458C67.9956 19.7687 67.9594 19.592 67.88 19.4333C67.8007 19.2747 67.6809 19.1397 67.5328 19.0421C67.3848 18.9444 67.2136 18.8875 67.0365 18.877C65.0387 18.7017 63.1081 18.0693 61.3937 17.0288C59.6793 15.9884 58.2271 14.5676 57.1494 12.8764C56.0717 11.1852 55.3972 9.26879 55.1782 7.27536C54.9593 5.28193 55.2016 3.26484 55.8865 1.38C55.9447 1.22913 55.9661 1.06652 55.9488 0.905723C55.9315 0.744922 55.876 0.590585 55.787 0.455569C55.698 0.320552 55.5779 0.208765 55.437 0.129521C55.296 0.0502774 55.1381 0.00587049 54.9765 0V0Z" fill="black"/>
<path d="M14 10C14.7911 10 15.5645 10.2346 16.2223 10.6741C16.8801 11.1136 17.3928 11.7384 17.6955 12.4693C17.9983 13.2002 18.0775 14.0044 17.9231 14.7804C17.7688 15.5563 17.3878 16.269 16.8284 16.8284C16.269 17.3878 15.5563 17.7688 14.7804 17.9231C14.0044 18.0775 13.2002 17.9983 12.4693 17.6955C11.7384 17.3928 11.1136 16.8801 10.6741 16.2223C10.2346 15.5645 10 14.7911 10 14C10.0013 12.9395 10.4232 11.9229 11.173 11.173C11.9229 10.4232 12.9395 10.0013 14 10ZM14 8C12.8133 8 11.6533 8.35189 10.6666 9.01118C9.67988 9.67047 8.91085 10.6075 8.45672 11.7039C8.0026 12.8003 7.88378 14.0067 8.11529 15.1705C8.3468 16.3344 8.91824 17.4035 9.75736 18.2426C10.5965 19.0818 11.6656 19.6532 12.8295 19.8847C13.9933 20.1162 15.1997 19.9974 16.2961 19.5433C17.3925 19.0892 18.3295 18.3201 18.9888 17.3334C19.6481 16.3467 20 15.1867 20 14C20 12.4087 19.3679 10.8826 18.2426 9.75736C17.1174 8.63214 15.5913 8 14 8ZM3.394 4.808L4.81 3.394L8.315 6.9L6.9 8.314L3.394 4.808ZM0 13H5V15H0V13ZM3.394 23.193L6.9 19.687L8.314 21.101L4.809 24.607L3.394 23.193ZM13 23H15V28H13V23ZM19.687 21.1L21.101 19.686L24.607 23.192L23.193 24.606L19.687 21.1ZM23 13H28V15H23V13ZM19.687 6.899L23.193 3.393L24.607 4.807L21.101 8.313L19.687 6.899ZM13 0H15V5H13V0Z" fill="#FF7A00"/>
</svg>
