<svg width="42" height="42" viewBox="0 0 42 42" fill="none" xmlns="http://www.w3.org/2000/svg">
<rect x="1" y="1" width="40" height="40" rx="11" fill="#E46E00"/>
<rect x="1" y="1" width="40" height="40" rx="11" stroke="#275F4B" stroke-linecap="round"/>
<rect x="1" y="1" width="40" height="40" rx="11" stroke="black" stroke-linecap="round"/>
<path d="M12.3239 21.4744V19.1733H25.4489V21.4744H12.3239ZM12.3239 27.7812V25.4801H25.4489V27.7812H12.3239Z" fill="white"/>
<path d="M12.3239 21.4744H11.3239V22.4744H12.3239V21.4744ZM12.3239 19.1733V18.1733H11.3239V19.1733H12.3239ZM25.4489 19.1733H26.4489V18.1733H25.4489V19.1733ZM25.4489 21.4744V22.4744H26.4489V21.4744H25.4489ZM12.3239 27.7812H11.3239V28.7812H12.3239V27.7812ZM12.3239 25.4801V24.4801H11.3239V25.4801H12.3239ZM25.4489 25.4801H26.4489V24.4801H25.4489V25.4801ZM25.4489 27.7812V28.7812H26.4489V27.7812H25.4489ZM13.3239 21.4744V19.1733H11.3239V21.4744H13.3239ZM12.3239 20.1733H25.4489V18.1733H12.3239V20.1733ZM24.4489 19.1733V21.4744H26.4489V19.1733H24.4489ZM25.4489 20.4744H12.3239V22.4744H25.4489V20.4744ZM13.3239 27.7812V25.4801H11.3239V27.7812H13.3239ZM12.3239 26.4801H25.4489V24.4801H12.3239V26.4801ZM24.4489 25.4801V27.7812H26.4489V25.4801H24.4489ZM25.4489 26.7812H12.3239V28.7812H25.4489V26.7812Z" fill="black" fill-opacity="0.99"/>
<path d="M12.3239 21.4744H11.3239V22.4744H12.3239V21.4744ZM12.3239 19.1733V18.1733H11.3239V19.1733H12.3239ZM25.4489 19.1733H26.4489V18.1733H25.4489V19.1733ZM25.4489 21.4744V22.4744H26.4489V21.4744H25.4489ZM12.3239 27.7812H11.3239V28.7812H12.3239V27.7812ZM12.3239 25.4801V24.4801H11.3239V25.4801H12.3239ZM25.4489 25.4801H26.4489V24.4801H25.4489V25.4801ZM25.4489 27.7812V28.7812H26.4489V27.7812H25.4489ZM13.3239 21.4744V19.1733H11.3239V21.4744H13.3239ZM12.3239 20.1733H25.4489V18.1733H12.3239V20.1733ZM24.4489 19.1733V21.4744H26.4489V19.1733H24.4489ZM25.4489 20.4744H12.3239V22.4744H25.4489V20.4744ZM13.3239 27.7812V25.4801H11.3239V27.7812H13.3239ZM12.3239 26.4801H25.4489V24.4801H12.3239V26.4801ZM24.4489 25.4801V27.7812H26.4489V25.4801H24.4489ZM25.4489 26.7812H12.3239V28.7812H25.4489V26.7812Z" fill="black" fill-opacity="0.2"/>
</svg>
