<svg width="42" height="42" viewBox="0 0 42 42" fill="none" xmlns="http://www.w3.org/2000/svg">
<rect x="1" y="1" width="40" height="40" rx="11" fill="#E46E00"/>
<rect x="1" y="1" width="40" height="40" rx="11" stroke="#275F4B" stroke-linecap="round"/>
<rect x="1" y="1" width="40" height="40" rx="11" stroke="black" stroke-linecap="round"/>
<path d="M31 14.7233L28.1333 12L21 18.7767L13.8667 12L11 14.7233L18.1333 21.5L11 28.2767L13.8667 31L21 24.2233L28.1333 31L31 28.2767L23.8667 21.5L31 14.7233Z" fill="white"/>
<path d="M31 14.7233L28.1333 12L21 18.7767L13.8667 12L11 14.7233L18.1333 21.5L11 28.2767L13.8667 31L21 24.2233L28.1333 31L31 28.2767L23.8667 21.5L31 14.7233Z" stroke="#275F4B" stroke-linecap="round"/>
<path d="M31 14.7233L28.1333 12L21 18.7767L13.8667 12L11 14.7233L18.1333 21.5L11 28.2767L13.8667 31L21 24.2233L28.1333 31L31 28.2767L23.8667 21.5L31 14.7233Z" stroke="black" stroke-linecap="round"/>
</svg>
