<svg width="42" height="49" viewBox="0 0 42 49" fill="none" xmlns="http://www.w3.org/2000/svg">
<g opacity="0.1">
<rect x="1" y="8" width="40" height="40" rx="10" fill="#00FFC2"/>
<rect x="1" y="8" width="40" height="40" rx="10" stroke="#275F4B" stroke-linecap="round"/>
<rect x="1" y="8" width="40" height="40" rx="10" stroke="black" stroke-linecap="round"/>
</g>
<path d="M21.1335 29.1705C20.608 29.1705 20.157 28.9822 19.7805 28.6058C19.4041 28.2294 19.2159 27.7784 19.2159 27.2528C19.2159 26.7273 19.4041 26.2763 19.7805 25.8999C20.157 25.5234 20.608 25.3352 21.1335 25.3352C21.6591 25.3352 22.1101 25.5234 22.4865 25.8999C22.8629 26.2763 23.0511 26.7273 23.0511 27.2528C23.0511 27.6009 22.9624 27.9205 22.7848 28.2116C22.6143 28.5028 22.3835 28.7372 22.0923 28.9148C21.8082 29.0852 21.4886 29.1705 21.1335 29.1705Z" fill="black"/>
<path d="M19.7805 28.6058L20.1341 28.2523L19.7805 28.6058ZM22.4865 25.8999L22.8401 25.5463L22.4865 25.8999ZM22.7848 28.2116L22.3578 27.9513L22.3533 27.9591L22.7848 28.2116ZM22.0923 28.9148L22.3496 29.3435L22.3526 29.3417L22.0923 28.9148ZM21.1335 28.6705C20.7425 28.6705 20.4181 28.5363 20.1341 28.2523L19.427 28.9594C19.8958 29.4282 20.4734 29.6705 21.1335 29.6705V28.6705ZM20.1341 28.2523C19.8501 27.9683 19.7159 27.6439 19.7159 27.2528H18.7159C18.7159 27.9129 18.9582 28.4905 19.427 28.9594L20.1341 28.2523ZM19.7159 27.2528C19.7159 26.8618 19.8501 26.5374 20.1341 26.2534L19.427 25.5463C18.9582 26.0151 18.7159 26.5928 18.7159 27.2528H19.7159ZM20.1341 26.2534C20.4181 25.9694 20.7425 25.8352 21.1335 25.8352V24.8352C20.4734 24.8352 19.8958 25.0775 19.427 25.5463L20.1341 26.2534ZM21.1335 25.8352C21.5246 25.8352 21.8489 25.9694 22.133 26.2534L22.8401 25.5463C22.3712 25.0775 21.7936 24.8352 21.1335 24.8352V25.8352ZM22.133 26.2534C22.417 26.5374 22.5511 26.8618 22.5511 27.2528H23.5511C23.5511 26.5928 23.3089 26.0151 22.8401 25.5463L22.133 26.2534ZM22.5511 27.2528C22.5511 27.511 22.4866 27.7402 22.3579 27.9513L23.2117 28.472C23.4381 28.1007 23.5511 27.6907 23.5511 27.2528H22.5511ZM22.3533 27.9591C22.2251 28.1781 22.0534 28.3529 21.832 28.4879L22.3526 29.3417C22.7136 29.1215 23.0036 28.8276 23.2163 28.4642L22.3533 27.9591ZM21.8351 28.486C21.6343 28.6065 21.4048 28.6705 21.1335 28.6705V29.6705C21.5725 29.6705 21.9822 29.564 22.3496 29.3435L21.8351 28.486Z" fill="#275F4B"/>
<path d="M19.7805 28.6058L20.1341 28.2523L19.7805 28.6058ZM22.4865 25.8999L22.8401 25.5463L22.4865 25.8999ZM22.7848 28.2116L22.3578 27.9513L22.3533 27.9591L22.7848 28.2116ZM22.0923 28.9148L22.3496 29.3435L22.3526 29.3417L22.0923 28.9148ZM21.1335 28.6705C20.7425 28.6705 20.4181 28.5363 20.1341 28.2523L19.427 28.9594C19.8958 29.4282 20.4734 29.6705 21.1335 29.6705V28.6705ZM20.1341 28.2523C19.8501 27.9683 19.7159 27.6439 19.7159 27.2528H18.7159C18.7159 27.9129 18.9582 28.4905 19.427 28.9594L20.1341 28.2523ZM19.7159 27.2528C19.7159 26.8618 19.8501 26.5374 20.1341 26.2534L19.427 25.5463C18.9582 26.0151 18.7159 26.5928 18.7159 27.2528H19.7159ZM20.1341 26.2534C20.4181 25.9694 20.7425 25.8352 21.1335 25.8352V24.8352C20.4734 24.8352 19.8958 25.0775 19.427 25.5463L20.1341 26.2534ZM21.1335 25.8352C21.5246 25.8352 21.8489 25.9694 22.133 26.2534L22.8401 25.5463C22.3712 25.0775 21.7936 24.8352 21.1335 24.8352V25.8352ZM22.133 26.2534C22.417 26.5374 22.5511 26.8618 22.5511 27.2528H23.5511C23.5511 26.5928 23.3089 26.0151 22.8401 25.5463L22.133 26.2534ZM22.5511 27.2528C22.5511 27.511 22.4866 27.7402 22.3579 27.9513L23.2117 28.472C23.4381 28.1007 23.5511 27.6907 23.5511 27.2528H22.5511ZM22.3533 27.9591C22.2251 28.1781 22.0534 28.3529 21.832 28.4879L22.3526 29.3417C22.7136 29.1215 23.0036 28.8276 23.2163 28.4642L22.3533 27.9591ZM21.8351 28.486C21.6343 28.6065 21.4048 28.6705 21.1335 28.6705V29.6705C21.5725 29.6705 21.9822 29.564 22.3496 29.3435L21.8351 28.486Z" fill="black"/>
</svg>
