<svg width="57" height="48" viewBox="0 0 57 48" fill="none" xmlns="http://www.w3.org/2000/svg">
<path d="M4.08333 14.7574H28.75V3.99936C28.7501 3.40611 28.931 2.82622 29.2698 2.33299C29.6087 1.83976 30.0902 1.45534 30.6535 1.22833C31.2168 1.00132 31.8367 0.941908 32.4347 1.05761C33.0327 1.17331 33.582 1.45893 34.0132 1.87836L54.3201 21.6364C54.8981 22.1989 55.2228 22.9619 55.2228 23.7574C55.2228 24.5529 54.8981 25.3158 54.3201 25.8784L34.0132 45.6364C33.582 46.0558 33.0327 46.3414 32.4347 46.4571C31.8367 46.5728 31.2168 46.5134 30.6535 46.2864C30.0902 46.0594 29.6087 45.675 29.2698 45.1817C28.931 44.6885 28.7501 44.1086 28.75 43.5154V32.7574H4.08333C3.26558 32.7574 2.48132 32.4413 1.90309 31.8787C1.32485 31.3161 1 30.553 1 29.7574V17.7574C1 16.9617 1.32485 16.1986 1.90309 15.636C2.48132 15.0734 3.26558 14.7574 4.08333 14.7574Z" stroke="#01FF0B" stroke-width="2" stroke-linecap="round" stroke-linejoin="round"/>
</svg>
