<svg width="74" height="73" viewBox="0 0 74 73" fill="none" xmlns="http://www.w3.org/2000/svg">
<path d="M62.6656 11.1328C57.5924 6.13213 51.1335 2.72965 44.1049 1.35514C37.0762 -0.0193619 29.793 0.695774 23.1753 3.41022C16.5577 6.12466 10.9023 10.7166 6.92374 16.6061C2.94513 22.4956 0.821716 29.4184 0.821716 36.5C0.821716 43.5816 2.94513 50.5044 6.92374 56.3939C10.9023 62.2834 16.5577 66.8753 23.1753 69.5898C29.793 72.3042 37.0762 73.0194 44.1049 71.6449C51.1335 70.2704 57.5924 66.8679 62.6656 61.8672C69.4599 55.1328 73.2753 46.0104 73.2753 36.5C73.2753 26.9896 69.4599 17.8672 62.6656 11.1328V11.1328ZM56.9547 56.2227C53.0081 60.1229 47.98 62.779 42.5062 63.8549C37.0324 64.9309 31.3587 64.3784 26.2025 62.2673C21.0464 60.1562 16.6394 56.5814 13.5388 51.9949C10.4382 47.4084 8.78329 42.0161 8.78329 36.5C8.78329 30.9839 10.4382 25.5916 13.5388 21.0051C16.6394 16.4186 21.0464 12.8438 26.2025 10.7327C31.3587 8.62164 37.0324 8.06914 42.5062 9.14508C47.98 10.221 53.0081 12.8771 56.9547 16.7773C62.231 22.0165 65.1931 29.1078 65.1931 36.5C65.1931 43.8922 62.231 50.9835 56.9547 56.2227V56.2227ZM50.6055 20.3965C50.9813 20.7666 51.2795 21.2065 51.483 21.6908C51.6864 22.1751 51.7911 22.6944 51.7911 23.2188C51.7911 23.7432 51.6864 24.2624 51.483 24.7467C51.2795 25.231 50.9813 25.6709 50.6055 26.041L39.8555 36.666C39.0947 37.4082 38.0689 37.8243 37 37.8243C35.9311 37.8243 34.9053 37.4082 34.1445 36.666L23.3945 26.041C22.6372 25.2925 22.2118 24.2773 22.2118 23.2188C22.2118 22.1602 22.6372 21.145 23.3945 20.3965C24.1519 19.648 25.179 19.2275 26.25 19.2275C27.321 19.2275 28.3482 19.648 29.1055 20.3965L37 28.1992L44.8945 20.3965C45.2691 20.025 45.7141 19.7303 46.2041 19.5292C46.6941 19.3281 47.2194 19.2246 47.75 19.2246C48.2806 19.2246 48.8059 19.3281 49.2959 19.5292C49.7859 19.7303 50.231 20.025 50.6055 20.3965V20.3965ZM50.6055 38.9902C50.9813 39.3604 51.2795 39.8002 51.483 40.2846C51.6864 40.7689 51.7911 41.2881 51.7911 41.8125C51.7911 42.3369 51.6864 42.8561 51.483 43.3405C51.2795 43.8248 50.9813 44.2646 50.6055 44.6348L39.8555 55.2598C39.0947 56.0019 38.0689 56.418 37 56.418C35.9311 56.418 34.9053 56.0019 34.1445 55.2598L23.3945 44.6348C22.6372 43.8863 22.2118 42.8711 22.2118 41.8125C22.2118 40.7539 22.6372 39.7387 23.3945 38.9902C24.1519 38.2417 25.179 37.8212 26.25 37.8212C27.321 37.8212 28.3482 38.2417 29.1055 38.9902L37 46.793L44.8945 38.9902C45.2691 38.6188 45.7141 38.3241 46.2041 38.123C46.6941 37.9219 47.2194 37.8183 47.75 37.8183C48.2806 37.8183 48.8059 37.9219 49.2959 38.123C49.7859 38.3241 50.231 38.6188 50.6055 38.9902Z" fill="url(#paint0_linear_9_3)"/>
<defs>
<linearGradient id="paint0_linear_9_3" x1="37.0485" y1="0.673813" x2="37.0485" y2="72.3262" gradientUnits="userSpaceOnUse">
<stop offset="0.9999" stop-color="#00F0FF"/>
<stop offset="1" stop-opacity="0"/>
</linearGradient>
</defs>
</svg>
