<svg width="90" height="77" viewBox="0 0 90 77" fill="none" xmlns="http://www.w3.org/2000/svg">
<path d="M56.25 3.60938C48.4207 3.61734 40.9147 6.2818 35.3785 11.0183C29.8424 15.7548 26.7281 22.1766 26.7188 28.875C26.7089 31.2883 27.1116 33.6899 27.9141 36.0035L8.26172 52.7871C7.48077 53.4712 7.03979 54.3875 7.03125 55.3438V67.375C7.03125 68.3323 7.47572 69.2503 8.26689 69.9272C9.05806 70.6041 10.1311 70.9844 11.25 70.9844H25.3125C26.4314 70.9844 27.5044 70.6041 28.2956 69.9272C29.0868 69.2503 29.5312 68.3323 29.5312 67.375V63.7656H33.75C34.8689 63.7656 35.9419 63.3853 36.7331 62.7085C37.5243 62.0316 37.9688 61.1135 37.9688 60.1562V56.5469H42.1875C43.3052 56.5396 44.3761 56.1623 45.1758 55.4941L47.918 53.118C50.6222 53.8045 53.4292 54.149 56.25 54.1406C64.0822 54.1406 71.5936 51.4787 77.1317 46.7405C82.6699 42.0023 85.7812 35.5759 85.7812 28.875C85.7812 22.1741 82.6699 15.7477 77.1317 11.0095C71.5936 6.27128 64.0822 3.60938 56.25 3.60938ZM56.25 46.9219C53.5898 46.9273 50.9529 46.4985 48.4805 45.6586C47.7075 45.3736 46.8526 45.2929 46.0256 45.4269C45.1987 45.5609 44.4374 45.9035 43.8398 46.4105L40.4297 49.3281H33.75C32.6311 49.3281 31.5581 49.7084 30.7669 50.3853C29.9757 51.0622 29.5312 51.9802 29.5312 52.9375V56.5469H25.3125C24.1936 56.5469 23.1206 56.9272 22.3294 57.604C21.5382 58.2809 21.0938 59.199 21.0938 60.1562V63.7656H15.4688V56.8477L35.7539 39.4926C36.3466 38.9813 36.747 38.33 36.9036 37.6225C37.0603 36.915 36.9659 36.1836 36.6328 35.5223C34.9712 31.9341 34.6979 27.9847 35.8531 24.2539C37.0082 20.523 39.5309 17.2073 43.0508 14.7934C46.5707 12.3796 50.9024 10.9947 55.41 10.8422C59.9176 10.6897 64.3636 11.7776 68.0954 13.9461C71.8271 16.1146 74.6479 19.2496 76.1438 22.8907C77.6397 26.5318 77.7318 30.4874 76.4066 34.1766C75.0814 37.8658 72.4086 41.0944 68.7808 43.3883C65.153 45.6822 60.7611 46.9207 56.25 46.9219ZM68.9062 22.8594C68.9062 23.8112 68.5763 24.7416 67.9583 25.5331C67.3402 26.3245 66.4617 26.9413 65.4338 27.3055C64.406 27.6698 63.275 27.7651 62.1839 27.5794C61.0927 27.3937 60.0904 26.9354 59.3038 26.2623C58.5171 25.5893 57.9814 24.7318 57.7643 23.7982C57.5473 22.8647 57.6587 21.8971 58.0844 21.0177C58.5102 20.1383 59.2311 19.3867 60.1562 18.8579C61.0812 18.3291 62.1687 18.0469 63.2812 18.0469C64.7731 18.0469 66.2038 18.5539 67.2587 19.4564C68.3136 20.3589 68.9062 21.583 68.9062 22.8594Z" fill="url(#paint0_linear_9_10)" fill-opacity="0.84"/>
<defs>
<linearGradient id="paint0_linear_9_10" x1="46.4062" y1="3.60937" x2="46.4062" y2="70.9844" gradientUnits="userSpaceOnUse">
<stop offset="0.973958" stop-color="#3CFFE8"/>
<stop offset="1" stop-color="#3CFF98" stop-opacity="0"/>
</linearGradient>
</defs>
</svg>
