<svg width="93" height="85" viewBox="0 0 93 85" fill="none" xmlns="http://www.w3.org/2000/svg">
<path opacity="0.2" d="M46.5 74.375C65.7609 74.375 81.375 60.1041 81.375 42.5C81.375 24.8959 65.7609 10.625 46.5 10.625C27.2391 10.625 11.625 24.8959 11.625 42.5C11.625 60.1041 27.2391 74.375 46.5 74.375Z" fill="url(#paint0_linear_9_4)"/>
<path d="M73.2012 18.0957C69.6982 14.8852 65.5366 12.3379 60.9547 10.5999C56.3729 8.86181 51.4608 7.96716 46.5 7.96716C41.5392 7.96716 36.6271 8.86181 32.0452 10.5999C27.4634 12.3379 23.3018 14.8852 19.7988 18.0957C16.2861 21.2973 13.4991 25.1009 11.5975 29.2887C9.69586 33.4764 8.71701 37.9659 8.71701 42.5C8.71701 47.0341 9.69586 51.5236 11.5975 55.7113C13.4991 59.8991 16.2861 63.7027 19.7988 66.9043C23.3018 70.1148 27.4634 72.6621 32.0452 74.4001C36.6271 76.1382 41.5392 77.0328 46.5 77.0328C51.4608 77.0328 56.3729 76.1382 60.9547 74.4001C65.5366 72.6621 69.6982 70.1148 73.2012 66.9043C76.7139 63.7027 79.5009 59.8991 81.4025 55.7113C83.3041 51.5236 84.283 47.0341 84.283 42.5C84.283 37.9659 83.3041 33.4764 81.4025 29.2887C79.5009 25.1009 76.7139 21.2973 73.2012 18.0957ZM69.0961 63.1523C64.6262 67.241 58.93 70.0262 52.7279 71.1556C46.5259 72.2849 40.0967 71.7077 34.2537 69.4969C28.4106 67.2861 23.4162 63.5411 19.9023 58.7355C16.3884 53.93 14.5128 48.2799 14.5128 42.5C14.5128 36.7201 16.3884 31.07 19.9023 26.2645C23.4162 21.4589 28.4106 17.7139 34.2537 15.5031C40.0967 13.2923 46.5259 12.7151 52.7279 13.8444C58.93 14.9738 64.6262 17.759 69.0961 21.8477C75.0769 27.3308 78.4353 34.7575 78.4353 42.5C78.4353 50.2425 75.0769 57.6691 69.0961 63.1523Z" fill="url(#paint1_linear_9_4)"/>
<path d="M48.5707 43.2637C48.0197 42.7649 47.2755 42.485 46.5 42.485C45.7245 42.485 44.9803 42.7649 44.4293 43.2637L32.8043 53.8887C32.3409 54.4048 32.104 55.06 32.1399 55.7268C32.1757 56.3937 32.4816 57.0245 32.9982 57.4966C33.5147 57.9687 34.2049 58.2484 34.9346 58.2811C35.6642 58.3139 36.381 58.0974 36.9457 57.6738L46.5 48.9082L56.0543 57.6738C56.6098 58.1647 57.3523 58.4392 58.125 58.4392C58.8977 58.4392 59.6402 58.1647 60.1957 57.6738C60.7415 57.1702 61.0476 56.4901 61.0476 55.7812C61.0476 55.0724 60.7415 54.3923 60.1957 53.8887L48.5707 43.2637ZM48.5707 24.6699C48.0197 24.1711 47.2755 23.8913 46.5 23.8913C45.7245 23.8913 44.9803 24.1711 44.4293 24.6699L32.8043 35.2949C32.3409 35.811 32.104 36.4662 32.1399 37.1331C32.1757 37.7999 32.4816 38.4308 32.9982 38.9029C33.5147 39.375 34.2049 39.6546 34.9346 39.6874C35.6642 39.7201 36.381 39.5036 36.9457 39.0801L46.5 30.3144L56.0543 39.0801C56.6098 39.571 57.3523 39.8454 58.125 39.8454C58.8977 39.8454 59.6402 39.571 60.1957 39.0801C60.7415 38.5765 61.0476 37.8963 61.0476 37.1875C61.0476 36.4787 60.7415 35.7985 60.1957 35.2949L48.5707 24.6699Z" fill="url(#paint2_linear_9_4)"/>
<defs>
<linearGradient id="paint0_linear_9_4" x1="46.5" y1="10.625" x2="46.5" y2="74.375" gradientUnits="userSpaceOnUse">
<stop offset="0.9999" stop-color="#00F0FF"/>
<stop offset="1" stop-color="#3CFF98" stop-opacity="0"/>
</linearGradient>
<linearGradient id="paint1_linear_9_4" x1="46.5" y1="7.96716" x2="46.5" y2="77.0328" gradientUnits="userSpaceOnUse">
<stop offset="0.9999" stop-color="#00F0FF"/>
<stop offset="1" stop-color="#3CFF98" stop-opacity="0"/>
</linearGradient>
<linearGradient id="paint2_linear_9_4" x1="46.592" y1="23.8913" x2="46.592" y2="58.4392" gradientUnits="userSpaceOnUse">
<stop offset="0.9999" stop-color="#00F0FF"/>
<stop offset="1" stop-color="#3CFF98" stop-opacity="0"/>
</linearGradient>
</defs>
</svg>
