<svg width="69" height="83" viewBox="0 0 69 83" fill="none" xmlns="http://www.w3.org/2000/svg">
<path d="M44.725 42.937V40.0683C44.725 35.7782 42.9051 33.6669 40.4686 33.6669C38.0018 33.6669 36.1992 35.7782 36.1992 40.0683V42.937C36.1992 47.2426 38.0018 49.3539 40.4686 49.3539C42.9051 49.3539 44.725 47.2374 44.725 42.937ZM55.8771 41.692C57.8738 41.692 59.0468 40.281 59.0468 37.8325C59.0468 35.384 57.8738 33.9885 55.8771 33.9885H52.5392V41.692H55.8771Z" fill="url(#paint0_linear_9_21)"/>
<path fill-rule="evenodd" clip-rule="evenodd" d="M21.1011 0C20.5303 0.000145867 19.9829 0.272505 19.5788 0.757375L0.629625 23.5513C0.22654 24.0373 0.000121263 24.6959 0 25.3824L0 57.6176C0.000121263 58.3041 0.22654 58.9627 0.629625 59.4487L19.5788 82.2426C19.9829 82.7275 20.5303 82.9999 21.1011 83H47.8989C48.4697 82.9999 49.0171 82.7275 49.4212 82.2426L68.3704 59.4487C68.7735 58.9627 68.9999 58.3041 69 57.6176V25.3824C68.9999 24.6959 68.7735 24.0373 68.3704 23.5513L49.4212 0.757375C49.0171 0.272505 48.4697 0.000145867 47.8989 0L21.1011 0ZM13.6275 52.29C9.61256 52.29 7.38731 49.7326 7.18463 46.4178H10.0007C10.281 48.2126 11.7084 49.4421 13.8431 49.4421C16.1029 49.4421 17.4225 48.1659 17.4225 46.2258C17.4225 44.654 16.5471 43.8032 14.6754 43.2586L11.8464 42.4078C9.21581 41.6453 7.62881 39.7622 7.62881 36.8157C7.62881 33.1533 10.2034 30.6737 13.8561 30.6737C17.5346 30.6737 19.8332 33.1377 20.0488 36.3125H17.2673C16.9913 34.6525 15.7493 33.5009 13.8302 33.5009C11.7947 33.5009 10.5096 34.777 10.5096 36.6134C10.5096 37.9673 11.3548 38.8803 12.8944 39.3213L15.7148 40.1564C18.6171 41.0072 20.286 42.6828 20.286 45.9146C20.286 49.7326 17.8106 52.2848 13.6275 52.2848V52.29ZM28.4064 34.0819V51.875H25.5386V34.0819H20.4973V31.125H33.4607V34.0715H28.4064V34.0819ZM47.6316 40.0994V42.9214C47.6316 48.7884 44.8888 52.2848 40.4685 52.2848C36.0439 52.2848 33.2925 48.7884 33.2925 42.9214V40.0994C33.2925 34.2064 36.0439 30.7256 40.4685 30.7256C44.8888 30.7256 47.6272 34.2219 47.6272 40.0994H47.6316ZM49.68 31.125H56.2997C59.8359 31.125 61.9749 33.9781 61.9749 37.8272C61.9749 41.7023 59.8144 44.5139 56.2781 44.5139H52.5478V51.875H49.68V31.1302V31.125Z" fill="url(#paint1_linear_9_21)"/>
<defs>
<linearGradient id="paint0_linear_9_21" x1="47.623" y1="33.6669" x2="47.623" y2="49.3539" gradientUnits="userSpaceOnUse">
<stop offset="0.9999" stop-color="#00F4E6"/>
<stop offset="1" stop-color="#F43700" stop-opacity="0"/>
</linearGradient>
<linearGradient id="paint1_linear_9_21" x1="34.5" y1="0" x2="34.5" y2="83" gradientUnits="userSpaceOnUse">
<stop offset="0.9999" stop-color="#00F4E6"/>
<stop offset="1" stop-color="#F43700" stop-opacity="0"/>
</linearGradient>
</defs>
</svg>
