<svg width="70" height="72" viewBox="0 0 70 72" fill="none" xmlns="http://www.w3.org/2000/svg">
<path d="M64.6333 62.1116L17.6667 13.7339L4.33333 0L0 4.25751L11.5333 16.1373L6.3 31.7253V59.1931C6.3 60.1037 6.65119 60.9771 7.27631 61.621C7.90143 62.2649 8.74928 62.6266 9.63333 62.6266H12.9667C13.8507 62.6266 14.6986 62.2649 15.3237 61.621C15.9488 60.9771 16.3 60.1037 16.3 59.1931V55.7597H50L65.7667 72L70 67.6395L64.6333 62.1116ZM17.9667 45.4592C16.6406 45.4592 15.3688 44.9166 14.4311 43.9508C13.4934 42.9849 12.9667 41.6749 12.9667 40.309C12.9667 38.9431 13.4934 37.6331 14.4311 36.6673C15.3688 35.7014 16.6406 35.1588 17.9667 35.1588C19.2927 35.1588 20.5645 35.7014 21.5022 36.6673C22.4399 37.6331 22.9667 38.9431 22.9667 40.309C22.9667 41.6749 22.4399 42.9849 21.5022 43.9508C20.5645 44.9166 19.2927 45.4592 17.9667 45.4592ZM12.9667 28.2918L15.5667 20.2918L23.3333 28.2918H12.9667ZM54.6333 12.8412L59.6333 28.2918H40.3L50.0333 38.3176C51.3 35.7425 54.2 34.6781 56.7 35.8798C59.2 37.1159 60.2333 40.206 59.0667 42.7468C58.5667 43.7425 57.7333 44.6695 56.7 45.1846L66.3 55.073V31.7253L59.3667 11.1245C58.6667 9.06438 56.7667 7.69099 54.6333 7.69099H20.3L25.3 12.8412H54.6333Z" fill="url(#paint0_linear_9_35)"/>
<defs>
<linearGradient id="paint0_linear_9_35" x1="35" y1="0" x2="35" y2="72" gradientUnits="userSpaceOnUse">
<stop offset="0.9999" stop-color="#00DCFA"/>
<stop offset="1" stop-color="#F43700" stop-opacity="0"/>
</linearGradient>
</defs>
</svg>
