<svg width="93" height="77" viewBox="0 0 93 77" fill="none" xmlns="http://www.w3.org/2000/svg">
<path opacity="0.2" d="M46.5 67.375C65.7609 67.375 81.375 54.4472 81.375 38.5C81.375 22.5528 65.7609 9.625 46.5 9.625C27.2391 9.625 11.625 22.5528 11.625 38.5C11.625 54.4472 27.2391 67.375 46.5 67.375Z" fill="url(#paint0_linear_12_80)"/>
<path d="M73.2012 16.3926C69.6982 13.4842 65.5366 11.1767 60.9548 9.60222C56.3729 8.02776 51.4608 7.21732 46.5 7.21732C41.5392 7.21732 36.6271 8.02776 32.0453 9.60222C27.4634 11.1767 23.3018 13.4842 19.7988 16.3926C16.2861 19.2929 13.4991 22.7385 11.5975 26.5321C9.69587 30.3257 8.71702 34.3927 8.71702 38.5C8.71702 42.6073 9.69587 46.6743 11.5975 50.4679C13.4991 54.2615 16.2861 57.7071 19.7988 60.6074C23.3018 63.5158 27.4634 65.8233 32.0453 67.3978C36.6271 68.9722 41.5392 69.7827 46.5 69.7827C51.4608 69.7827 56.3729 68.9722 60.9548 67.3978C65.5366 65.8233 69.6982 63.5158 73.2012 60.6074C76.7139 57.7071 79.5009 54.2615 81.4025 50.4679C83.3041 46.6743 84.283 42.6073 84.283 38.5C84.283 34.3927 83.3041 30.3257 81.4025 26.5321C79.5009 22.7385 76.7139 19.2929 73.2012 16.3926ZM69.0961 57.2086C64.6262 60.9125 58.93 63.4355 52.7279 64.4586C46.5259 65.4816 40.0967 64.9587 34.2537 62.956C28.4106 60.9533 23.4162 57.5607 19.9023 53.2075C16.3884 48.8543 14.5128 43.7359 14.5128 38.5C14.5128 33.2641 16.3884 28.1457 19.9023 23.7925C23.4162 19.4393 28.4106 16.0467 34.2537 14.044C40.0967 12.0413 46.5259 11.5184 52.7279 12.5414C58.93 13.5645 64.6262 16.0875 69.0961 19.7914C75.0769 24.7585 78.4353 31.4862 78.4353 38.5C78.4353 45.5138 75.0769 52.2415 69.0961 57.2086Z" fill="url(#paint1_linear_12_80)"/>
<path d="M48.5707 39.1918C48.0197 38.7399 47.2755 38.4865 46.5 38.4865C45.7245 38.4865 44.9803 38.7399 44.4293 39.1918L32.8043 48.8168C32.3409 49.2843 32.104 49.8778 32.1399 50.4819C32.1757 51.086 32.4816 51.6575 32.9982 52.0852C33.5147 52.5128 34.2049 52.7662 34.9345 52.7958C35.6642 52.8255 36.381 52.6294 36.9457 52.2457L46.5 44.3051L56.0543 52.2457C56.6098 52.6904 57.3523 52.939 58.125 52.939C58.8977 52.939 59.6402 52.6904 60.1957 52.2457C60.7414 51.7895 61.0476 51.1733 61.0476 50.5312C61.0476 49.8891 60.7414 49.273 60.1957 48.8168L48.5707 39.1918ZM48.5707 22.348C48.0197 21.8962 47.2755 21.6427 46.5 21.6427C45.7245 21.6427 44.9803 21.8962 44.4293 22.348L32.8043 31.973C32.3409 32.4406 32.104 33.0341 32.1399 33.6382C32.1757 34.2423 32.4816 34.8137 32.9982 35.2414C33.5147 35.6691 34.2049 35.9224 34.9345 35.9521C35.6642 35.9817 36.381 35.7856 36.9457 35.4019L46.5 27.4613L56.0543 35.4019C56.6098 35.8467 57.3523 36.0953 58.125 36.0953C58.8977 36.0953 59.6402 35.8467 60.1957 35.4019C60.7414 34.9457 61.0476 34.3296 61.0476 33.6875C61.0476 33.0454 60.7414 32.4292 60.1957 31.973L48.5707 22.348Z" fill="url(#paint2_linear_12_80)"/>
<defs>
<linearGradient id="paint0_linear_12_80" x1="46.5" y1="9.625" x2="46.5" y2="67.375" gradientUnits="userSpaceOnUse">
<stop stop-color="#3CFF98"/>
<stop offset="1" stop-color="#3CFF98" stop-opacity="0"/>
</linearGradient>
<linearGradient id="paint1_linear_12_80" x1="46.5" y1="7.21732" x2="46.5" y2="69.7827" gradientUnits="userSpaceOnUse">
<stop stop-color="#3CFF98"/>
<stop offset="1" stop-color="#3CFF98" stop-opacity="0"/>
</linearGradient>
<linearGradient id="paint2_linear_12_80" x1="46.5919" y1="21.6427" x2="46.5919" y2="52.939" gradientUnits="userSpaceOnUse">
<stop stop-color="#3CFF98"/>
<stop offset="1" stop-color="#3CFF98" stop-opacity="0"/>
</linearGradient>
</defs>
</svg>
