<svg width="70" height="79" viewBox="0 0 70 79" fill="none" xmlns="http://www.w3.org/2000/svg">
<path d="M64.6333 68.1502L17.6667 15.0691L4.33333 0L0 4.67144L11.5333 17.7062L6.3 34.8097V64.948C6.3 65.9472 6.65119 66.9054 7.27631 67.6119C7.90143 68.3184 8.74928 68.7153 9.63333 68.7153H12.9667C13.8507 68.7153 14.6986 68.3184 15.3237 67.6119C15.9488 66.9054 16.3 65.9472 16.3 64.948V61.1807H50L65.7667 79L70 74.2155L64.6333 68.1502ZM17.9667 49.8789C16.6406 49.8789 15.3688 49.2835 14.4311 48.2238C13.4934 47.164 12.9667 45.7267 12.9667 44.2279C12.9667 42.7292 13.4934 41.2919 14.4311 40.2321C15.3688 39.1724 16.6406 38.577 17.9667 38.577C19.2927 38.577 20.5645 39.1724 21.5022 40.2321C22.4399 41.2919 22.9667 42.7292 22.9667 44.2279C22.9667 45.7267 22.4399 47.164 21.5022 48.2238C20.5645 49.2835 19.2927 49.8789 17.9667 49.8789ZM12.9667 31.0424L15.5667 22.2647L23.3333 31.0424H12.9667ZM54.6333 14.0897L59.6333 31.0424H40.3L50.0333 42.0429C51.3 39.2175 54.2 38.0496 56.7 39.3681C59.2 40.7244 60.2333 44.1149 59.0667 46.9027C58.5667 47.9952 57.7333 49.0124 56.7 49.5775L66.3 60.4273V34.8097L59.3667 12.206C58.6667 9.94564 56.7667 8.43872 54.6333 8.43872H20.3L25.3 14.0897H54.6333Z" fill="url(#paint0_linear_12_89)"/>
<defs>
<linearGradient id="paint0_linear_12_89" x1="35" y1="0" x2="35" y2="79" gradientUnits="userSpaceOnUse">
<stop offset="0.307292" stop-color="#F43700"/>
<stop offset="1" stop-color="#F43700" stop-opacity="0"/>
</linearGradient>
</defs>
</svg>
