<svg width="31" height="33" viewBox="0 0 31 33" fill="none" xmlns="http://www.w3.org/2000/svg">
<path d="M15.5 24.75C17.5554 24.75 19.5267 23.8808 20.9801 22.3336C22.4335 20.7865 23.25 18.688 23.25 16.5C23.25 14.312 22.4335 12.2135 20.9801 10.6664C19.5267 9.11919 17.5554 8.25 15.5 8.25C13.4446 8.25 11.4733 9.11919 10.0199 10.6664C8.56652 12.2135 7.75 14.312 7.75 16.5C7.75 18.688 8.56652 20.7865 10.0199 22.3336C11.4733 23.8808 13.4446 24.75 15.5 24.75V24.75ZM15.5 0C15.7569 0 16.0033 0.108649 16.185 0.302046C16.3667 0.495443 16.4688 0.757745 16.4688 1.03125V5.15625C16.4688 5.42975 16.3667 5.69206 16.185 5.88545C16.0033 6.07885 15.7569 6.1875 15.5 6.1875C15.2431 6.1875 14.9967 6.07885 14.815 5.88545C14.6333 5.69206 14.5312 5.42975 14.5312 5.15625V1.03125C14.5312 0.757745 14.6333 0.495443 14.815 0.302046C14.9967 0.108649 15.2431 0 15.5 0V0ZM15.5 26.8125C15.7569 26.8125 16.0033 26.9211 16.185 27.1145C16.3667 27.3079 16.4688 27.5702 16.4688 27.8438V31.9688C16.4688 32.2423 16.3667 32.5046 16.185 32.698C16.0033 32.8914 15.7569 33 15.5 33C15.2431 33 14.9967 32.8914 14.815 32.698C14.6333 32.5046 14.5312 32.2423 14.5312 31.9688V27.8438C14.5312 27.5702 14.6333 27.3079 14.815 27.1145C14.9967 26.9211 15.2431 26.8125 15.5 26.8125V26.8125ZM31 16.5C31 16.7735 30.8979 17.0358 30.7163 17.2292C30.5346 17.4226 30.2882 17.5312 30.0312 17.5312H26.1562C25.8993 17.5312 25.6529 17.4226 25.4712 17.2292C25.2896 17.0358 25.1875 16.7735 25.1875 16.5C25.1875 16.2265 25.2896 15.9642 25.4712 15.7708C25.6529 15.5774 25.8993 15.4688 26.1562 15.4688H30.0312C30.2882 15.4688 30.5346 15.5774 30.7163 15.7708C30.8979 15.9642 31 16.2265 31 16.5ZM5.8125 16.5C5.8125 16.7735 5.71044 17.0358 5.52876 17.2292C5.34708 17.4226 5.10068 17.5312 4.84375 17.5312H0.96875C0.711822 17.5312 0.465416 17.4226 0.28374 17.2292C0.102064 17.0358 0 16.7735 0 16.5C0 16.2265 0.102064 15.9642 0.28374 15.7708C0.465416 15.5774 0.711822 15.4688 0.96875 15.4688H4.84375C5.10068 15.4688 5.34708 15.5774 5.52876 15.7708C5.71044 15.9642 5.8125 16.2265 5.8125 16.5ZM26.4604 4.83244C26.642 5.02583 26.7441 5.28808 26.7441 5.56153C26.7441 5.83498 26.642 6.09724 26.4604 6.29062L23.7208 9.20906C23.6307 9.30481 23.5238 9.38073 23.4062 9.4325C23.2886 9.48426 23.1625 9.51086 23.0352 9.51076C22.7782 9.51057 22.5317 9.40167 22.35 9.20803C22.2601 9.11215 22.1888 8.99835 22.1401 8.87313C22.0915 8.7479 22.0665 8.61371 22.0666 8.47821C22.0668 8.20455 22.1691 7.94218 22.351 7.74881L25.0906 4.83244C25.2723 4.63911 25.5187 4.5305 25.7755 4.5305C26.0324 4.5305 26.2788 4.63911 26.4604 4.83244V4.83244ZM8.649 23.793C8.83061 23.9864 8.93264 24.2486 8.93264 24.5221C8.93264 24.7955 8.83061 25.0578 8.649 25.2512L5.90937 28.1676C5.72667 28.3554 5.48196 28.4594 5.22796 28.457C4.97395 28.4547 4.73098 28.3462 4.55136 28.155C4.37175 27.9638 4.26987 27.7051 4.26766 27.4348C4.26545 27.1644 4.3631 26.9039 4.53956 26.7094L7.27919 23.793C7.46085 23.5997 7.70722 23.4911 7.96409 23.4911C8.22097 23.4911 8.46733 23.5997 8.649 23.793V23.793ZM26.4604 28.1676C26.2788 28.3609 26.0324 28.4695 25.7755 28.4695C25.5187 28.4695 25.2723 28.3609 25.0906 28.1676L22.351 25.2512C22.1745 25.0567 22.0769 24.7962 22.0791 24.5258C22.0813 24.2554 22.1832 23.9968 22.3628 23.8056C22.5424 23.6144 22.7854 23.5059 23.0394 23.5036C23.2934 23.5012 23.5381 23.6052 23.7208 23.793L26.4604 26.7094C26.642 26.9028 26.7441 27.165 26.7441 27.4385C26.7441 27.7119 26.642 27.9742 26.4604 28.1676ZM8.649 9.20906C8.46733 9.40239 8.22097 9.511 7.96409 9.511C7.70722 9.511 7.46085 9.40239 7.27919 9.20906L4.53956 6.29062C4.44704 6.1955 4.37324 6.0817 4.32246 5.95589C4.27169 5.83007 4.24497 5.69475 4.24385 5.55782C4.24273 5.42089 4.26724 5.2851 4.31595 5.15836C4.36466 5.03162 4.4366 4.91648 4.52755 4.81966C4.61851 4.72283 4.72668 4.64625 4.84573 4.5944C4.96479 4.54255 5.09235 4.51646 5.22098 4.51765C5.34961 4.51884 5.47673 4.54729 5.59492 4.60133C5.71311 4.65538 5.82001 4.73394 5.90937 4.83244L8.649 7.74881C8.73922 7.84461 8.81079 7.95841 8.85963 8.08369C8.90847 8.20898 8.93361 8.34329 8.93361 8.47894C8.93361 8.61458 8.90847 8.7489 8.85963 8.87418C8.81079 8.99947 8.73922 9.11327 8.649 9.20906V9.20906Z" fill="black"/>
</svg>
