<svg width="160" height="68" viewBox="0 0 160 68" fill="none" xmlns="http://www.w3.org/2000/svg">
<rect width="160" height="68" fill="#D9D9D9"/>
<path d="M22.233 34V23.8182H25.7926C26.5019 23.8182 27.0869 23.9408 27.5476 24.1861C28.0083 24.428 28.3513 24.7545 28.5767 25.1655C28.8021 25.5732 28.9148 26.0256 28.9148 26.5227C28.9148 26.9602 28.8369 27.3215 28.6811 27.6065C28.5286 27.8916 28.3265 28.117 28.0746 28.2827C27.826 28.4484 27.5559 28.571 27.2642 28.6506V28.75C27.5758 28.7699 27.889 28.8793 28.2038 29.0781C28.5187 29.277 28.7822 29.562 28.9943 29.9332C29.2064 30.3045 29.3125 30.7585 29.3125 31.2955C29.3125 31.8059 29.1965 32.2649 28.9645 32.6726C28.7325 33.0803 28.3662 33.4034 27.8658 33.642C27.3653 33.8807 26.714 34 25.9119 34H22.233ZM23.4659 32.9062H25.9119C26.7173 32.9062 27.2891 32.7505 27.6271 32.4389C27.9685 32.1241 28.1392 31.7429 28.1392 31.2955C28.1392 30.9508 28.0514 30.6326 27.8757 30.3409C27.7 30.0459 27.4498 29.8106 27.125 29.6349C26.8002 29.456 26.4157 29.3665 25.9716 29.3665H23.4659V32.9062ZM23.4659 28.2926H25.7528C26.1241 28.2926 26.4588 28.2197 26.7571 28.0739C27.0587 27.928 27.2973 27.7225 27.473 27.4574C27.652 27.1922 27.7415 26.8807 27.7415 26.5227C27.7415 26.0753 27.5857 25.6958 27.2741 25.3842C26.9626 25.0694 26.4688 24.9119 25.7926 24.9119H23.4659V28.2926ZM31.1793 34V26.3636H32.3129V27.517H32.3924C32.5316 27.1392 32.7835 26.8326 33.1481 26.5973C33.5127 26.362 33.9237 26.2443 34.381 26.2443C34.4672 26.2443 34.5749 26.246 34.7042 26.2493C34.8335 26.2526 34.9312 26.2576 34.9975 26.2642V27.4574C34.9577 27.4474 34.8666 27.4325 34.7241 27.4126C34.5849 27.3894 34.4374 27.3778 34.2816 27.3778C33.9104 27.3778 33.579 27.4557 33.2873 27.6115C32.9989 27.764 32.7702 27.9761 32.6012 28.2479C32.4355 28.5163 32.3526 28.8229 32.3526 29.1676V34H31.1793ZM38.6355 34.179C38.1516 34.179 37.7124 34.0878 37.318 33.9055C36.9236 33.7199 36.6104 33.4531 36.3784 33.1051C36.1464 32.7538 36.0304 32.3295 36.0304 31.8324C36.0304 31.3949 36.1165 31.0402 36.2889 30.7685C36.4612 30.4934 36.6916 30.2779 36.9799 30.1222C37.2683 29.9664 37.5865 29.8504 37.9345 29.7741C38.2858 29.6946 38.6388 29.6316 38.9934 29.5852C39.4574 29.5256 39.8336 29.4808 40.122 29.451C40.4136 29.4179 40.6258 29.3632 40.7583 29.2869C40.8942 29.2107 40.9622 29.0781 40.9622 28.8892V28.8494C40.9622 28.3589 40.8279 27.9777 40.5595 27.706C40.2943 27.4342 39.8916 27.2983 39.3514 27.2983C38.7913 27.2983 38.3521 27.4209 38.0339 27.6662C37.7157 27.9115 37.492 28.1733 37.3627 28.4517L36.2491 28.054C36.448 27.59 36.7131 27.2287 37.0446 26.9702C37.3793 26.7083 37.7439 26.526 38.1383 26.4233C38.536 26.3172 38.9271 26.2642 39.3116 26.2642C39.5569 26.2642 39.8386 26.294 40.1568 26.3537C40.4783 26.41 40.7882 26.5277 41.0865 26.7067C41.3881 26.8857 41.6383 27.1558 41.8372 27.517C42.036 27.8783 42.1355 28.3622 42.1355 28.9688V34H40.9622V32.9659H40.9025C40.823 33.1316 40.6904 33.3089 40.5048 33.4979C40.3192 33.6868 40.0723 33.8475 39.764 33.9801C39.4558 34.1127 39.0796 34.179 38.6355 34.179ZM38.8145 33.125C39.2785 33.125 39.6696 33.0339 39.9877 32.8516C40.3092 32.6693 40.5512 32.4339 40.7136 32.1456C40.8793 31.8572 40.9622 31.554 40.9622 31.2358V30.1619C40.9125 30.2216 40.8031 30.2763 40.6341 30.326C40.4683 30.3724 40.2761 30.4138 40.0574 30.4503C39.8419 30.4834 39.6315 30.5133 39.426 30.5398C39.2238 30.563 39.0597 30.5829 38.9338 30.5994C38.6288 30.6392 38.3438 30.7038 38.0787 30.7933C37.8168 30.8795 37.6047 31.0104 37.4423 31.1861C37.2832 31.3584 37.2037 31.5937 37.2037 31.892C37.2037 32.2997 37.3545 32.608 37.6561 32.8168C37.961 33.0223 38.3471 33.125 38.8145 33.125ZM45.4503 29.4062V34H44.277V26.3636H45.4105V27.5568H45.5099C45.6889 27.169 45.9607 26.8575 46.3253 26.6222C46.6899 26.3835 47.1605 26.2642 47.7372 26.2642C48.2543 26.2642 48.7067 26.3703 49.0945 26.5824C49.4822 26.7912 49.7839 27.1094 49.9993 27.5369C50.2147 27.9612 50.3224 28.4981 50.3224 29.1477V34H49.1491V29.2273C49.1491 28.6274 48.9934 28.16 48.6818 27.8253C48.3703 27.4872 47.9427 27.3182 47.3991 27.3182C47.0246 27.3182 46.6899 27.3994 46.3949 27.5618C46.1032 27.7242 45.8729 27.9612 45.7038 28.2727C45.5348 28.5843 45.4503 28.9621 45.4503 29.4062ZM55.35 34.1591C54.7136 34.1591 54.1518 33.9983 53.6646 33.6768C53.1774 33.352 52.7962 32.8946 52.5211 32.3047C52.246 31.7114 52.1085 31.0104 52.1085 30.2017C52.1085 29.3996 52.246 28.7036 52.5211 28.1136C52.7962 27.5237 53.179 27.0679 53.6696 26.7464C54.1601 26.425 54.7269 26.2642 55.3699 26.2642C55.867 26.2642 56.2598 26.3471 56.5481 26.5128C56.8398 26.6752 57.0618 26.8608 57.2143 27.0696C57.3701 27.2751 57.4911 27.4441 57.5772 27.5767H57.6767V23.8182H58.85V34H57.7164V32.8267H57.5772C57.4911 32.9659 57.3684 33.1416 57.2093 33.3537C57.0502 33.5625 56.8232 33.7498 56.5282 33.9155C56.2333 34.0779 55.8405 34.1591 55.35 34.1591ZM55.5091 33.1051C55.9797 33.1051 56.3774 32.9825 56.7022 32.7372C57.027 32.4886 57.274 32.1456 57.443 31.7081C57.612 31.2673 57.6966 30.7585 57.6966 30.1818C57.6966 29.6117 57.6137 29.1129 57.448 28.6854C57.2823 28.2545 57.037 27.9197 56.7122 27.6811C56.3874 27.4392 55.9863 27.3182 55.5091 27.3182C55.0119 27.3182 54.5976 27.4458 54.2662 27.701C53.938 27.9529 53.6911 28.2959 53.5254 28.7301C53.363 29.161 53.2818 29.6449 53.2818 30.1818C53.2818 30.7254 53.3646 31.2192 53.5304 31.6634C53.6994 32.1042 53.948 32.4555 54.2761 32.7173C54.6075 32.9759 55.0185 33.1051 55.5091 33.1051Z" fill="black"/>
<rect x="12" y="44" width="113" height="17" fill="#999999"/>
</svg>
