<svg width="160" height="68" viewBox="0 0 160 68" fill="none" xmlns="http://www.w3.org/2000/svg">
<rect width="160" height="68" fill="#D9D9D9"/>
<path d="M32.4261 19H31.1932C31.1203 18.6454 30.9927 18.3338 30.8104 18.0653C30.6314 17.7969 30.4126 17.5715 30.1541 17.3892C29.8989 17.2036 29.6155 17.0644 29.304 16.9716C28.9924 16.8788 28.6676 16.8324 28.3295 16.8324C27.7131 16.8324 27.1546 16.9882 26.6541 17.2997C26.157 17.6113 25.7609 18.0703 25.4659 18.6768C25.1742 19.2834 25.0284 20.0275 25.0284 20.9091C25.0284 21.7907 25.1742 22.5348 25.4659 23.1413C25.7609 23.7479 26.157 24.2069 26.6541 24.5185C27.1546 24.83 27.7131 24.9858 28.3295 24.9858C28.6676 24.9858 28.9924 24.9394 29.304 24.8466C29.6155 24.7538 29.8989 24.6162 30.1541 24.4339C30.4126 24.2483 30.6314 24.0213 30.8104 23.7528C30.9927 23.4811 31.1203 23.1695 31.1932 22.8182H32.4261C32.3333 23.3385 32.1643 23.8042 31.919 24.2152C31.6738 24.6262 31.3688 24.9759 31.0043 25.2642C30.6397 25.5492 30.2304 25.7663 29.7763 25.9155C29.3255 26.0646 28.8433 26.1392 28.3295 26.1392C27.4612 26.1392 26.6889 25.9271 26.0128 25.5028C25.3366 25.0786 24.8047 24.4754 24.4169 23.6932C24.0291 22.911 23.8352 21.983 23.8352 20.9091C23.8352 19.8352 24.0291 18.9072 24.4169 18.125C24.8047 17.3428 25.3366 16.7396 26.0128 16.3153C26.6889 15.8911 27.4612 15.679 28.3295 15.679C28.8433 15.679 29.3255 15.7536 29.7763 15.9027C30.2304 16.0518 30.6397 16.2706 31.0043 16.5589C31.3688 16.844 31.6738 17.192 31.919 17.603C32.1643 18.0107 32.3333 18.4763 32.4261 19ZM37.3617 26.1591C36.6723 26.1591 36.0674 25.995 35.5471 25.6669C35.03 25.3388 34.6257 24.8797 34.334 24.2898C34.0456 23.6998 33.9015 23.0104 33.9015 22.2216C33.9015 21.4261 34.0456 20.7318 34.334 20.1385C34.6257 19.5452 35.03 19.0845 35.5471 18.7564C36.0674 18.4283 36.6723 18.2642 37.3617 18.2642C38.0511 18.2642 38.6543 18.4283 39.1713 18.7564C39.6917 19.0845 40.0961 19.5452 40.3844 20.1385C40.6761 20.7318 40.8219 21.4261 40.8219 22.2216C40.8219 23.0104 40.6761 23.6998 40.3844 24.2898C40.0961 24.8797 39.6917 25.3388 39.1713 25.6669C38.6543 25.995 38.0511 26.1591 37.3617 26.1591ZM37.3617 25.1051C37.8854 25.1051 38.3162 24.9709 38.6543 24.7024C38.9924 24.4339 39.2426 24.081 39.405 23.6435C39.5674 23.206 39.6486 22.732 39.6486 22.2216C39.6486 21.7112 39.5674 21.2356 39.405 20.7947C39.2426 20.3539 38.9924 19.9976 38.6543 19.7259C38.3162 19.4541 37.8854 19.3182 37.3617 19.3182C36.838 19.3182 36.4071 19.4541 36.0691 19.7259C35.731 19.9976 35.4808 20.3539 35.3184 20.7947C35.156 21.2356 35.0748 21.7112 35.0748 22.2216C35.0748 22.732 35.156 23.206 35.3184 23.6435C35.4808 24.081 35.731 24.4339 36.0691 24.7024C36.4071 24.9709 36.838 25.1051 37.3617 25.1051ZM43.7862 15.8182V26H42.6129V15.8182H43.7862ZM49.0375 26.1591C48.3481 26.1591 47.7432 25.995 47.2228 25.6669C46.7058 25.3388 46.3014 24.8797 46.0098 24.2898C45.7214 23.6998 45.5772 23.0104 45.5772 22.2216C45.5772 21.4261 45.7214 20.7318 46.0098 20.1385C46.3014 19.5452 46.7058 19.0845 47.2228 18.7564C47.7432 18.4283 48.3481 18.2642 49.0375 18.2642C49.7269 18.2642 50.3301 18.4283 50.8471 18.7564C51.3675 19.0845 51.7718 19.5452 52.0602 20.1385C52.3519 20.7318 52.4977 21.4261 52.4977 22.2216C52.4977 23.0104 52.3519 23.6998 52.0602 24.2898C51.7718 24.8797 51.3675 25.3388 50.8471 25.6669C50.3301 25.995 49.7269 26.1591 49.0375 26.1591ZM49.0375 25.1051C49.5611 25.1051 49.992 24.9709 50.3301 24.7024C50.6681 24.4339 50.9184 24.081 51.0808 23.6435C51.2432 23.206 51.3244 22.732 51.3244 22.2216C51.3244 21.7112 51.2432 21.2356 51.0808 20.7947C50.9184 20.3539 50.6681 19.9976 50.3301 19.7259C49.992 19.4541 49.5611 19.3182 49.0375 19.3182C48.5138 19.3182 48.0829 19.4541 47.7449 19.7259C47.4068 19.9976 47.1565 20.3539 46.9941 20.7947C46.8317 21.2356 46.7505 21.7112 46.7505 22.2216C46.7505 22.732 46.8317 23.206 46.9941 23.6435C47.1565 24.081 47.4068 24.4339 47.7449 24.7024C48.0829 24.9709 48.5138 25.1051 49.0375 25.1051ZM54.2887 26V18.3636H55.4222V19.517H55.5018C55.641 19.1392 55.8929 18.8326 56.2575 18.5973C56.622 18.362 57.033 18.2443 57.4904 18.2443C57.5766 18.2443 57.6843 18.246 57.8136 18.2493C57.9428 18.2526 58.0406 18.2576 58.1069 18.2642V19.4574C58.0671 19.4474 57.976 19.4325 57.8335 19.4126C57.6942 19.3894 57.5468 19.3778 57.391 19.3778C57.0198 19.3778 56.6883 19.4557 56.3967 19.6115C56.1083 19.764 55.8796 19.9761 55.7106 20.2479C55.5449 20.5163 55.462 20.8229 55.462 21.1676V26H54.2887Z" fill="black"/>
<rect x="10" y="34" width="113" height="17" fill="#999999"/>
</svg>
