<svg width="87" height="77" viewBox="0 0 87 77" fill="none" xmlns="http://www.w3.org/2000/svg">
<path d="M53.25 3.60938C45.4207 3.61734 37.9147 6.2818 32.3785 11.0183C26.8424 15.7548 23.7281 22.1766 23.7188 28.875C23.7089 31.2883 24.1116 33.6899 24.9141 36.0035L5.26172 52.7871C4.48077 53.4712 4.03979 54.3875 4.03125 55.3438V67.375C4.03125 68.3323 4.47572 69.2503 5.26689 69.9272C6.05806 70.6041 7.13112 70.9844 8.25 70.9844H22.3125C23.4314 70.9844 24.5044 70.6041 25.2956 69.9272C26.0868 69.2503 26.5312 68.3323 26.5312 67.375V63.7656H30.75C31.8689 63.7656 32.9419 63.3853 33.7331 62.7085C34.5243 62.0316 34.9688 61.1135 34.9688 60.1562V56.5469H39.1875C40.3052 56.5396 41.3761 56.1623 42.1758 55.4941L44.918 53.118C47.6222 53.8045 50.4292 54.149 53.25 54.1406C61.0822 54.1406 68.5936 51.4787 74.1317 46.7405C79.6699 42.0023 82.7812 35.5759 82.7812 28.875C82.7812 22.1741 79.6699 15.7477 74.1317 11.0095C68.5936 6.27128 61.0822 3.60938 53.25 3.60938ZM53.25 46.9219C50.5898 46.9273 47.9529 46.4985 45.4805 45.6586C44.7075 45.3736 43.8526 45.2929 43.0256 45.4269C42.1987 45.5609 41.4374 45.9035 40.8398 46.4105L37.4297 49.3281H30.75C29.6311 49.3281 28.5581 49.7084 27.7669 50.3853C26.9757 51.0622 26.5312 51.9802 26.5312 52.9375V56.5469H22.3125C21.1936 56.5469 20.1206 56.9272 19.3294 57.604C18.5382 58.2809 18.0938 59.199 18.0938 60.1562V63.7656H12.4688V56.8477L32.7539 39.4926C33.3466 38.9813 33.747 38.33 33.9036 37.6225C34.0603 36.915 33.9659 36.1836 33.6328 35.5223C31.9712 31.9341 31.6979 27.9847 32.8531 24.2539C34.0082 20.523 36.5309 17.2073 40.0508 14.7934C43.5707 12.3796 47.9024 10.9947 52.41 10.8422C56.9176 10.6897 61.3636 11.7776 65.0954 13.9461C68.8271 16.1146 71.6479 19.2496 73.1438 22.8907C74.6397 26.5318 74.7318 30.4874 73.4066 34.1766C72.0814 37.8658 69.4086 41.0944 65.7808 43.3883C62.153 45.6822 57.7611 46.9207 53.25 46.9219ZM65.9062 22.8594C65.9062 23.8112 65.5763 24.7416 64.9583 25.5331C64.3402 26.3245 63.4617 26.9413 62.4338 27.3055C61.406 27.6698 60.275 27.7651 59.1839 27.5794C58.0927 27.3937 57.0904 26.9354 56.3038 26.2623C55.5171 25.5893 54.9814 24.7318 54.7643 23.7982C54.5473 22.8647 54.6587 21.8971 55.0844 21.0177C55.5102 20.1383 56.2311 19.3867 57.1562 18.8579C58.0812 18.3291 59.1687 18.0469 60.2812 18.0469C61.7731 18.0469 63.2038 18.5539 64.2587 19.4564C65.3136 20.3589 65.9062 21.583 65.9062 22.8594Z" fill="url(#paint0_linear_12_84)" fill-opacity="0.84"/>
<defs>
<linearGradient id="paint0_linear_12_84" x1="43.4062" y1="3.60937" x2="43.4062" y2="70.9844" gradientUnits="userSpaceOnUse">
<stop offset="0.177083" stop-color="#3CFF98"/>
<stop offset="1" stop-color="#3CFF98" stop-opacity="0"/>
</linearGradient>
</defs>
</svg>
