<svg width="160" height="68" viewBox="0 0 160 68" fill="none" xmlns="http://www.w3.org/2000/svg">
<rect width="160" height="68" fill="#D9D9D9"/>
<path d="M21.233 15.8182H22.7045L26.1648 24.2699H26.2841L29.7443 15.8182H31.2159V26H30.0625V18.2642H29.9631L26.7812 26H25.6676L22.4858 18.2642H22.3864V26H21.233V15.8182ZM36.6312 26.1591C35.9418 26.1591 35.3369 25.995 34.8166 25.6669C34.2995 25.3388 33.8952 24.8797 33.6035 24.2898C33.3152 23.6998 33.171 23.0104 33.171 22.2216C33.171 21.4261 33.3152 20.7318 33.6035 20.1385C33.8952 19.5452 34.2995 19.0845 34.8166 18.7564C35.3369 18.4283 35.9418 18.2642 36.6312 18.2642C37.3206 18.2642 37.9238 18.4283 38.4409 18.7564C38.9612 19.0845 39.3656 19.5452 39.6539 20.1385C39.9456 20.7318 40.0914 21.4261 40.0914 22.2216C40.0914 23.0104 39.9456 23.6998 39.6539 24.2898C39.3656 24.8797 38.9612 25.3388 38.4409 25.6669C37.9238 25.995 37.3206 26.1591 36.6312 26.1591ZM36.6312 25.1051C37.1549 25.1051 37.5858 24.9709 37.9238 24.7024C38.2619 24.4339 38.5121 24.081 38.6745 23.6435C38.8369 23.206 38.9181 22.732 38.9181 22.2216C38.9181 21.7112 38.8369 21.2356 38.6745 20.7947C38.5121 20.3539 38.2619 19.9976 37.9238 19.7259C37.5858 19.4541 37.1549 19.3182 36.6312 19.3182C36.1075 19.3182 35.6767 19.4541 35.3386 19.7259C35.0005 19.9976 34.7503 20.3539 34.5879 20.7947C34.4255 21.2356 34.3443 21.7112 34.3443 22.2216C34.3443 22.732 34.4255 23.206 34.5879 23.6435C34.7503 24.081 35.0005 24.4339 35.3386 24.7024C35.6767 24.9709 36.1075 25.1051 36.6312 25.1051ZM44.766 26.1591C44.1296 26.1591 43.5678 25.9983 43.0806 25.6768C42.5934 25.352 42.2122 24.8946 41.9371 24.3047C41.6621 23.7114 41.5245 23.0104 41.5245 22.2017C41.5245 21.3996 41.6621 20.7036 41.9371 20.1136C42.2122 19.5237 42.5951 19.0679 43.0856 18.7464C43.5761 18.425 44.1429 18.2642 44.7859 18.2642C45.283 18.2642 45.6758 18.3471 45.9641 18.5128C46.2558 18.6752 46.4779 18.8608 46.6303 19.0696C46.7861 19.2751 46.9071 19.4441 46.9933 19.5767H47.0927V15.8182H48.266V26H47.1325V24.8267H46.9933C46.9071 24.9659 46.7844 25.1416 46.6254 25.3537C46.4663 25.5625 46.2392 25.7498 45.9442 25.9155C45.6493 26.0779 45.2565 26.1591 44.766 26.1591ZM44.9251 25.1051C45.3957 25.1051 45.7934 24.9825 46.1183 24.7372C46.4431 24.4886 46.69 24.1456 46.859 23.7081C47.0281 23.2673 47.1126 22.7585 47.1126 22.1818C47.1126 21.6117 47.0297 21.1129 46.864 20.6854C46.6983 20.2545 46.453 19.9197 46.1282 19.6811C45.8034 19.4392 45.4023 19.3182 44.9251 19.3182C44.4279 19.3182 44.0136 19.4458 43.6822 19.701C43.354 19.9529 43.1071 20.2959 42.9414 20.7301C42.779 21.161 42.6978 21.6449 42.6978 22.1818C42.6978 22.7254 42.7807 23.2192 42.9464 23.6634C43.1154 24.1042 43.364 24.4555 43.6921 24.7173C44.0236 24.9759 44.4345 25.1051 44.9251 25.1051ZM53.7795 26.1591C53.0437 26.1591 52.409 25.9967 51.8754 25.6719C51.3451 25.3438 50.9357 24.8864 50.6474 24.2997C50.3623 23.7098 50.2198 23.0237 50.2198 22.2415C50.2198 21.4593 50.3623 20.7699 50.6474 20.1733C50.9357 19.5734 51.3368 19.1061 51.8505 18.7713C52.3675 18.4332 52.9708 18.2642 53.6602 18.2642C54.0579 18.2642 54.4506 18.3305 54.8384 18.4631C55.2262 18.5956 55.5792 18.8111 55.8974 19.1094C56.2156 19.4044 56.4691 19.7955 56.658 20.2827C56.8469 20.7699 56.9414 21.3698 56.9414 22.0824V22.5795H51.055V21.5653H55.7482C55.7482 21.1345 55.6621 20.75 55.4897 20.4119C55.3207 20.0739 55.0787 19.8071 54.7638 19.6115C54.4523 19.416 54.0844 19.3182 53.6602 19.3182C53.1928 19.3182 52.7885 19.4342 52.4471 19.6662C52.109 19.8949 51.8488 20.1932 51.6665 20.5611C51.4843 20.929 51.3931 21.3234 51.3931 21.7443V22.4205C51.3931 22.9972 51.4925 23.486 51.6914 23.8871C51.8936 24.2848 52.1737 24.5881 52.5316 24.7969C52.8896 25.0024 53.3055 25.1051 53.7795 25.1051C54.0877 25.1051 54.3661 25.062 54.6147 24.9759C54.8666 24.8864 55.0837 24.7538 55.266 24.5781C55.4483 24.3991 55.5891 24.1771 55.6886 23.9119L56.8221 24.2301C56.7028 24.6146 56.5022 24.9527 56.2205 25.2443C55.9388 25.5327 55.5908 25.758 55.1765 25.9205C54.7622 26.0795 54.2965 26.1591 53.7795 26.1591ZM59.8995 15.8182V26H58.7262V15.8182H59.8995Z" fill="black"/>
<rect x="12" y="34" width="113" height="17" fill="#999999"/>
</svg>
