<svg width="160" height="68" viewBox="0 0 160 68" fill="none" xmlns="http://www.w3.org/2000/svg">
<rect width="160" height="68" fill="#D9D9D9"/>
<path d="M13.233 34V23.8182H16.6733C17.4688 23.8182 18.1217 23.9541 18.6321 24.2259C19.1425 24.4943 19.5204 24.8639 19.7656 25.3345C20.0109 25.8052 20.1335 26.3404 20.1335 26.9403C20.1335 27.5402 20.0109 28.0722 19.7656 28.5362C19.5204 29.0002 19.1442 29.3648 18.6371 29.63C18.13 29.8918 17.482 30.0227 16.6932 30.0227H13.9091V28.9091H16.6534C17.197 28.9091 17.6345 28.8295 17.9659 28.6705C18.3007 28.5114 18.5426 28.286 18.6918 27.9943C18.8442 27.6993 18.9205 27.348 18.9205 26.9403C18.9205 26.5327 18.8442 26.1764 18.6918 25.8714C18.5393 25.5665 18.2957 25.3312 17.9609 25.1655C17.6262 24.9964 17.1837 24.9119 16.6335 24.9119H14.4659V34H13.233ZM18.0256 29.4261L20.5312 34H19.0994L16.6335 29.4261H18.0256ZM25.1486 34.1591C24.4128 34.1591 23.7781 33.9967 23.2445 33.6719C22.7142 33.3438 22.3049 32.8864 22.0165 32.2997C21.7315 31.7098 21.589 31.0237 21.589 30.2415C21.589 29.4593 21.7315 28.7699 22.0165 28.1733C22.3049 27.5734 22.7059 27.1061 23.2196 26.7713C23.7367 26.4332 24.3399 26.2642 25.0293 26.2642C25.427 26.2642 25.8198 26.3305 26.2076 26.4631C26.5953 26.5956 26.9483 26.8111 27.2665 27.1094C27.5847 27.4044 27.8382 27.7955 28.0272 28.2827C28.2161 28.7699 28.3105 29.3698 28.3105 30.0824V30.5795H22.4242V29.5653H27.1174C27.1174 29.1345 27.0312 28.75 26.8588 28.4119C26.6898 28.0739 26.4479 27.8071 26.133 27.6115C25.8214 27.416 25.4535 27.3182 25.0293 27.3182C24.562 27.3182 24.1576 27.4342 23.8162 27.6662C23.4782 27.8949 23.218 28.1932 23.0357 28.5611C22.8534 28.929 22.7623 29.3234 22.7623 29.7443V30.4205C22.7623 30.9972 22.8617 31.486 23.0605 31.8871C23.2627 32.2848 23.5428 32.5881 23.9007 32.7969C24.2587 33.0024 24.6747 33.1051 25.1486 33.1051C25.4569 33.1051 25.7353 33.062 25.9838 32.9759C26.2357 32.8864 26.4528 32.7538 26.6351 32.5781C26.8174 32.3991 26.9583 32.1771 27.0577 31.9119L28.1912 32.2301C28.0719 32.6146 27.8714 32.9527 27.5897 33.2443C27.3079 33.5327 26.9599 33.758 26.5456 33.9205C26.1313 34.0795 25.6657 34.1591 25.1486 34.1591ZM33.4959 26.3636V27.358H29.3794V26.3636H33.4959ZM30.6124 34V25.3097C30.6124 24.8722 30.7151 24.5076 30.9206 24.2159C31.1261 23.9242 31.3929 23.7055 31.7211 23.5597C32.0492 23.4138 32.3955 23.3409 32.7601 23.3409C33.0485 23.3409 33.2838 23.3641 33.4661 23.4105C33.6484 23.4569 33.7843 23.5 33.8738 23.5398L33.5357 24.554C33.476 24.5341 33.3932 24.5092 33.2871 24.4794C33.1844 24.4496 33.0485 24.4347 32.8794 24.4347C32.4917 24.4347 32.2116 24.5324 32.0392 24.728C31.8702 24.9235 31.7857 25.2102 31.7857 25.5881V34H30.6124ZM38.0275 34.1591C37.2917 34.1591 36.657 33.9967 36.1234 33.6719C35.5931 33.3438 35.1838 32.8864 34.8954 32.2997C34.6104 31.7098 34.4679 31.0237 34.4679 30.2415C34.4679 29.4593 34.6104 28.7699 34.8954 28.1733C35.1838 27.5734 35.5848 27.1061 36.0985 26.7713C36.6156 26.4332 37.2188 26.2642 37.9082 26.2642C38.3059 26.2642 38.6987 26.3305 39.0865 26.4631C39.4743 26.5956 39.8272 26.8111 40.1454 27.1094C40.4636 27.4044 40.7172 27.7955 40.9061 28.2827C41.095 28.7699 41.1895 29.3698 41.1895 30.0824V30.5795H35.3031V29.5653H39.9963C39.9963 29.1345 39.9101 28.75 39.7377 28.4119C39.5687 28.0739 39.3268 27.8071 39.0119 27.6115C38.7003 27.416 38.3324 27.3182 37.9082 27.3182C37.4409 27.3182 37.0365 27.4342 36.6951 27.6662C36.3571 27.8949 36.0969 28.1932 35.9146 28.5611C35.7323 28.929 35.6412 29.3234 35.6412 29.7443V30.4205C35.6412 30.9972 35.7406 31.486 35.9395 31.8871C36.1416 32.2848 36.4217 32.5881 36.7797 32.7969C37.1376 33.0024 37.5536 33.1051 38.0275 33.1051C38.3358 33.1051 38.6142 33.062 38.8627 32.9759C39.1146 32.8864 39.3317 32.7538 39.514 32.5781C39.6963 32.3991 39.8372 32.1771 39.9366 31.9119L41.0701 32.2301C40.9508 32.6146 40.7503 32.9527 40.4686 33.2443C40.1868 33.5327 39.8388 33.758 39.4245 33.9205C39.0102 34.0795 38.5446 34.1591 38.0275 34.1591ZM42.9743 34V26.3636H44.1078V27.517H44.1873C44.3265 27.1392 44.5784 26.8326 44.943 26.5973C45.3076 26.362 45.7186 26.2443 46.176 26.2443C46.2621 26.2443 46.3699 26.246 46.4991 26.2493C46.6284 26.2526 46.7261 26.2576 46.7924 26.2642V27.4574C46.7527 27.4474 46.6615 27.4325 46.519 27.4126C46.3798 27.3894 46.2323 27.3778 46.0765 27.3778C45.7053 27.3778 45.3739 27.4557 45.0822 27.6115C44.7939 27.764 44.5652 27.9761 44.3961 28.2479C44.2304 28.5163 44.1475 28.8229 44.1475 29.1676V34H42.9743ZM51.1525 34.1591C50.4167 34.1591 49.782 33.9967 49.2484 33.6719C48.7181 33.3438 48.3088 32.8864 48.0204 32.2997C47.7354 31.7098 47.5929 31.0237 47.5929 30.2415C47.5929 29.4593 47.7354 28.7699 48.0204 28.1733C48.3088 27.5734 48.7098 27.1061 49.2235 26.7713C49.7406 26.4332 50.3438 26.2642 51.0332 26.2642C51.4309 26.2642 51.8237 26.3305 52.2115 26.4631C52.5993 26.5956 52.9522 26.8111 53.2704 27.1094C53.5886 27.4044 53.8422 27.7955 54.0311 28.2827C54.22 28.7699 54.3145 29.3698 54.3145 30.0824V30.5795H48.4281V29.5653H53.1213C53.1213 29.1345 53.0351 28.75 52.8627 28.4119C52.6937 28.0739 52.4518 27.8071 52.1369 27.6115C51.8253 27.416 51.4574 27.3182 51.0332 27.3182C50.5659 27.3182 50.1615 27.4342 49.8201 27.6662C49.4821 27.8949 49.2219 28.1932 49.0396 28.5611C48.8573 28.929 48.7662 29.3234 48.7662 29.7443V30.4205C48.7662 30.9972 48.8656 31.486 49.0645 31.8871C49.2666 32.2848 49.5467 32.5881 49.9047 32.7969C50.2626 33.0024 50.6786 33.1051 51.1525 33.1051C51.4608 33.1051 51.7392 33.062 51.9877 32.9759C52.2396 32.8864 52.4567 32.7538 52.639 32.5781C52.8213 32.3991 52.9622 32.1771 53.0616 31.9119L54.1951 32.2301C54.0758 32.6146 53.8753 32.9527 53.5936 33.2443C53.3118 33.5327 52.9638 33.758 52.5495 33.9205C52.1352 34.0795 51.6696 34.1591 51.1525 34.1591ZM57.2725 29.4062V34H56.0993V26.3636H57.2328V27.5568H57.3322C57.5112 27.169 57.783 26.8575 58.1475 26.6222C58.5121 26.3835 58.9828 26.2642 59.5595 26.2642C60.0765 26.2642 60.5289 26.3703 60.9167 26.5824C61.3045 26.7912 61.6061 27.1094 61.8216 27.5369C62.037 27.9612 62.1447 28.4981 62.1447 29.1477V34H60.9714V29.2273C60.9714 28.6274 60.8156 28.16 60.5041 27.8253C60.1925 27.4872 59.765 27.3182 59.2214 27.3182C58.8469 27.3182 58.5121 27.3994 58.2172 27.5618C57.9255 27.7242 57.6951 27.9612 57.5261 28.2727C57.3571 28.5843 57.2725 28.9621 57.2725 29.4062ZM67.391 34.1591C66.6751 34.1591 66.0586 33.9901 65.5415 33.652C65.0245 33.3139 64.6268 32.8482 64.3484 32.255C64.07 31.6617 63.9308 30.9839 63.9308 30.2216C63.9308 29.446 64.0733 28.7616 64.3583 28.1683C64.6467 27.5717 65.0477 27.1061 65.5614 26.7713C66.0785 26.4332 66.6817 26.2642 67.3711 26.2642C67.908 26.2642 68.3919 26.3636 68.8228 26.5625C69.2537 26.7614 69.6067 27.0398 69.8817 27.3977C70.1568 27.7557 70.3275 28.1733 70.3938 28.6506H69.2205C69.131 28.3026 68.9322 27.9943 68.6239 27.7259C68.319 27.4541 67.908 27.3182 67.391 27.3182C66.9336 27.3182 66.5326 27.4375 66.1879 27.6761C65.8465 27.9115 65.5797 28.2446 65.3874 28.6754C65.1985 29.103 65.104 29.6051 65.104 30.1818C65.104 30.7718 65.1969 31.2855 65.3825 31.723C65.5714 32.1605 65.8365 32.5002 66.1779 32.7422C66.5226 32.9841 66.927 33.1051 67.391 33.1051C67.6959 33.1051 67.9727 33.0521 68.2212 32.946C68.4698 32.84 68.6803 32.6875 68.8526 32.4886C69.025 32.2898 69.1476 32.0511 69.2205 31.7727H70.3938C70.3275 32.2235 70.1635 32.6295 69.9016 32.9908C69.6431 33.3487 69.3001 33.6338 68.8725 33.8459C68.4483 34.0547 67.9544 34.1591 67.391 34.1591ZM75.3107 34.1591C74.5749 34.1591 73.9402 33.9967 73.4066 33.6719C72.8763 33.3438 72.467 32.8864 72.1786 32.2997C71.8936 31.7098 71.7511 31.0237 71.7511 30.2415C71.7511 29.4593 71.8936 28.7699 72.1786 28.1733C72.467 27.5734 72.868 27.1061 73.3817 26.7713C73.8988 26.4332 74.502 26.2642 75.1914 26.2642C75.5891 26.2642 75.9819 26.3305 76.3697 26.4631C76.7575 26.5956 77.1104 26.8111 77.4286 27.1094C77.7468 27.4044 78.0004 27.7955 78.1893 28.2827C78.3782 28.7699 78.4727 29.3698 78.4727 30.0824V30.5795H72.5863V29.5653H77.2795C77.2795 29.1345 77.1933 28.75 77.021 28.4119C76.8519 28.0739 76.61 27.8071 76.2951 27.6115C75.9835 27.416 75.6156 27.3182 75.1914 27.3182C74.7241 27.3182 74.3197 27.4342 73.9783 27.6662C73.6403 27.8949 73.3801 28.1932 73.1978 28.5611C73.0155 28.929 72.9244 29.3234 72.9244 29.7443V30.4205C72.9244 30.9972 73.0238 31.486 73.2227 31.8871C73.4248 32.2848 73.7049 32.5881 74.0629 32.7969C74.4208 33.0024 74.8368 33.1051 75.3107 33.1051C75.619 33.1051 75.8974 33.062 76.146 32.9759C76.3978 32.8864 76.6149 32.7538 76.7972 32.5781C76.9795 32.3991 77.1204 32.1771 77.2198 31.9119L78.3533 32.2301C78.234 32.6146 78.0335 32.9527 77.7518 33.2443C77.4701 33.5327 77.122 33.758 76.7077 33.9205C76.2934 34.0795 75.8278 34.1591 75.3107 34.1591Z" fill="black"/>
<rect x="10" y="44" width="113" height="17" fill="#999999"/>
</svg>
