<svg width="86" height="79" viewBox="0 0 86 79" fill="none" xmlns="http://www.w3.org/2000/svg">
<path d="M68.6656 15.9234C63.5924 11.2757 57.1335 8.11343 50.1049 6.83595C43.0762 5.55847 35.793 6.22312 29.1753 8.74596C22.5577 11.2688 16.9023 15.5366 12.9237 21.0104C8.94513 26.4841 6.82171 32.9183 6.82171 39.5C6.82171 46.0817 8.94513 52.5158 12.9237 57.9896C16.9023 63.4634 22.5577 67.7312 29.1753 70.254C35.793 72.7769 43.0762 73.4415 50.1049 72.164C57.1335 70.8866 63.5924 67.7242 68.6656 63.0766C75.4599 56.8175 79.2753 48.3391 79.2753 39.5C79.2753 30.6609 75.4599 22.1825 68.6656 15.9234V15.9234ZM62.9547 57.8305C59.0081 61.4554 53.98 63.924 48.5062 64.924C43.0324 65.924 37.3587 65.4105 32.2025 63.4484C27.0464 61.4864 22.6394 58.1639 19.5388 53.9011C16.4382 49.6384 14.7833 44.6267 14.7833 39.5C14.7833 34.3732 16.4382 29.3616 19.5388 25.0988C22.6394 20.8361 27.0464 17.5136 32.2025 15.5516C37.3587 13.5895 43.0324 13.076 48.5062 14.076C53.98 15.076 59.0081 17.5445 62.9547 21.1695C68.2309 26.0389 71.1931 32.6296 71.1931 39.5C71.1931 46.3704 68.2309 52.9611 62.9547 57.8305V57.8305ZM56.6055 24.5332C56.9813 24.8772 57.2795 25.286 57.4829 25.7361C57.6864 26.1863 57.7911 26.6689 57.7911 27.1562C57.7911 27.6436 57.6864 28.1262 57.4829 28.5763C57.2795 29.0265 56.9813 29.4353 56.6055 29.7793L45.8555 39.6543C45.0947 40.344 44.0689 40.7308 43 40.7308C41.9311 40.7308 40.9053 40.344 40.1445 39.6543L29.3945 29.7793C28.6372 29.0836 28.2118 28.1401 28.2118 27.1562C28.2118 26.1724 28.6372 25.2289 29.3945 24.5332C30.1518 23.8375 31.179 23.4467 32.25 23.4467C33.321 23.4467 34.3482 23.8375 35.1055 24.5332L43 31.7851L50.8945 24.5332C51.2691 24.188 51.7141 23.914 52.2041 23.7271C52.6941 23.5402 53.2194 23.444 53.75 23.444C54.2806 23.444 54.8059 23.5402 55.2959 23.7271C55.7859 23.914 56.231 24.188 56.6055 24.5332V24.5332ZM56.6055 41.8144C56.9813 42.1585 57.2795 42.5673 57.4829 43.0174C57.6864 43.4675 57.7911 43.9501 57.7911 44.4375C57.7911 44.9249 57.6864 45.4075 57.4829 45.8576C57.2795 46.3077 56.9813 46.7165 56.6055 47.0605L45.8555 56.9355C45.0947 57.6253 44.0689 58.012 43 58.012C41.9311 58.012 40.9053 57.6253 40.1445 56.9355L29.3945 47.0605C28.6372 46.3649 28.2118 45.4213 28.2118 44.4375C28.2118 43.4537 28.6372 42.5101 29.3945 41.8144C30.1518 41.1188 31.179 40.7279 32.25 40.7279C33.321 40.7279 34.3482 41.1188 35.1055 41.8144L43 49.0664L50.8945 41.8144C51.2691 41.4692 51.7141 41.1953 52.2041 41.0084C52.6941 40.8215 53.2194 40.7253 53.75 40.7253C54.2806 40.7253 54.8059 40.8215 55.2959 41.0084C55.7859 41.1953 56.231 41.4692 56.6055 41.8144Z" fill="url(#paint0_linear_12_78)"/>
<defs>
<linearGradient id="paint0_linear_12_78" x1="43.0485" y1="6.20271" x2="43.0485" y2="72.7973" gradientUnits="userSpaceOnUse">
<stop offset="0.651042"/>
<stop offset="1" stop-opacity="0"/>
</linearGradient>
</defs>
</svg>
