<svg width="68" height="77" viewBox="0 0 68 77" fill="none" xmlns="http://www.w3.org/2000/svg">
<path d="M44.0768 39.8331V37.1718C44.0768 33.1918 42.2833 31.2332 39.882 31.2332C37.451 31.2332 35.6745 33.1918 35.6745 37.1718V39.8331C35.6745 43.8275 37.451 45.7862 39.882 45.7862C42.2833 45.7862 44.0768 43.8227 44.0768 39.8331ZM55.0673 38.6781C57.035 38.6781 58.1911 37.3691 58.1911 35.0976C58.1911 32.8261 57.035 31.5315 55.0673 31.5315H51.7778V38.6781H55.0673Z" fill="url(#paint0_linear_12_86)"/>
<path fill-rule="evenodd" clip-rule="evenodd" d="M20.7952 0C20.2328 0.000135323 19.6932 0.252806 19.295 0.702625L0.6205 21.8487C0.223257 22.2997 0.000119506 22.9106 0 23.5476L0 53.4524C0.000119506 54.0894 0.223257 54.7003 0.6205 55.1512L19.295 76.2974C19.6932 76.7472 20.2328 76.9999 20.7952 77H47.2048C47.7673 76.9999 48.3068 76.7472 48.705 76.2974L67.3795 55.1512C67.7767 54.7003 67.9999 54.0894 68 53.4524V23.5476C67.9999 22.9106 67.7767 22.2997 67.3795 21.8487L48.705 0.702625C48.3068 0.252806 47.7673 0.000135323 47.2048 0L20.7952 0ZM13.43 48.51C9.47325 48.51 7.28025 46.1374 7.0805 43.0622H9.85575C10.132 44.7274 11.5387 45.8679 13.6425 45.8679C15.8695 45.8679 17.17 44.6841 17.17 42.8842C17.17 41.426 16.3073 40.6367 14.4628 40.1314L11.6748 39.3422C9.08225 38.6348 7.51825 36.8878 7.51825 34.1543C7.51825 30.7567 10.0555 28.4563 13.6553 28.4563C17.2805 28.4563 19.5458 30.7423 19.7583 33.6875H17.017C16.745 32.1475 15.521 31.0791 13.6298 31.0791C11.6237 31.0791 10.3573 32.263 10.3573 33.9666C10.3573 35.2227 11.1903 36.0697 12.7075 36.4787L15.487 37.2536C18.3472 38.0428 19.992 39.5972 19.992 42.5954C19.992 46.1374 17.5525 48.5052 13.43 48.5052V48.51ZM27.9947 31.6181V48.125H25.1685V31.6181H20.2002V28.875H32.9757V31.6085H27.9947V31.6181ZM46.9412 37.2006V39.8186C46.9412 45.2616 44.2383 48.5052 39.882 48.5052C35.5215 48.5052 32.81 45.2616 32.81 39.8186V37.2006C32.81 31.7336 35.5215 28.5044 39.882 28.5044C44.2383 28.5044 46.937 31.7481 46.937 37.2006H46.9412ZM48.96 28.875H55.4837C58.9688 28.875 61.0768 31.5219 61.0768 35.0928C61.0768 38.6877 58.9475 41.2961 55.4625 41.2961H51.7863V48.125H48.96V28.8798V28.875Z" fill="url(#paint1_linear_12_86)"/>
<defs>
<linearGradient id="paint0_linear_12_86" x1="46.9328" y1="31.2332" x2="46.9328" y2="45.7862" gradientUnits="userSpaceOnUse">
<stop offset="0.363636" stop-color="#F43700"/>
<stop offset="1" stop-color="#F43700" stop-opacity="0"/>
</linearGradient>
<linearGradient id="paint1_linear_12_86" x1="34" y1="0" x2="34" y2="77" gradientUnits="userSpaceOnUse">
<stop offset="0.363636" stop-color="#F43700"/>
<stop offset="1" stop-color="#F43700" stop-opacity="0"/>
</linearGradient>
</defs>
</svg>
