<svg width="65" height="49" viewBox="0 0 65 49" fill="none" xmlns="http://www.w3.org/2000/svg">
<path d="M59.7413 33.6395H31.408V44.6963C31.4078 45.3061 31.2 45.9021 30.8109 46.409C30.4217 46.9159 29.8686 47.311 29.2216 47.5443C28.5745 47.7777 27.8625 47.8387 27.1756 47.7198C26.4887 47.6009 25.8577 47.3073 25.3624 46.8763L2.03695 26.5694C1.37299 25.9912 1 25.2071 1 24.3895C1 23.5719 1.37299 22.7878 2.03695 22.2096L25.3624 1.90276C25.8577 1.47168 26.4887 1.17813 27.1756 1.05921C27.8625 0.940294 28.5745 1.00135 29.2216 1.23467C29.8686 1.46799 30.4217 1.86308 30.8109 2.37001C31.2 2.87694 31.4078 3.47295 31.408 4.08268V15.1395H59.7413C60.6806 15.1395 61.5815 15.4644 62.2457 16.0426C62.9099 16.6208 63.283 17.4051 63.283 18.2228V30.5562C63.283 31.3739 62.9099 32.1582 62.2457 32.7364C61.5815 33.3147 60.6806 33.6395 59.7413 33.6395Z" stroke="#01FF0B" stroke-width="2" stroke-linecap="round" stroke-linejoin="round"/>
</svg>
